NotoSansVai-Regular.ufo
<glyph name="uA500" format="2">
  <advance width="650"/>
  <unicode hex="A500"/>
  <outline>
    <contour>
      <point x="84" y="0" type="line"/>
      <point x="566" y="0" type="line"/>
      <point x="566" y="69" type="line"/>
      <point x="364" y="69" type="line"/>
      <point x="364" y="645" type="line"/>
      <point x="566" y="645" type="line"/>
      <point x="566" y="714" type="line"/>
      <point x="84" y="714" type="line"/>
      <point x="84" y="645" type="line"/>
      <point x="286" y="645" type="line"/>
      <point x="286" y="69" type="line"/>
      <point x="84" y="69" type="line"/>
    </contour>
    <contour>
      <point x="131" y="259" type="curve"/>
      <point x="195" y="259"/>
      <point x="242" y="298"/>
      <point x="242" y="366" type="curve"/>
      <point x="242" y="431"/>
      <point x="194" y="470"/>
      <point x="131" y="470" type="curve"/>
      <point x="66" y="470"/>
      <point x="22" y="431"/>
      <point x="22" y="365" type="curve"/>
      <point x="22" y="298"/>
      <point x="66" y="259"/>
    </contour>
    <contour>
      <point x="131" y="315" type="curve"/>
      <point x="99" y="315"/>
      <point x="81" y="333"/>
      <point x="81" y="365" type="curve"/>
      <point x="81" y="396"/>
      <point x="102" y="415"/>
      <point x="131" y="415" type="curve"/>
      <point x="160" y="415"/>
      <point x="181" y="396"/>
      <point x="181" y="365" type="curve" smooth="yes"/>
      <point x="181" y="333"/>
      <point x="161" y="315"/>
    </contour>
    <contour>
      <point x="517" y="259" type="curve" smooth="yes"/>
      <point x="581" y="259"/>
      <point x="628" y="298"/>
      <point x="628" y="366" type="curve" smooth="yes"/>
      <point x="628" y="431"/>
      <point x="580" y="470"/>
      <point x="517" y="470" type="curve" smooth="yes"/>
      <point x="452" y="470"/>
      <point x="408" y="431"/>
      <point x="408" y="365" type="curve" smooth="yes"/>
      <point x="408" y="298"/>
      <point x="452" y="259"/>
    </contour>
    <contour>
      <point x="517" y="315" type="curve" smooth="yes"/>
      <point x="485" y="315"/>
      <point x="467" y="333"/>
      <point x="467" y="365" type="curve" smooth="yes"/>
      <point x="467" y="396"/>
      <point x="488" y="415"/>
      <point x="517" y="415" type="curve" smooth="yes"/>
      <point x="546" y="415"/>
      <point x="567" y="396"/>
      <point x="567" y="365" type="curve" smooth="yes"/>
      <point x="567" y="333"/>
      <point x="547" y="315"/>
    </contour>
  </outline>
</glyph>
<glyph name="uA501" format="2">
  <advance width="694"/>
  <unicode hex="A501"/>
  <outline>
    <contour>
      <point x="106" y="0" type="line"/>
      <point x="588" y="0" type="line"/>
      <point x="588" y="69" type="line"/>
      <point x="386" y="69" type="line"/>
      <point x="386" y="120" type="line"/>
      <point x="588" y="120" type="line"/>
      <point x="588" y="189" type="line"/>
      <point x="386" y="189" type="line"/>
      <point x="386" y="525" type="line"/>
      <point x="588" y="525" type="line"/>
      <point x="588" y="594" type="line"/>
      <point x="386" y="594" type="line"/>
      <point x="386" y="645" type="line"/>
      <point x="588" y="645" type="line"/>
      <point x="588" y="714" type="line"/>
      <point x="106" y="714" type="line"/>
      <point x="106" y="645" type="line"/>
      <point x="308" y="645" type="line"/>
      <point x="308" y="594" type="line"/>
      <point x="106" y="594" type="line"/>
      <point x="106" y="525" type="line"/>
      <point x="308" y="525" type="line"/>
      <point x="308" y="189" type="line"/>
      <point x="106" y="189" type="line"/>
      <point x="106" y="120" type="line"/>
      <point x="308" y="120" type="line"/>
      <point x="308" y="69" type="line"/>
      <point x="106" y="69" type="line"/>
    </contour>
    <contour>
      <point x="153" y="259" type="curve" smooth="yes"/>
      <point x="217" y="259"/>
      <point x="264" y="298"/>
      <point x="264" y="366" type="curve" smooth="yes"/>
      <point x="264" y="431"/>
      <point x="216" y="470"/>
      <point x="153" y="470" type="curve" smooth="yes"/>
      <point x="88" y="470"/>
      <point x="44" y="431"/>
      <point x="44" y="365" type="curve" smooth="yes"/>
      <point x="44" y="298"/>
      <point x="88" y="259"/>
    </contour>
    <contour>
      <point x="153" y="315" type="curve" smooth="yes"/>
      <point x="121" y="315"/>
      <point x="103" y="333"/>
      <point x="103" y="365" type="curve" smooth="yes"/>
      <point x="103" y="396"/>
      <point x="124" y="415"/>
      <point x="153" y="415" type="curve" smooth="yes"/>
      <point x="182" y="415"/>
      <point x="203" y="396"/>
      <point x="203" y="365" type="curve" smooth="yes"/>
      <point x="203" y="333"/>
      <point x="183" y="315"/>
    </contour>
    <contour>
      <point x="539" y="259" type="curve" smooth="yes"/>
      <point x="603" y="259"/>
      <point x="650" y="298"/>
      <point x="650" y="366" type="curve" smooth="yes"/>
      <point x="650" y="431"/>
      <point x="602" y="470"/>
      <point x="539" y="470" type="curve" smooth="yes"/>
      <point x="474" y="470"/>
      <point x="430" y="431"/>
      <point x="430" y="365" type="curve" smooth="yes"/>
      <point x="430" y="298"/>
      <point x="474" y="259"/>
    </contour>
    <contour>
      <point x="539" y="315" type="curve" smooth="yes"/>
      <point x="507" y="315"/>
      <point x="489" y="333"/>
      <point x="489" y="365" type="curve" smooth="yes"/>
      <point x="489" y="396"/>
      <point x="510" y="415"/>
      <point x="539" y="415" type="curve" smooth="yes"/>
      <point x="568" y="415"/>
      <point x="589" y="396"/>
      <point x="589" y="365" type="curve" smooth="yes"/>
      <point x="589" y="333"/>
      <point x="569" y="315"/>
    </contour>
  </outline>
</glyph>
<glyph name="uA502" format="2">
  <advance width="779"/>
  <unicode hex="A502"/>
  <outline>
    <contour>
      <point x="427" y="-87" type="line"/>
      <point x="475" y="-4" type="line"/>
      <point x="493" y="-8"/>
      <point x="512" y="-11"/>
      <point x="533" y="-11" type="curve" smooth="yes"/>
      <point x="631" y="-11"/>
      <point x="713" y="59"/>
      <point x="746" y="172" type="curve"/>
      <point x="679" y="189" type="line"/>
      <point x="655" y="106"/>
      <point x="605" y="57"/>
      <point x="533" y="57" type="curve" smooth="yes"/>
      <point x="525" y="57"/>
      <point x="518" y="57"/>
      <point x="511" y="58" type="curve"/>
      <point x="615" y="237" type="line"/>
      <point x="552" y="273" type="line"/>
      <point x="447" y="93" type="line"/>
      <point x="428" y="115"/>
      <point x="417" y="147"/>
      <point x="417" y="186" type="curve" smooth="yes"/>
      <point x="417" y="329"/>
      <point x="532" y="519"/>
      <point x="664" y="689" type="curve"/>
      <point x="600" y="725" type="line"/>
      <point x="541" y="649"/>
      <point x="486" y="570"/>
      <point x="442" y="493" type="curve"/>
      <point x="400" y="502"/>
      <point x="370" y="540"/>
      <point x="370" y="621" type="curve" smooth="yes"/>
      <point x="370" y="714" type="line"/>
      <point x="292" y="714" type="line"/>
      <point x="292" y="623" type="line" smooth="yes"/>
      <point x="292" y="527"/>
      <point x="250" y="491"/>
      <point x="205" y="491" type="curve" smooth="yes"/>
      <point x="147" y="491"/>
      <point x="111" y="540"/>
      <point x="111" y="643" type="curve" smooth="yes"/>
      <point x="111" y="714" type="line"/>
      <point x="33" y="714" type="line"/>
      <point x="33" y="643" type="line" smooth="yes"/>
      <point x="33" y="477"/>
      <point x="96" y="425"/>
      <point x="190" y="425" type="curve" smooth="yes"/>
      <point x="242" y="425"/>
      <point x="297" y="447"/>
      <point x="327" y="515" type="curve"/>
      <point x="331" y="515" type="line"/>
      <point x="345" y="467"/>
      <point x="377" y="442"/>
      <point x="409" y="432" type="curve"/>
      <point x="365" y="345"/>
      <point x="339" y="260"/>
      <point x="339" y="186" type="curve" smooth="yes"/>
      <point x="339" y="115"/>
      <point x="364" y="61"/>
      <point x="409" y="27" type="curve"/>
      <point x="364" y="-51" type="line"/>
    </contour>
  </outline>
</glyph>
<glyph name="uA503" format="2">
  <advance width="857"/>
  <unicode hex="A503"/>
  <outline>
    <contour>
      <point x="442" y="0" type="line"/>
      <point x="824" y="0" type="line"/>
      <point x="824" y="69" type="line"/>
      <point x="672" y="69" type="line"/>
      <point x="672" y="514" type="line"/>
      <point x="594" y="514" type="line"/>
      <point x="567" y="470"/>
      <point x="463" y="439"/>
      <point x="398" y="439" type="curve" smooth="yes"/>
      <point x="325" y="439"/>
      <point x="263" y="439"/>
      <point x="263" y="522" type="curve" smooth="yes"/>
      <point x="263" y="645" type="line"/>
      <point x="415" y="645" type="line"/>
      <point x="415" y="714" type="line"/>
      <point x="33" y="714" type="line"/>
      <point x="33" y="645" type="line"/>
      <point x="185" y="645" type="line"/>
      <point x="185" y="521" type="line" smooth="yes"/>
      <point x="185" y="402"/>
      <point x="257" y="378"/>
      <point x="344" y="371" type="curve"/>
      <point x="344" y="230" type="line"/>
      <point x="594" y="230" type="line"/>
      <point x="594" y="69" type="line"/>
      <point x="442" y="69" type="line"/>
    </contour>
    <contour>
      <point x="422" y="299" type="line"/>
      <point x="422" y="372" type="line"/>
      <point x="493" y="379"/>
      <point x="550" y="395"/>
      <point x="590" y="426" type="curve"/>
      <point x="594" y="426" type="line"/>
      <point x="594" y="299" type="line"/>
    </contour>
  </outline>
</glyph>
<glyph name="uA505" format="2">
  <advance width="882"/>
  <unicode hex="A505"/>
  <outline>
    <contour>
      <point x="441" y="-10" type="curve" smooth="yes"/>
      <point x="537" y="-10"/>
      <point x="619" y="61"/>
      <point x="619" y="166" type="curve" smooth="yes"/>
      <point x="619" y="258"/>
      <point x="555" y="325"/>
      <point x="474" y="339" type="curve"/>
      <point x="474" y="509" type="line"/>
      <point x="496" y="509" type="line"/>
      <point x="513" y="424"/>
      <point x="586" y="369"/>
      <point x="671" y="369" type="curve" smooth="yes"/>
      <point x="767" y="369"/>
      <point x="849" y="440"/>
      <point x="849" y="545" type="curve" smooth="yes"/>
      <point x="849" y="650"/>
      <point x="767" y="721"/>
      <point x="671" y="721" type="curve" smooth="yes"/>
      <point x="585" y="721"/>
      <point x="511" y="664"/>
      <point x="496" y="578" type="curve"/>
      <point x="386" y="578" type="line"/>
      <point x="371" y="664"/>
      <point x="296" y="721"/>
      <point x="211" y="721" type="curve" smooth="yes"/>
      <point x="115" y="721"/>
      <point x="33" y="650"/>
      <point x="33" y="545" type="curve" smooth="yes"/>
      <point x="33" y="440"/>
      <point x="115" y="369"/>
      <point x="211" y="369" type="curve" smooth="yes"/>
      <point x="295" y="369"/>
      <point x="369" y="424"/>
      <point x="385" y="509" type="curve"/>
      <point x="405" y="509" type="line"/>
      <point x="405" y="338" type="line"/>
      <point x="325" y="323"/>
      <point x="263" y="257"/>
      <point x="263" y="166" type="curve" smooth="yes"/>
      <point x="263" y="61"/>
      <point x="345" y="-10"/>
    </contour>
    <contour>
      <point x="441" y="56" type="curve" smooth="yes"/>
      <point x="388" y="56"/>
      <point x="340" y="100"/>
      <point x="340" y="166" type="curve" smooth="yes"/>
      <point x="340" y="232"/>
      <point x="388" y="276"/>
      <point x="441" y="276" type="curve" smooth="yes"/>
      <point x="493" y="276"/>
      <point x="542" y="232"/>
      <point x="542" y="166" type="curve" smooth="yes"/>
      <point x="542" y="100"/>
      <point x="493" y="56"/>
    </contour>
    <contour>
      <point x="211" y="435" type="curve" smooth="yes"/>
      <point x="158" y="435"/>
      <point x="110" y="479"/>
      <point x="110" y="545" type="curve" smooth="yes"/>
      <point x="110" y="611"/>
      <point x="158" y="655"/>
      <point x="211" y="655" type="curve" smooth="yes"/>
      <point x="263" y="655"/>
      <point x="312" y="611"/>
      <point x="312" y="545" type="curve" smooth="yes"/>
      <point x="312" y="479"/>
      <point x="263" y="435"/>
    </contour>
    <contour>
      <point x="671" y="435" type="curve" smooth="yes"/>
      <point x="618" y="435"/>
      <point x="570" y="479"/>
      <point x="570" y="545" type="curve" smooth="yes"/>
      <point x="570" y="611"/>
      <point x="618" y="655"/>
      <point x="671" y="655" type="curve" smooth="yes"/>
      <point x="723" y="655"/>
      <point x="772" y="611"/>
      <point x="772" y="545" type="curve" smooth="yes"/>
      <point x="772" y="479"/>
      <point x="723" y="435"/>
    </contour>
  </outline>
</glyph>
<glyph name="uA506" format="2">
  <advance width="1082"/>
  <unicode hex="A506"/>
  <outline>
    <contour>
      <point x="211" y="-10" type="curve" smooth="yes"/>
      <point x="296" y="-10"/>
      <point x="371" y="46"/>
      <point x="386" y="133" type="curve"/>
      <point x="696" y="133" type="line"/>
      <point x="711" y="46"/>
      <point x="785" y="-10"/>
      <point x="871" y="-10" type="curve" smooth="yes"/>
      <point x="967" y="-10"/>
      <point x="1049" y="61"/>
      <point x="1049" y="166" type="curve" smooth="yes"/>
      <point x="1049" y="271"/>
      <point x="967" y="342"/>
      <point x="871" y="342" type="curve" smooth="yes"/>
      <point x="786" y="342"/>
      <point x="713" y="287"/>
      <point x="696" y="202" type="curve"/>
      <point x="574" y="202" type="line"/>
      <point x="574" y="372" type="line"/>
      <point x="655" y="386"/>
      <point x="719" y="452"/>
      <point x="719" y="545" type="curve" smooth="yes"/>
      <point x="719" y="650"/>
      <point x="637" y="721"/>
      <point x="541" y="721" type="curve" smooth="yes"/>
      <point x="445" y="721"/>
      <point x="363" y="650"/>
      <point x="363" y="545" type="curve" smooth="yes"/>
      <point x="363" y="453"/>
      <point x="425" y="388"/>
      <point x="505" y="372" type="curve"/>
      <point x="505" y="202" type="line"/>
      <point x="385" y="202" type="line"/>
      <point x="369" y="287"/>
      <point x="295" y="342"/>
      <point x="211" y="342" type="curve" smooth="yes"/>
      <point x="115" y="342"/>
      <point x="33" y="271"/>
      <point x="33" y="166" type="curve" smooth="yes"/>
      <point x="33" y="61"/>
      <point x="115" y="-10"/>
    </contour>
    <contour>
      <point x="211" y="56" type="curve" smooth="yes"/>
      <point x="158" y="56"/>
      <point x="110" y="100"/>
      <point x="110" y="166" type="curve" smooth="yes"/>
      <point x="110" y="232"/>
      <point x="158" y="276"/>
      <point x="211" y="276" type="curve" smooth="yes"/>
      <point x="263" y="276"/>
      <point x="312" y="232"/>
      <point x="312" y="166" type="curve" smooth="yes"/>
      <point x="312" y="100"/>
      <point x="263" y="56"/>
    </contour>
    <contour>
      <point x="424" y="263" type="curve" smooth="yes"/>
      <point x="454" y="263"/>
      <point x="474" y="281"/>
      <point x="474" y="313" type="curve" smooth="yes"/>
      <point x="474" y="344"/>
      <point x="453" y="363"/>
      <point x="424" y="363" type="curve" smooth="yes"/>
      <point x="395" y="363"/>
      <point x="374" y="344"/>
      <point x="374" y="313" type="curve" smooth="yes"/>
      <point x="374" y="281"/>
      <point x="392" y="263"/>
    </contour>
    <contour>
      <point x="657" y="263" type="curve" smooth="yes"/>
      <point x="687" y="263"/>
      <point x="707" y="281"/>
      <point x="707" y="313" type="curve" smooth="yes"/>
      <point x="707" y="344"/>
      <point x="686" y="363"/>
      <point x="657" y="363" type="curve" smooth="yes"/>
      <point x="628" y="363"/>
      <point x="607" y="344"/>
      <point x="607" y="313" type="curve" smooth="yes"/>
      <point x="607" y="281"/>
      <point x="625" y="263"/>
    </contour>
    <contour>
      <point x="871" y="56" type="curve" smooth="yes"/>
      <point x="818" y="56"/>
      <point x="770" y="100"/>
      <point x="770" y="166" type="curve" smooth="yes"/>
      <point x="770" y="232"/>
      <point x="818" y="276"/>
      <point x="871" y="276" type="curve" smooth="yes"/>
      <point x="923" y="276"/>
      <point x="972" y="232"/>
      <point x="972" y="166" type="curve" smooth="yes"/>
      <point x="972" y="100"/>
      <point x="923" y="56"/>
    </contour>
    <contour>
      <point x="541" y="435" type="curve" smooth="yes"/>
      <point x="488" y="435"/>
      <point x="440" y="479"/>
      <point x="440" y="545" type="curve" smooth="yes"/>
      <point x="440" y="611"/>
      <point x="488" y="655"/>
      <point x="541" y="655" type="curve" smooth="yes"/>
      <point x="593" y="655"/>
      <point x="642" y="611"/>
      <point x="642" y="545" type="curve" smooth="yes"/>
      <point x="642" y="479"/>
      <point x="593" y="435"/>
    </contour>
  </outline>
</glyph>
<glyph name="uA507" format="2">
  <advance width="735"/>
  <unicode hex="A507"/>
  <outline>
    <contour>
      <point x="331" y="0" type="line"/>
      <point x="713" y="0" type="line"/>
      <point x="713" y="69" type="line"/>
      <point x="561" y="69" type="line"/>
      <point x="561" y="714" type="line"/>
      <point x="483" y="714" type="line"/>
      <point x="469" y="632"/>
      <point x="342" y="449"/>
      <point x="227" y="449" type="curve" smooth="yes"/>
      <point x="154" y="449"/>
      <point x="121" y="504"/>
      <point x="121" y="562" type="curve" smooth="yes"/>
      <point x="121" y="608"/>
      <point x="138" y="641"/>
      <point x="180" y="680" type="curve"/>
      <point x="134" y="724" type="line"/>
      <point x="80" y="684"/>
      <point x="44" y="627"/>
      <point x="44" y="561" type="curve" smooth="yes"/>
      <point x="44" y="435"/>
      <point x="141" y="381"/>
      <point x="218" y="381" type="curve" smooth="yes"/>
      <point x="333" y="381"/>
      <point x="415" y="459"/>
      <point x="479" y="576" type="curve"/>
      <point x="483" y="576" type="line"/>
      <point x="483" y="69" type="line"/>
      <point x="331" y="69" type="line"/>
    </contour>
  </outline>
</glyph>
<glyph name="uA508" format="2">
  <advance width="735"/>
  <unicode hex="A508"/>
  <outline>
    <contour>
      <point x="331" y="0" type="line"/>
      <point x="713" y="0" type="line"/>
      <point x="713" y="69" type="line"/>
      <point x="561" y="69" type="line"/>
      <point x="561" y="714" type="line"/>
      <point x="483" y="714" type="line"/>
      <point x="469" y="632"/>
      <point x="342" y="449"/>
      <point x="227" y="449" type="curve" smooth="yes"/>
      <point x="154" y="449"/>
      <point x="121" y="504"/>
      <point x="121" y="562" type="curve" smooth="yes"/>
      <point x="121" y="608"/>
      <point x="138" y="641"/>
      <point x="180" y="680" type="curve"/>
      <point x="134" y="724" type="line"/>
      <point x="80" y="684"/>
      <point x="44" y="627"/>
      <point x="44" y="561" type="curve" smooth="yes"/>
      <point x="44" y="435"/>
      <point x="141" y="381"/>
      <point x="218" y="381" type="curve" smooth="yes"/>
      <point x="333" y="381"/>
      <point x="415" y="459"/>
      <point x="479" y="576" type="curve"/>
      <point x="483" y="576" type="line"/>
      <point x="483" y="69" type="line"/>
      <point x="331" y="69" type="line"/>
    </contour>
    <contour>
      <point x="391" y="225" type="curve" smooth="yes"/>
      <point x="421" y="225"/>
      <point x="441" y="243"/>
      <point x="441" y="275" type="curve" smooth="yes"/>
      <point x="441" y="306"/>
      <point x="420" y="325"/>
      <point x="391" y="325" type="curve" smooth="yes"/>
      <point x="362" y="325"/>
      <point x="341" y="306"/>
      <point x="341" y="275" type="curve" smooth="yes"/>
      <point x="341" y="243"/>
      <point x="359" y="225"/>
    </contour>
    <contour>
      <point x="653" y="225" type="curve" smooth="yes"/>
      <point x="683" y="225"/>
      <point x="703" y="243"/>
      <point x="703" y="275" type="curve" smooth="yes"/>
      <point x="703" y="306"/>
      <point x="682" y="325"/>
      <point x="653" y="325" type="curve" smooth="yes"/>
      <point x="624" y="325"/>
      <point x="603" y="306"/>
      <point x="603" y="275" type="curve" smooth="yes"/>
      <point x="603" y="243"/>
      <point x="621" y="225"/>
    </contour>
  </outline>
</glyph>
<glyph name="uA50A" format="2">
  <advance width="668"/>
  <unicode hex="A50A"/>
  <outline>
    <contour>
      <point x="295" y="0" type="line"/>
      <point x="373" y="0" type="line"/>
      <point x="373" y="177" type="line"/>
      <point x="565" y="177" type="line"/>
      <point x="565" y="246" type="line"/>
      <point x="373" y="246" type="line"/>
      <point x="373" y="645" type="line"/>
      <point x="635" y="645" type="line"/>
      <point x="635" y="714" type="line"/>
      <point x="33" y="714" type="line"/>
      <point x="33" y="645" type="line"/>
      <point x="295" y="645" type="line"/>
      <point x="295" y="246" type="line"/>
      <point x="103" y="246" type="line"/>
      <point x="103" y="177" type="line"/>
      <point x="295" y="177" type="line"/>
    </contour>
    <contour>
      <point x="170" y="325" type="curve" smooth="yes"/>
      <point x="200" y="325"/>
      <point x="220" y="343"/>
      <point x="220" y="375" type="curve" smooth="yes"/>
      <point x="220" y="406"/>
      <point x="199" y="425"/>
      <point x="170" y="425" type="curve" smooth="yes"/>
      <point x="141" y="425"/>
      <point x="120" y="406"/>
      <point x="120" y="375" type="curve" smooth="yes"/>
      <point x="120" y="343"/>
      <point x="138" y="325"/>
    </contour>
    <contour>
      <point x="496" y="325" type="curve" smooth="yes"/>
      <point x="526" y="325"/>
      <point x="546" y="343"/>
      <point x="546" y="375" type="curve" smooth="yes"/>
      <point x="546" y="406"/>
      <point x="525" y="425"/>
      <point x="496" y="425" type="curve" smooth="yes"/>
      <point x="467" y="425"/>
      <point x="446" y="406"/>
      <point x="446" y="375" type="curve" smooth="yes"/>
      <point x="446" y="343"/>
      <point x="464" y="325"/>
    </contour>
  </outline>
</glyph>
<glyph name="uA50B" format="2">
  <advance width="668"/>
  <unicode hex="A50B"/>
  <outline>
    <contour>
      <point x="295" y="0" type="line"/>
      <point x="373" y="0" type="line"/>
      <point x="373" y="645" type="line"/>
      <point x="635" y="645" type="line"/>
      <point x="635" y="714" type="line"/>
      <point x="33" y="714" type="line"/>
      <point x="33" y="645" type="line"/>
      <point x="295" y="645" type="line"/>
    </contour>
  </outline>
</glyph>
<glyph name="uA50C" format="2">
  <advance width="544"/>
  <unicode hex="A50C"/>
  <outline>
    <contour>
      <point x="80" y="0" type="line"/>
      <point x="462" y="0" type="line"/>
      <point x="462" y="69" type="line"/>
      <point x="310" y="69" type="line"/>
      <point x="310" y="289" type="line"/>
      <point x="410" y="305"/>
      <point x="489" y="383"/>
      <point x="489" y="502" type="curve" smooth="yes"/>
      <point x="489" y="633"/>
      <point x="385" y="722"/>
      <point x="272" y="722" type="curve" smooth="yes"/>
      <point x="158" y="722"/>
      <point x="55" y="633"/>
      <point x="55" y="502" type="curve" smooth="yes"/>
      <point x="55" y="384"/>
      <point x="129" y="305"/>
      <point x="232" y="289" type="curve"/>
      <point x="232" y="69" type="line"/>
      <point x="80" y="69" type="line"/>
    </contour>
    <contour>
      <point x="272" y="354" type="curve" smooth="yes"/>
      <point x="195" y="354"/>
      <point x="133" y="411"/>
      <point x="133" y="502" type="curve" smooth="yes"/>
      <point x="133" y="593"/>
      <point x="201" y="654"/>
      <point x="272" y="654" type="curve" smooth="yes"/>
      <point x="342" y="654"/>
      <point x="411" y="593"/>
      <point x="411" y="502" type="curve" smooth="yes"/>
      <point x="411" y="411"/>
      <point x="345" y="354"/>
    </contour>
  </outline>
</glyph>
<glyph name="uA50E" format="2">
  <advance width="913"/>
  <unicode hex="A50E"/>
  <outline>
    <contour>
      <point x="574" y="0" type="line"/>
      <point x="847" y="0" type="line"/>
      <point x="847" y="69" type="line"/>
      <point x="652" y="69" type="line"/>
      <point x="652" y="295" type="line"/>
      <point x="847" y="295" type="line"/>
      <point x="847" y="363" type="line"/>
      <point x="652" y="363" type="line"/>
      <point x="652" y="714" type="line"/>
      <point x="574" y="714" type="line"/>
      <point x="574" y="645" type="line" smooth="yes"/>
      <point x="574" y="540"/>
      <point x="537" y="491"/>
      <point x="486" y="491" type="curve" smooth="yes"/>
      <point x="433" y="491"/>
      <point x="392" y="527"/>
      <point x="392" y="621" type="curve" smooth="yes"/>
      <point x="392" y="714" type="line"/>
      <point x="314" y="714" type="line"/>
      <point x="314" y="623" type="line" smooth="yes"/>
      <point x="314" y="527"/>
      <point x="272" y="491"/>
      <point x="227" y="491" type="curve" smooth="yes"/>
      <point x="169" y="491"/>
      <point x="133" y="540"/>
      <point x="133" y="643" type="curve" smooth="yes"/>
      <point x="133" y="714" type="line"/>
      <point x="55" y="714" type="line"/>
      <point x="55" y="643" type="line" smooth="yes"/>
      <point x="55" y="477"/>
      <point x="118" y="425"/>
      <point x="212" y="425" type="curve" smooth="yes"/>
      <point x="264" y="425"/>
      <point x="319" y="447"/>
      <point x="349" y="515" type="curve"/>
      <point x="353" y="515" type="line"/>
      <point x="374" y="445"/>
      <point x="433" y="425"/>
      <point x="473" y="425" type="curve" smooth="yes"/>
      <point x="505" y="425"/>
      <point x="549" y="443"/>
      <point x="570" y="490" type="curve"/>
      <point x="574" y="490" type="line"/>
    </contour>
  </outline>
</glyph>
<glyph name="uA511" format="2">
  <advance width="1196"/>
  <unicode hex="A511"/>
  <outline>
    <contour>
      <point x="503" y="-10" type="curve" smooth="yes"/>
      <point x="598" y="-10"/>
      <point x="652" y="81"/>
      <point x="652" y="253" type="curve" smooth="yes"/>
      <point x="652" y="306" type="line"/>
      <point x="691" y="312"/>
      <point x="745" y="334"/>
      <point x="761" y="384" type="curve"/>
      <point x="765" y="384" type="line"/>
      <point x="778" y="326"/>
      <point x="828" y="304"/>
      <point x="866" y="304" type="curve" smooth="yes"/>
      <point x="904" y="304"/>
      <point x="961" y="324"/>
      <point x="972" y="384" type="curve"/>
      <point x="976" y="384" type="line"/>
      <point x="990" y="325"/>
      <point x="1034" y="304"/>
      <point x="1071" y="304" type="curve" smooth="yes"/>
      <point x="1122" y="304"/>
      <point x="1158" y="344"/>
      <point x="1174" y="372" type="curve"/>
      <point x="1124" y="403" type="line"/>
      <point x="1108" y="378"/>
      <point x="1096" y="370"/>
      <point x="1078" y="370" type="curve" smooth="yes"/>
      <point x="1049" y="370"/>
      <point x="1016" y="398"/>
      <point x="1016" y="473" type="curve"/>
      <point x="938" y="473" type="line"/>
      <point x="938" y="400"/>
      <point x="899" y="370"/>
      <point x="866" y="370" type="curve" smooth="yes"/>
      <point x="833" y="370"/>
      <point x="804" y="402"/>
      <point x="804" y="473" type="curve"/>
      <point x="726" y="473" type="line"/>
      <point x="726" y="412"/>
      <point x="690" y="382"/>
      <point x="652" y="375" type="curve"/>
      <point x="652" y="714" type="line"/>
      <point x="574" y="714" type="line"/>
      <point x="574" y="645" type="line" smooth="yes"/>
      <point x="574" y="540"/>
      <point x="537" y="491"/>
      <point x="486" y="491" type="curve" smooth="yes"/>
      <point x="433" y="491"/>
      <point x="392" y="527"/>
      <point x="392" y="621" type="curve" smooth="yes"/>
      <point x="392" y="714" type="line"/>
      <point x="314" y="714" type="line"/>
      <point x="314" y="623" type="line" smooth="yes"/>
      <point x="314" y="527"/>
      <point x="272" y="491"/>
      <point x="227" y="491" type="curve" smooth="yes"/>
      <point x="169" y="491"/>
      <point x="133" y="540"/>
      <point x="133" y="643" type="curve" smooth="yes"/>
      <point x="133" y="714" type="line"/>
      <point x="55" y="714" type="line"/>
      <point x="55" y="643" type="line" smooth="yes"/>
      <point x="55" y="477"/>
      <point x="118" y="425"/>
      <point x="212" y="425" type="curve" smooth="yes"/>
      <point x="264" y="425"/>
      <point x="319" y="447"/>
      <point x="349" y="515" type="curve"/>
      <point x="353" y="515" type="line"/>
      <point x="374" y="445"/>
      <point x="433" y="425"/>
      <point x="473" y="425" type="curve" smooth="yes"/>
      <point x="505" y="425"/>
      <point x="549" y="443"/>
      <point x="570" y="490" type="curve"/>
      <point x="574" y="490" type="line"/>
      <point x="574" y="358" type="line"/>
      <point x="427" y="331"/>
      <point x="385" y="230"/>
      <point x="385" y="131" type="curve" smooth="yes"/>
      <point x="385" y="31"/>
      <point x="452" y="-10"/>
    </contour>
    <contour>
      <point x="503" y="58" type="curve" smooth="yes"/>
      <point x="476" y="58"/>
      <point x="453" y="82"/>
      <point x="453" y="133" type="curve" smooth="yes"/>
      <point x="453" y="189"/>
      <point x="459" y="263"/>
      <point x="574" y="289" type="curve"/>
      <point x="574" y="253" type="line" smooth="yes"/>
      <point x="574" y="106"/>
      <point x="548" y="58"/>
    </contour>
    <contour>
      <point x="866" y="150" type="curve" smooth="yes"/>
      <point x="896" y="150"/>
      <point x="916" y="168"/>
      <point x="916" y="200" type="curve" smooth="yes"/>
      <point x="916" y="231"/>
      <point x="895" y="250"/>
      <point x="866" y="250" type="curve" smooth="yes"/>
      <point x="837" y="250"/>
      <point x="816" y="231"/>
      <point x="816" y="200" type="curve" smooth="yes"/>
      <point x="816" y="168"/>
      <point x="834" y="150"/>
    </contour>
    <contour>
      <point x="866" y="510" type="curve" smooth="yes"/>
      <point x="896" y="510"/>
      <point x="916" y="528"/>
      <point x="916" y="560" type="curve" smooth="yes"/>
      <point x="916" y="591"/>
      <point x="895" y="610"/>
      <point x="866" y="610" type="curve" smooth="yes"/>
      <point x="837" y="610"/>
      <point x="816" y="591"/>
      <point x="816" y="560" type="curve" smooth="yes"/>
      <point x="816" y="528"/>
      <point x="834" y="510"/>
    </contour>
  </outline>
</glyph>
<glyph name="uA513" format="2">
  <advance width="851"/>
  <unicode hex="A513"/>
  <outline>
    <contour>
      <point x="574" y="0" type="line"/>
      <point x="652" y="0" type="line"/>
      <point x="652" y="295" type="line"/>
      <point x="729" y="295" type="line"/>
      <point x="729" y="211" type="line"/>
      <point x="807" y="211" type="line"/>
      <point x="807" y="453" type="line"/>
      <point x="729" y="453" type="line"/>
      <point x="729" y="363" type="line"/>
      <point x="652" y="363" type="line"/>
      <point x="652" y="714" type="line"/>
      <point x="574" y="714" type="line"/>
      <point x="574" y="645" type="line" smooth="yes"/>
      <point x="574" y="540"/>
      <point x="537" y="491"/>
      <point x="486" y="491" type="curve" smooth="yes"/>
      <point x="433" y="491"/>
      <point x="392" y="527"/>
      <point x="392" y="621" type="curve" smooth="yes"/>
      <point x="392" y="714" type="line"/>
      <point x="314" y="714" type="line"/>
      <point x="314" y="623" type="line" smooth="yes"/>
      <point x="314" y="527"/>
      <point x="272" y="491"/>
      <point x="227" y="491" type="curve" smooth="yes"/>
      <point x="169" y="491"/>
      <point x="133" y="540"/>
      <point x="133" y="643" type="curve" smooth="yes"/>
      <point x="133" y="714" type="line"/>
      <point x="55" y="714" type="line"/>
      <point x="55" y="643" type="line" smooth="yes"/>
      <point x="55" y="477"/>
      <point x="118" y="425"/>
      <point x="212" y="425" type="curve" smooth="yes"/>
      <point x="264" y="425"/>
      <point x="319" y="447"/>
      <point x="349" y="515" type="curve"/>
      <point x="353" y="515" type="line"/>
      <point x="374" y="445"/>
      <point x="433" y="425"/>
      <point x="473" y="425" type="curve" smooth="yes"/>
      <point x="505" y="425"/>
      <point x="549" y="443"/>
      <point x="570" y="490" type="curve"/>
      <point x="574" y="490" type="line"/>
    </contour>
    <contour>
      <point x="275" y="-162" type="line"/>
      <point x="295" y="-123"/>
      <point x="319" y="-114"/>
      <point x="350" y="-114" type="curve" smooth="yes"/>
      <point x="394" y="-114"/>
      <point x="466" y="-151"/>
      <point x="522" y="-151" type="curve" smooth="yes"/>
      <point x="585" y="-151"/>
      <point x="622" y="-123"/>
      <point x="647" y="-60" type="curve"/>
      <point x="601" y="-33" type="line"/>
      <point x="581" y="-72"/>
      <point x="557" y="-81"/>
      <point x="526" y="-81" type="curve" smooth="yes"/>
      <point x="484" y="-81"/>
      <point x="413" y="-44"/>
      <point x="354" y="-44" type="curve" smooth="yes"/>
      <point x="291" y="-44"/>
      <point x="254" y="-72"/>
      <point x="229" y="-135" type="curve"/>
    </contour>
  </outline>
</glyph>
<glyph name="uA514" format="2">
  <advance width="709"/>
  <unicode hex="A514"/>
  <outline>
    <contour>
      <point x="520" y="0" type="line"/>
      <point x="598" y="0" type="line"/>
      <point x="598" y="714" type="line"/>
      <point x="520" y="714" type="line"/>
      <point x="333" y="527" type="line"/>
      <point x="383" y="478" type="line"/>
      <point x="418" y="513" type="line" smooth="yes"/>
      <point x="485" y="580"/>
      <point x="508" y="607"/>
      <point x="525" y="640" type="curve"/>
      <point x="530" y="638" type="line"/>
      <point x="524" y="608"/>
      <point x="520" y="585"/>
      <point x="520" y="392" type="curve" smooth="yes"/>
    </contour>
    <contour>
      <point x="220" y="0" type="line"/>
      <point x="298" y="0" type="line"/>
      <point x="298" y="714" type="line"/>
      <point x="220" y="714" type="line"/>
      <point x="33" y="527" type="line"/>
      <point x="83" y="478" type="line"/>
      <point x="118" y="513" type="line" smooth="yes"/>
      <point x="185" y="580"/>
      <point x="208" y="607"/>
      <point x="225" y="640" type="curve"/>
      <point x="230" y="638" type="line"/>
      <point x="224" y="608"/>
      <point x="220" y="585"/>
      <point x="220" y="392" type="curve" smooth="yes"/>
    </contour>
  </outline>
</glyph>
<glyph name="uA516" format="2">
  <advance width="700"/>
  <unicode hex="A516"/>
  <outline>
    <contour>
      <point x="511" y="0" type="line"/>
      <point x="589" y="0" type="line"/>
      <point x="589" y="714" type="line"/>
      <point x="511" y="714" type="line"/>
    </contour>
    <contour>
      <point x="111" y="0" type="line"/>
      <point x="189" y="0" type="line"/>
      <point x="189" y="714" type="line"/>
      <point x="111" y="714" type="line"/>
    </contour>
    <contour>
      <point x="311" y="0" type="line"/>
      <point x="389" y="0" type="line"/>
      <point x="389" y="714" type="line"/>
      <point x="311" y="714" type="line"/>
    </contour>
  </outline>
</glyph>
<glyph name="uA517" format="2">
  <advance width="701"/>
  <unicode hex="A517"/>
  <outline>
    <contour>
      <point x="512" y="130" type="line"/>
      <point x="590" y="130" type="line"/>
      <point x="590" y="714" type="line"/>
      <point x="512" y="714" type="line"/>
    </contour>
    <contour>
      <point x="111" y="0" type="line"/>
      <point x="590" y="0" type="line"/>
      <point x="590" y="69" type="line"/>
      <point x="111" y="69" type="line"/>
    </contour>
    <contour>
      <point x="112" y="130" type="line"/>
      <point x="190" y="130" type="line"/>
      <point x="190" y="714" type="line"/>
      <point x="112" y="714" type="line"/>
    </contour>
    <contour>
      <point x="311" y="130" type="line"/>
      <point x="389" y="130" type="line"/>
      <point x="389" y="714" type="line"/>
      <point x="311" y="714" type="line"/>
    </contour>
  </outline>
</glyph>
<glyph name="uA519" format="2">
  <advance width="700"/>
  <unicode hex="A519"/>
  <outline>
    <contour>
      <point x="111" y="460" type="line"/>
      <point x="189" y="460" type="line"/>
      <point x="189" y="576" type="line"/>
      <point x="511" y="576" type="line"/>
      <point x="511" y="460" type="line"/>
      <point x="589" y="460" type="line"/>
      <point x="589" y="714" type="line"/>
      <point x="511" y="714" type="line"/>
      <point x="511" y="645" type="line"/>
      <point x="189" y="645" type="line"/>
      <point x="189" y="714" type="line"/>
      <point x="111" y="714" type="line"/>
    </contour>
    <contour>
      <point x="111" y="0" type="line"/>
      <point x="189" y="0" type="line"/>
      <point x="189" y="70" type="line"/>
      <point x="511" y="70" type="line"/>
      <point x="511" y="0" type="line"/>
      <point x="589" y="0" type="line"/>
      <point x="589" y="254" type="line"/>
      <point x="511" y="254" type="line"/>
      <point x="511" y="139" type="line"/>
      <point x="189" y="139" type="line"/>
      <point x="189" y="254" type="line"/>
      <point x="111" y="254" type="line"/>
    </contour>
    <contour>
      <point x="311" y="230" type="line"/>
      <point x="389" y="230" type="line"/>
      <point x="389" y="484" type="line"/>
      <point x="311" y="484" type="line"/>
    </contour>
  </outline>
</glyph>
<glyph name="uA51C" format="2">
  <advance width="779"/>
  <unicode hex="A51C"/>
  <outline>
    <contour>
      <point x="77" y="122" type="line"/>
      <point x="155" y="122" type="line"/>
      <point x="155" y="267" type="line"/>
      <point x="613" y="267" type="line"/>
      <point x="613" y="335" type="line"/>
      <point x="155" y="335" type="line"/>
      <point x="155" y="402" type="line"/>
      <point x="613" y="402" type="line"/>
      <point x="613" y="470" type="line"/>
      <point x="155" y="470" type="line"/>
      <point x="155" y="613" type="line"/>
      <point x="77" y="613" type="line"/>
    </contour>
    <contour>
      <point x="523" y="112" type="curve" smooth="yes"/>
      <point x="553" y="112"/>
      <point x="573" y="130"/>
      <point x="573" y="162" type="curve" smooth="yes"/>
      <point x="573" y="193"/>
      <point x="552" y="212"/>
      <point x="523" y="212" type="curve" smooth="yes"/>
      <point x="494" y="212"/>
      <point x="473" y="193"/>
      <point x="473" y="162" type="curve" smooth="yes"/>
      <point x="473" y="130"/>
      <point x="491" y="112"/>
    </contour>
    <contour>
      <point x="707" y="319" type="curve" smooth="yes"/>
      <point x="737" y="319"/>
      <point x="757" y="337"/>
      <point x="757" y="369" type="curve" smooth="yes"/>
      <point x="757" y="400"/>
      <point x="736" y="419"/>
      <point x="707" y="419" type="curve" smooth="yes"/>
      <point x="678" y="419"/>
      <point x="657" y="400"/>
      <point x="657" y="369" type="curve" smooth="yes"/>
      <point x="657" y="337"/>
      <point x="675" y="319"/>
    </contour>
    <contour>
      <point x="523" y="525" type="curve" smooth="yes"/>
      <point x="553" y="525"/>
      <point x="573" y="543"/>
      <point x="573" y="575" type="curve" smooth="yes"/>
      <point x="573" y="606"/>
      <point x="552" y="625"/>
      <point x="523" y="625" type="curve" smooth="yes"/>
      <point x="494" y="625"/>
      <point x="473" y="606"/>
      <point x="473" y="575" type="curve" smooth="yes"/>
      <point x="473" y="543"/>
      <point x="491" y="525"/>
    </contour>
  </outline>
</glyph>
<glyph name="uA51D" format="2">
  <advance width="779"/>
  <unicode hex="A51D"/>
  <outline>
    <contour>
      <point x="77" y="122" type="line"/>
      <point x="155" y="122" type="line"/>
      <point x="155" y="335" type="line"/>
      <point x="613" y="335" type="line"/>
      <point x="613" y="403" type="line"/>
      <point x="155" y="403" type="line"/>
      <point x="155" y="613" type="line"/>
      <point x="77" y="613" type="line"/>
    </contour>
    <contour>
      <point x="523" y="180" type="curve" smooth="yes"/>
      <point x="553" y="180"/>
      <point x="573" y="198"/>
      <point x="573" y="230" type="curve" smooth="yes"/>
      <point x="573" y="261"/>
      <point x="552" y="280"/>
      <point x="523" y="280" type="curve" smooth="yes"/>
      <point x="494" y="280"/>
      <point x="473" y="261"/>
      <point x="473" y="230" type="curve" smooth="yes"/>
      <point x="473" y="198"/>
      <point x="491" y="180"/>
    </contour>
    <contour>
      <point x="523" y="460" type="curve" smooth="yes"/>
      <point x="553" y="460"/>
      <point x="573" y="478"/>
      <point x="573" y="510" type="curve" smooth="yes"/>
      <point x="573" y="541"/>
      <point x="552" y="560"/>
      <point x="523" y="560" type="curve" smooth="yes"/>
      <point x="494" y="560"/>
      <point x="473" y="541"/>
      <point x="473" y="510" type="curve" smooth="yes"/>
      <point x="473" y="478"/>
      <point x="491" y="460"/>
    </contour>
    <contour>
      <point x="707" y="319" type="curve" smooth="yes"/>
      <point x="737" y="319"/>
      <point x="757" y="337"/>
      <point x="757" y="369" type="curve" smooth="yes"/>
      <point x="757" y="400"/>
      <point x="736" y="419"/>
      <point x="707" y="419" type="curve" smooth="yes"/>
      <point x="678" y="419"/>
      <point x="657" y="400"/>
      <point x="657" y="369" type="curve" smooth="yes"/>
      <point x="657" y="337"/>
      <point x="675" y="319"/>
    </contour>
  </outline>
</glyph>
<glyph name="uA51E" format="2">
  <advance width="1390"/>
  <unicode hex="A51E"/>
  <outline>
    <contour>
      <point x="111" y="0" type="line"/>
      <point x="189" y="0" type="line"/>
      <point x="189" y="141" type="line"/>
      <point x="261" y="141" type="line"/>
      <point x="261" y="0" type="line"/>
      <point x="339" y="0" type="line"/>
      <point x="339" y="141" type="line"/>
      <point x="425" y="141" type="line" smooth="yes"/>
      <point x="466" y="141"/>
      <point x="506" y="151"/>
      <point x="540" y="170" type="curve"/>
      <point x="582" y="151"/>
      <point x="633" y="141"/>
      <point x="693" y="141" type="curve" smooth="yes"/>
      <point x="754" y="141"/>
      <point x="806" y="151"/>
      <point x="849" y="170" type="curve"/>
      <point x="883" y="151"/>
      <point x="923" y="141"/>
      <point x="965" y="141" type="curve" smooth="yes"/>
      <point x="1051" y="141" type="line"/>
      <point x="1051" y="0" type="line"/>
      <point x="1129" y="0" type="line"/>
      <point x="1129" y="141" type="line"/>
      <point x="1201" y="141" type="line"/>
      <point x="1201" y="0" type="line"/>
      <point x="1279" y="0" type="line"/>
      <point x="1279" y="714" type="line"/>
      <point x="1201" y="714" type="line"/>
      <point x="1201" y="209" type="line"/>
      <point x="1129" y="209" type="line"/>
      <point x="1129" y="714" type="line"/>
      <point x="1051" y="714" type="line"/>
      <point x="1051" y="209" type="line"/>
      <point x="965" y="209" type="line" smooth="yes"/>
      <point x="949" y="209"/>
      <point x="929" y="211"/>
      <point x="915" y="216" type="curve"/>
      <point x="973" y="269"/>
      <point x="1007" y="344"/>
      <point x="1007" y="427" type="curve" smooth="yes"/>
      <point x="1007" y="559"/>
      <point x="936" y="620"/>
      <point x="862" y="620" type="curve" smooth="yes"/>
      <point x="788" y="620"/>
      <point x="715" y="534"/>
      <point x="715" y="427" type="curve" smooth="yes"/>
      <point x="715" y="340"/>
      <point x="748" y="268"/>
      <point x="793" y="218" type="curve"/>
      <point x="767" y="212"/>
      <point x="730" y="209"/>
      <point x="693" y="209" type="curve" smooth="yes"/>
      <point x="657" y="209"/>
      <point x="622" y="212"/>
      <point x="596" y="218" type="curve"/>
      <point x="642" y="268"/>
      <point x="675" y="340"/>
      <point x="675" y="427" type="curve" smooth="yes"/>
      <point x="675" y="534"/>
      <point x="627" y="620"/>
      <point x="529" y="620" type="curve" smooth="yes"/>
      <point x="443" y="620"/>
      <point x="383" y="559"/>
      <point x="383" y="427" type="curve" smooth="yes"/>
      <point x="383" y="344"/>
      <point x="416" y="268"/>
      <point x="474" y="215" type="curve"/>
      <point x="460" y="211"/>
      <point x="440" y="209"/>
      <point x="425" y="209" type="curve" smooth="yes"/>
      <point x="339" y="209" type="line"/>
      <point x="339" y="714" type="line"/>
      <point x="261" y="714" type="line"/>
      <point x="261" y="209" type="line"/>
      <point x="189" y="209" type="line"/>
      <point x="189" y="714" type="line"/>
      <point x="111" y="714" type="line"/>
    </contour>
    <contour>
      <point x="528" y="240" type="curve"/>
      <point x="474" y="279"/>
      <point x="461" y="353"/>
      <point x="461" y="427" type="curve" smooth="yes"/>
      <point x="461" y="498"/>
      <point x="480" y="552"/>
      <point x="529" y="552" type="curve" smooth="yes"/>
      <point x="574" y="552"/>
      <point x="597" y="498"/>
      <point x="597" y="427" type="curve" smooth="yes"/>
      <point x="597" y="353"/>
      <point x="570" y="279"/>
    </contour>
    <contour>
      <point x="861" y="240" type="curve"/>
      <point x="819" y="280"/>
      <point x="793" y="354"/>
      <point x="793" y="427" type="curve" smooth="yes"/>
      <point x="793" y="498"/>
      <point x="820" y="552"/>
      <point x="862" y="552" type="curve" smooth="yes"/>
      <point x="903" y="552"/>
      <point x="929" y="498"/>
      <point x="929" y="427" type="curve" smooth="yes"/>
      <point x="929" y="353"/>
      <point x="915" y="280"/>
    </contour>
  </outline>
</glyph>
<glyph name="uA51F" format="2">
  <advance width="1040"/>
  <unicode hex="A51F"/>
  <outline>
    <contour>
      <point x="111" y="0" type="line"/>
      <point x="189" y="0" type="line"/>
      <point x="189" y="475" type="line"/>
      <point x="219" y="498"/>
      <point x="272" y="525"/>
      <point x="358" y="525" type="curve" smooth="yes"/>
      <point x="390" y="525"/>
      <point x="425" y="520"/>
      <point x="451" y="513" type="curve"/>
      <point x="397" y="463"/>
      <point x="363" y="392"/>
      <point x="363" y="307" type="curve" smooth="yes"/>
      <point x="363" y="175"/>
      <point x="423" y="114"/>
      <point x="519" y="114" type="curve" smooth="yes"/>
      <point x="615" y="114"/>
      <point x="675" y="200"/>
      <point x="675" y="307" type="curve" smooth="yes"/>
      <point x="675" y="392"/>
      <point x="640" y="463"/>
      <point x="587" y="513" type="curve"/>
      <point x="613" y="520"/>
      <point x="647" y="525"/>
      <point x="680" y="525" type="curve" smooth="yes"/>
      <point x="769" y="525"/>
      <point x="821" y="497"/>
      <point x="851" y="474" type="curve"/>
      <point x="851" y="0" type="line"/>
      <point x="929" y="0" type="line"/>
      <point x="929" y="714" type="line"/>
      <point x="851" y="714" type="line"/>
      <point x="851" y="547" type="line"/>
      <point x="815" y="569"/>
      <point x="759" y="593"/>
      <point x="680" y="593" type="curve" smooth="yes"/>
      <point x="618" y="593"/>
      <point x="564" y="582"/>
      <point x="519" y="561" type="curve"/>
      <point x="473" y="582"/>
      <point x="419" y="593"/>
      <point x="358" y="593" type="curve" smooth="yes"/>
      <point x="278" y="593"/>
      <point x="224" y="570"/>
      <point x="189" y="548" type="curve"/>
      <point x="189" y="714" type="line"/>
      <point x="111" y="714" type="line"/>
    </contour>
    <contour>
      <point x="519" y="182" type="curve" smooth="yes"/>
      <point x="465" y="182"/>
      <point x="441" y="236"/>
      <point x="441" y="307" type="curve" smooth="yes"/>
      <point x="441" y="376"/>
      <point x="467" y="447"/>
      <point x="519" y="487" type="curve"/>
      <point x="570" y="447"/>
      <point x="597" y="376"/>
      <point x="597" y="307" type="curve" smooth="yes"/>
      <point x="597" y="236"/>
      <point x="573" y="182"/>
    </contour>
  </outline>
</glyph>
<glyph name="uA520" format="2">
  <advance width="790"/>
  <unicode hex="A520"/>
  <outline>
    <contour>
      <point x="206" y="0" type="line"/>
      <point x="284" y="0" type="line"/>
      <point x="284" y="339" type="line"/>
      <point x="506" y="339" type="line"/>
      <point x="506" y="0" type="line"/>
      <point x="584" y="0" type="line"/>
      <point x="584" y="339" type="line"/>
      <point x="746" y="339" type="line"/>
      <point x="746" y="408" type="line"/>
      <point x="584" y="408" type="line"/>
      <point x="584" y="714" type="line"/>
      <point x="506" y="714" type="line"/>
      <point x="506" y="408" type="line"/>
      <point x="284" y="408" type="line"/>
      <point x="284" y="714" type="line"/>
      <point x="206" y="714" type="line"/>
      <point x="206" y="408" type="line"/>
      <point x="44" y="408" type="line"/>
      <point x="44" y="339" type="line"/>
      <point x="206" y="339" type="line"/>
    </contour>
  </outline>
</glyph>
<glyph name="uA521" format="2">
  <advance width="724"/>
  <unicode hex="A521"/>
  <outline>
    <contour>
      <point x="320" y="0" type="line"/>
      <point x="702" y="0" type="line"/>
      <point x="702" y="69" type="line"/>
      <point x="550" y="69" type="line"/>
      <point x="550" y="714" type="line"/>
      <point x="472" y="714" type="line"/>
      <point x="444" y="631"/>
      <point x="327" y="439"/>
      <point x="215" y="439" type="curve" smooth="yes"/>
      <point x="158" y="439"/>
      <point x="136" y="449"/>
      <point x="118" y="485" type="curve"/>
      <point x="121" y="487" type="line"/>
      <point x="130" y="481"/>
      <point x="139" y="478"/>
      <point x="157" y="478" type="curve" smooth="yes"/>
      <point x="208" y="478"/>
      <point x="248" y="512"/>
      <point x="248" y="571" type="curve" smooth="yes"/>
      <point x="248" y="643"/>
      <point x="206" y="678"/>
      <point x="141" y="678" type="curve" smooth="yes"/>
      <point x="83" y="678"/>
      <point x="32" y="633"/>
      <point x="32" y="543" type="curve" smooth="yes"/>
      <point x="32" y="411"/>
      <point x="120" y="371"/>
      <point x="206" y="371" type="curve" smooth="yes"/>
      <point x="320" y="371"/>
      <point x="407" y="475"/>
      <point x="468" y="566" type="curve"/>
      <point x="472" y="566" type="line"/>
      <point x="472" y="69" type="line"/>
      <point x="320" y="69" type="line"/>
    </contour>
    <contour>
      <point x="152" y="517" type="curve" smooth="yes"/>
      <point x="143" y="517"/>
      <point x="122" y="520"/>
      <point x="111" y="529" type="curve"/>
      <point x="109" y="538"/>
      <point x="107" y="550"/>
      <point x="107" y="567" type="curve" smooth="yes"/>
      <point x="107" y="603"/>
      <point x="125" y="622"/>
      <point x="152" y="622" type="curve" smooth="yes"/>
      <point x="172" y="622"/>
      <point x="192" y="612"/>
      <point x="192" y="572" type="curve" smooth="yes"/>
      <point x="192" y="545"/>
      <point x="178" y="517"/>
    </contour>
  </outline>
</glyph>
<glyph name="uA522" format="2">
  <advance width="772"/>
  <unicode hex="A522"/>
  <outline>
    <contour>
      <point x="384" y="-9" type="curve" smooth="yes"/>
      <point x="480" y="-9"/>
      <point x="570" y="78"/>
      <point x="570" y="224" type="curve" smooth="yes"/>
      <point x="570" y="350"/>
      <point x="508" y="462"/>
      <point x="433" y="548" type="curve"/>
      <point x="485" y="597"/>
      <point x="535" y="628"/>
      <point x="563" y="632" type="curve"/>
      <point x="689" y="500" type="line"/>
      <point x="750" y="551" type="line"/>
      <point x="588" y="720" type="line"/>
      <point x="550" y="715"/>
      <point x="467" y="670"/>
      <point x="387" y="596" type="curve"/>
      <point x="308" y="670"/>
      <point x="225" y="715"/>
      <point x="186" y="720" type="curve"/>
      <point x="22" y="548" type="line"/>
      <point x="75" y="500" type="line"/>
      <point x="200" y="632" type="line"/>
      <point x="224" y="628"/>
      <point x="278" y="594"/>
      <point x="333" y="541" type="curve"/>
      <point x="259" y="456"/>
      <point x="198" y="347"/>
      <point x="198" y="224" type="curve" smooth="yes"/>
      <point x="198" y="43"/>
      <point x="288" y="-9"/>
    </contour>
    <contour>
      <point x="384" y="59" type="curve" smooth="yes"/>
      <point x="330" y="59"/>
      <point x="276" y="107"/>
      <point x="276" y="224" type="curve" smooth="yes"/>
      <point x="276" y="325"/>
      <point x="323" y="424"/>
      <point x="381" y="496" type="curve"/>
      <point x="441" y="424"/>
      <point x="492" y="325"/>
      <point x="492" y="224" type="curve" smooth="yes"/>
      <point x="492" y="119"/>
      <point x="438" y="59"/>
    </contour>
    <contour>
      <point x="202" y="473" type="curve" smooth="yes"/>
      <point x="232" y="473"/>
      <point x="252" y="491"/>
      <point x="252" y="523" type="curve" smooth="yes"/>
      <point x="252" y="554"/>
      <point x="231" y="573"/>
      <point x="202" y="573" type="curve" smooth="yes"/>
      <point x="173" y="573"/>
      <point x="152" y="554"/>
      <point x="152" y="523" type="curve" smooth="yes"/>
      <point x="152" y="491"/>
      <point x="170" y="473"/>
    </contour>
    <contour>
      <point x="560" y="473" type="curve" smooth="yes"/>
      <point x="590" y="473"/>
      <point x="610" y="491"/>
      <point x="610" y="523" type="curve" smooth="yes"/>
      <point x="610" y="554"/>
      <point x="589" y="573"/>
      <point x="560" y="573" type="curve" smooth="yes"/>
      <point x="531" y="573"/>
      <point x="510" y="554"/>
      <point x="510" y="523" type="curve" smooth="yes"/>
      <point x="510" y="491"/>
      <point x="528" y="473"/>
    </contour>
  </outline>
</glyph>
<glyph name="uA523" format="2">
  <advance width="1066"/>
  <unicode hex="A523"/>
  <outline>
    <contour>
      <point x="275" y="135" type="curve" smooth="yes"/>
      <point x="311" y="135"/>
      <point x="345" y="148"/>
      <point x="375" y="169" type="curve"/>
      <point x="421" y="147"/>
      <point x="474" y="135"/>
      <point x="533" y="135" type="curve" smooth="yes"/>
      <point x="591" y="135"/>
      <point x="644" y="148"/>
      <point x="689" y="172" type="curve"/>
      <point x="723" y="148"/>
      <point x="761" y="135"/>
      <point x="801" y="135" type="curve" smooth="yes"/>
      <point x="917" y="135"/>
      <point x="985" y="176"/>
      <point x="1043" y="326" type="curve"/>
      <point x="987" y="355" type="line"/>
      <point x="940" y="234"/>
      <point x="882" y="203"/>
      <point x="801" y="203" type="curve"/>
      <point x="783" y="203"/>
      <point x="761" y="207"/>
      <point x="746" y="214" type="curve"/>
      <point x="808" y="270"/>
      <point x="851" y="361"/>
      <point x="851" y="441" type="curve" smooth="yes"/>
      <point x="851" y="573"/>
      <point x="798" y="639"/>
      <point x="707" y="639" type="curve" smooth="yes"/>
      <point x="618" y="639"/>
      <point x="561" y="548"/>
      <point x="561" y="441" type="curve" smooth="yes"/>
      <point x="561" y="352"/>
      <point x="596" y="278"/>
      <point x="642" y="221" type="curve"/>
      <point x="612" y="209"/>
      <point x="572" y="203"/>
      <point x="533" y="203" type="curve" smooth="yes"/>
      <point x="494" y="203"/>
      <point x="455" y="210"/>
      <point x="425" y="222" type="curve"/>
      <point x="471" y="282"/>
      <point x="505" y="359"/>
      <point x="505" y="441" type="curve" smooth="yes"/>
      <point x="505" y="573"/>
      <point x="444" y="639"/>
      <point x="359" y="639" type="curve" smooth="yes"/>
      <point x="270" y="639"/>
      <point x="215" y="548"/>
      <point x="215" y="441" type="curve" smooth="yes"/>
      <point x="215" y="345"/>
      <point x="257" y="263"/>
      <point x="320" y="209" type="curve"/>
      <point x="308" y="205"/>
      <point x="289" y="203"/>
      <point x="275" y="203" type="curve" smooth="yes"/>
      <point x="194" y="203"/>
      <point x="128" y="234"/>
      <point x="84" y="355" type="curve"/>
      <point x="23" y="324" type="line"/>
      <point x="78" y="174"/>
      <point x="159" y="135"/>
    </contour>
    <contour>
      <point x="376" y="244" type="curve"/>
      <point x="322" y="288"/>
      <point x="293" y="362"/>
      <point x="293" y="441" type="curve" smooth="yes"/>
      <point x="293" y="519"/>
      <point x="310" y="571"/>
      <point x="359" y="571" type="curve" smooth="yes"/>
      <point x="407" y="571"/>
      <point x="427" y="512"/>
      <point x="427" y="441" type="curve" smooth="yes"/>
      <point x="427" y="368"/>
      <point x="412" y="290"/>
    </contour>
    <contour>
      <point x="360" y="665" type="curve" smooth="yes"/>
      <point x="390" y="665"/>
      <point x="410" y="683"/>
      <point x="410" y="715" type="curve" smooth="yes"/>
      <point x="410" y="746"/>
      <point x="389" y="765"/>
      <point x="360" y="765" type="curve" smooth="yes"/>
      <point x="331" y="765"/>
      <point x="310" y="746"/>
      <point x="310" y="715" type="curve" smooth="yes"/>
      <point x="310" y="683"/>
      <point x="328" y="665"/>
    </contour>
    <contour>
      <point x="697" y="248" type="curve"/>
      <point x="660" y="295"/>
      <point x="639" y="370"/>
      <point x="639" y="441" type="curve" smooth="yes"/>
      <point x="639" y="512"/>
      <point x="657" y="571"/>
      <point x="707" y="571" type="curve" smooth="yes"/>
      <point x="753" y="571"/>
      <point x="773" y="519"/>
      <point x="773" y="441" type="curve" smooth="yes"/>
      <point x="773" y="361"/>
      <point x="746" y="291"/>
    </contour>
    <contour>
      <point x="709" y="665" type="curve" smooth="yes"/>
      <point x="739" y="665"/>
      <point x="759" y="683"/>
      <point x="759" y="715" type="curve" smooth="yes"/>
      <point x="759" y="746"/>
      <point x="738" y="765"/>
      <point x="709" y="765" type="curve" smooth="yes"/>
      <point x="680" y="765"/>
      <point x="659" y="746"/>
      <point x="659" y="715" type="curve" smooth="yes"/>
      <point x="659" y="683"/>
      <point x="677" y="665"/>
    </contour>
  </outline>
</glyph>
<glyph name="uA526" format="2">
  <advance width="931"/>
  <unicode hex="A526"/>
  <outline>
    <contour>
      <point x="422" y="0" type="line"/>
      <point x="804" y="0" type="line"/>
      <point x="804" y="69" type="line"/>
      <point x="652" y="69" type="line"/>
      <point x="652" y="235" type="line"/>
      <point x="809" y="235" type="line"/>
      <point x="809" y="151" type="line"/>
      <point x="887" y="151" type="line"/>
      <point x="887" y="393" type="line"/>
      <point x="809" y="393" type="line"/>
      <point x="809" y="303" type="line"/>
      <point x="652" y="303" type="line"/>
      <point x="652" y="714" type="line"/>
      <point x="574" y="714" type="line"/>
      <point x="574" y="645" type="line" smooth="yes"/>
      <point x="574" y="540"/>
      <point x="537" y="491"/>
      <point x="486" y="491" type="curve" smooth="yes"/>
      <point x="433" y="491"/>
      <point x="392" y="527"/>
      <point x="392" y="621" type="curve" smooth="yes"/>
      <point x="392" y="714" type="line"/>
      <point x="314" y="714" type="line"/>
      <point x="314" y="623" type="line" smooth="yes"/>
      <point x="314" y="527"/>
      <point x="272" y="491"/>
      <point x="227" y="491" type="curve" smooth="yes"/>
      <point x="169" y="491"/>
      <point x="133" y="540"/>
      <point x="133" y="643" type="curve" smooth="yes"/>
      <point x="133" y="714" type="line"/>
      <point x="55" y="714" type="line"/>
      <point x="55" y="643" type="line" smooth="yes"/>
      <point x="55" y="477"/>
      <point x="118" y="425"/>
      <point x="212" y="425" type="curve" smooth="yes"/>
      <point x="264" y="425"/>
      <point x="319" y="447"/>
      <point x="349" y="515" type="curve"/>
      <point x="353" y="515" type="line"/>
      <point x="374" y="445"/>
      <point x="433" y="425"/>
      <point x="473" y="425" type="curve" smooth="yes"/>
      <point x="505" y="425"/>
      <point x="549" y="443"/>
      <point x="570" y="490" type="curve"/>
      <point x="574" y="490" type="line"/>
      <point x="574" y="303" type="line"/>
      <point x="413" y="303" type="line"/>
      <point x="413" y="393" type="line"/>
      <point x="335" y="393" type="line"/>
      <point x="335" y="151" type="line"/>
      <point x="413" y="151" type="line"/>
      <point x="413" y="235" type="line"/>
      <point x="574" y="235" type="line"/>
      <point x="574" y="69" type="line"/>
      <point x="422" y="69" type="line"/>
    </contour>
  </outline>
</glyph>
<glyph name="uA527" format="2">
  <advance width="450"/>
  <unicode hex="A527"/>
  <outline>
    <contour>
      <point x="225" y="-10" type="curve" smooth="yes"/>
      <point x="305" y="-10"/>
      <point x="358" y="39"/>
      <point x="368" y="126" type="curve"/>
      <point x="300" y="136" type="line"/>
      <point x="290" y="90"/>
      <point x="263" y="58"/>
      <point x="225" y="58" type="curve"/>
      <point x="187" y="58"/>
      <point x="155" y="90"/>
      <point x="155" y="136" type="curve" smooth="yes"/>
      <point x="155" y="170"/>
      <point x="167" y="202"/>
      <point x="189" y="216" type="curve"/>
      <point x="201" y="213"/>
      <point x="213" y="212"/>
      <point x="225" y="212" type="curve" smooth="yes"/>
      <point x="305" y="212"/>
      <point x="373" y="270"/>
      <point x="373" y="358" type="curve" smooth="yes"/>
      <point x="373" y="406"/>
      <point x="352" y="446"/>
      <point x="319" y="472" type="curve"/>
      <point x="352" y="494"/>
      <point x="373" y="530"/>
      <point x="373" y="579" type="curve" smooth="yes"/>
      <point x="373" y="666"/>
      <point x="305" y="725"/>
      <point x="225" y="725" type="curve" smooth="yes"/>
      <point x="145" y="725"/>
      <point x="92" y="676"/>
      <point x="82" y="589" type="curve"/>
      <point x="150" y="579" type="line"/>
      <point x="160" y="625"/>
      <point x="187" y="657"/>
      <point x="225" y="657" type="curve" smooth="yes"/>
      <point x="263" y="657"/>
      <point x="295" y="625"/>
      <point x="295" y="579" type="curve" smooth="yes"/>
      <point x="295" y="545"/>
      <point x="283" y="513"/>
      <point x="261" y="499" type="curve"/>
      <point x="250" y="502"/>
      <point x="237" y="504"/>
      <point x="225" y="504" type="curve" smooth="yes"/>
      <point x="145" y="504"/>
      <point x="77" y="445"/>
      <point x="77" y="358" type="curve" smooth="yes"/>
      <point x="77" y="309"/>
      <point x="98" y="269"/>
      <point x="131" y="243" type="curve"/>
      <point x="98" y="221"/>
      <point x="77" y="184"/>
      <point x="77" y="136" type="curve" smooth="yes"/>
      <point x="77" y="49"/>
      <point x="145" y="-10"/>
    </contour>
    <contour>
      <point x="225" y="280" type="curve" smooth="yes"/>
      <point x="187" y="280"/>
      <point x="155" y="311"/>
      <point x="155" y="358" type="curve" smooth="yes"/>
      <point x="155" y="404"/>
      <point x="187" y="436"/>
      <point x="225" y="436" type="curve" smooth="yes"/>
      <point x="263" y="436"/>
      <point x="295" y="404"/>
      <point x="295" y="358" type="curve" smooth="yes"/>
      <point x="295" y="311"/>
      <point x="263" y="280"/>
    </contour>
  </outline>
</glyph>
<glyph name="uA528" format="2">
  <advance width="842"/>
  <unicode hex="A528"/>
  <outline>
    <contour>
      <point x="428" y="-10" type="line"/>
      <point x="481" y="34" type="line"/>
      <point x="428" y="97" type="line"/>
      <point x="572" y="216" type="line"/>
      <point x="583" y="148"/>
      <point x="639" y="120"/>
      <point x="698" y="120" type="curve" smooth="yes"/>
      <point x="762" y="120"/>
      <point x="809" y="174"/>
      <point x="809" y="242" type="curve" smooth="yes"/>
      <point x="809" y="307"/>
      <point x="761" y="351"/>
      <point x="698" y="351" type="curve" smooth="yes"/>
      <point x="679" y="351"/>
      <point x="663" y="346"/>
      <point x="648" y="340" type="curve"/>
      <point x="648" y="714" type="line"/>
      <point x="570" y="714" type="line"/>
      <point x="570" y="647"/>
      <point x="533" y="598"/>
      <point x="482" y="598" type="curve" smooth="yes"/>
      <point x="429" y="598"/>
      <point x="388" y="635"/>
      <point x="387" y="714" type="curve"/>
      <point x="310" y="714" type="line"/>
      <point x="310" y="634"/>
      <point x="275" y="598"/>
      <point x="222" y="598" type="curve" smooth="yes"/>
      <point x="178" y="598"/>
      <point x="133" y="624"/>
      <point x="133" y="714" type="curve"/>
      <point x="55" y="714" type="line"/>
      <point x="55" y="579"/>
      <point x="128" y="532"/>
      <point x="219" y="532" type="curve" smooth="yes"/>
      <point x="260" y="532"/>
      <point x="315" y="554"/>
      <point x="344" y="622" type="curve"/>
      <point x="348" y="622" type="line"/>
      <point x="370" y="552"/>
      <point x="429" y="532"/>
      <point x="469" y="532" type="curve" smooth="yes"/>
      <point x="501" y="532"/>
      <point x="545" y="550"/>
      <point x="566" y="597" type="curve"/>
      <point x="570" y="597" type="line"/>
      <point x="570" y="517" type="line" smooth="yes"/>
      <point x="570" y="450"/>
      <point x="533" y="401"/>
      <point x="482" y="401" type="curve" smooth="yes"/>
      <point x="429" y="401"/>
      <point x="388" y="438"/>
      <point x="387" y="517" type="curve"/>
      <point x="310" y="517" type="line"/>
      <point x="310" y="437"/>
      <point x="275" y="401"/>
      <point x="222" y="401" type="curve" smooth="yes"/>
      <point x="178" y="401"/>
      <point x="133" y="427"/>
      <point x="133" y="517" type="curve"/>
      <point x="55" y="517" type="line"/>
      <point x="55" y="382"/>
      <point x="128" y="335"/>
      <point x="219" y="335" type="curve" smooth="yes"/>
      <point x="260" y="335"/>
      <point x="315" y="357"/>
      <point x="344" y="425" type="curve"/>
      <point x="348" y="425" type="line"/>
      <point x="370" y="355"/>
      <point x="429" y="335"/>
      <point x="469" y="335" type="curve" smooth="yes"/>
      <point x="501" y="335"/>
      <point x="545" y="353"/>
      <point x="566" y="400" type="curve"/>
      <point x="570" y="400" type="line"/>
      <point x="570" y="302" type="line"/>
      <point x="385" y="148" type="line"/>
      <point x="333" y="210" type="line"/>
      <point x="280" y="166" type="line"/>
    </contour>
    <contour>
      <point x="698" y="186" type="curve" smooth="yes"/>
      <point x="666" y="186"/>
      <point x="648" y="204"/>
      <point x="648" y="251" type="curve" smooth="yes"/>
      <point x="648" y="270" type="line"/>
      <point x="671" y="284"/>
      <point x="688" y="286"/>
      <point x="698" y="286" type="curve" smooth="yes"/>
      <point x="727" y="286"/>
      <point x="748" y="267"/>
      <point x="748" y="236" type="curve" smooth="yes"/>
      <point x="748" y="204"/>
      <point x="728" y="186"/>
    </contour>
  </outline>
</glyph>
<glyph name="uA529" format="2">
  <advance width="892"/>
  <unicode hex="A529"/>
  <outline>
    <contour>
      <point x="428" y="-10" type="line"/>
      <point x="481" y="34" type="line"/>
      <point x="428" y="97" type="line"/>
      <point x="573" y="217" type="line"/>
      <point x="585" y="167"/>
      <point x="622" y="141"/>
      <point x="666" y="133" type="curve"/>
      <point x="666" y="105" type="line" smooth="yes"/>
      <point x="666" y="37"/>
      <point x="713" y="-2"/>
      <point x="768" y="-2" type="curve" smooth="yes"/>
      <point x="823" y="-2"/>
      <point x="870" y="37"/>
      <point x="870" y="105" type="curve"/>
      <point x="809" y="105" type="line"/>
      <point x="809" y="73"/>
      <point x="792" y="54"/>
      <point x="769" y="54" type="curve" smooth="yes"/>
      <point x="745" y="54"/>
      <point x="729" y="72"/>
      <point x="729" y="104" type="curve" smooth="yes"/>
      <point x="729" y="134" type="line"/>
      <point x="776" y="146"/>
      <point x="809" y="185"/>
      <point x="809" y="242" type="curve" smooth="yes"/>
      <point x="809" y="307"/>
      <point x="761" y="351"/>
      <point x="698" y="351" type="curve" smooth="yes"/>
      <point x="679" y="351"/>
      <point x="663" y="346"/>
      <point x="648" y="340" type="curve"/>
      <point x="648" y="714" type="line"/>
      <point x="570" y="714" type="line"/>
      <point x="570" y="647"/>
      <point x="533" y="598"/>
      <point x="482" y="598" type="curve" smooth="yes"/>
      <point x="429" y="598"/>
      <point x="388" y="635"/>
      <point x="387" y="714" type="curve"/>
      <point x="310" y="714" type="line"/>
      <point x="310" y="634"/>
      <point x="275" y="598"/>
      <point x="222" y="598" type="curve" smooth="yes"/>
      <point x="178" y="598"/>
      <point x="133" y="624"/>
      <point x="133" y="714" type="curve"/>
      <point x="55" y="714" type="line"/>
      <point x="55" y="579"/>
      <point x="128" y="532"/>
      <point x="219" y="532" type="curve" smooth="yes"/>
      <point x="260" y="532"/>
      <point x="315" y="554"/>
      <point x="344" y="622" type="curve"/>
      <point x="348" y="622" type="line"/>
      <point x="370" y="552"/>
      <point x="429" y="532"/>
      <point x="469" y="532" type="curve" smooth="yes"/>
      <point x="501" y="532"/>
      <point x="545" y="550"/>
      <point x="566" y="597" type="curve"/>
      <point x="570" y="597" type="line"/>
      <point x="570" y="517" type="line" smooth="yes"/>
      <point x="570" y="450"/>
      <point x="533" y="401"/>
      <point x="482" y="401" type="curve" smooth="yes"/>
      <point x="429" y="401"/>
      <point x="388" y="438"/>
      <point x="387" y="517" type="curve"/>
      <point x="310" y="517" type="line"/>
      <point x="310" y="437"/>
      <point x="275" y="401"/>
      <point x="222" y="401" type="curve" smooth="yes"/>
      <point x="178" y="401"/>
      <point x="133" y="427"/>
      <point x="133" y="517" type="curve"/>
      <point x="55" y="517" type="line"/>
      <point x="55" y="382"/>
      <point x="128" y="335"/>
      <point x="219" y="335" type="curve" smooth="yes"/>
      <point x="260" y="335"/>
      <point x="315" y="357"/>
      <point x="344" y="425" type="curve"/>
      <point x="348" y="425" type="line"/>
      <point x="370" y="355"/>
      <point x="429" y="335"/>
      <point x="469" y="335" type="curve" smooth="yes"/>
      <point x="501" y="335"/>
      <point x="545" y="353"/>
      <point x="566" y="400" type="curve"/>
      <point x="570" y="400" type="line"/>
      <point x="570" y="302" type="line"/>
      <point x="385" y="148" type="line"/>
      <point x="333" y="210" type="line"/>
      <point x="280" y="166" type="line"/>
    </contour>
    <contour>
      <point x="698" y="186" type="curve" smooth="yes"/>
      <point x="666" y="186"/>
      <point x="648" y="204"/>
      <point x="648" y="251" type="curve" smooth="yes"/>
      <point x="648" y="270" type="line"/>
      <point x="671" y="284"/>
      <point x="688" y="286"/>
      <point x="698" y="286" type="curve" smooth="yes"/>
      <point x="727" y="286"/>
      <point x="748" y="267"/>
      <point x="748" y="236" type="curve" smooth="yes"/>
      <point x="748" y="204"/>
      <point x="728" y="186"/>
    </contour>
  </outline>
</glyph>
<glyph name="uA52A" format="2">
  <advance width="607"/>
  <unicode hex="A52A"/>
  <outline>
    <contour>
      <point x="111" y="-10" type="line"/>
      <point x="530" y="183" type="line"/>
      <point x="223" y="363" type="line"/>
      <point x="223" y="367" type="line"/>
      <point x="526" y="534" type="line"/>
      <point x="111" y="724" type="line"/>
    </contour>
  </outline>
</glyph>
<glyph name="uA52B" format="2">
  <advance width="872"/>
  <unicode hex="A52B"/>
  <outline>
    <contour>
      <point x="76" y="0" type="curve"/>
      <point x="162" y="0" type="line"/>
      <point x="226" y="110"/>
      <point x="267" y="289"/>
      <point x="271" y="437" type="curve"/>
      <point x="331" y="438"/>
      <point x="392" y="464"/>
      <point x="434" y="527" type="curve"/>
      <point x="438" y="527" type="line"/>
      <point x="476" y="465"/>
      <point x="542" y="438"/>
      <point x="600" y="437" type="curve"/>
      <point x="605" y="288"/>
      <point x="648" y="105"/>
      <point x="706" y="0" type="curve"/>
      <point x="796" y="0" type="line"/>
      <point x="732" y="111"/>
      <point x="683" y="284"/>
      <point x="678" y="442" type="curve"/>
      <point x="758" y="455"/>
      <point x="837" y="497"/>
      <point x="837" y="607" type="curve" smooth="yes"/>
      <point x="837" y="697"/>
      <point x="780" y="728"/>
      <point x="729" y="728" type="curve" smooth="yes"/>
      <point x="641" y="728"/>
      <point x="606" y="649"/>
      <point x="600" y="505" type="curve"/>
      <point x="548" y="506"/>
      <point x="482" y="526"/>
      <point x="469" y="613" type="curve"/>
      <point x="467" y="626" type="line"/>
      <point x="409" y="626" type="line"/>
      <point x="407" y="615" type="line" smooth="yes"/>
      <point x="392" y="529"/>
      <point x="323" y="504"/>
      <point x="271" y="503" type="curve"/>
      <point x="266" y="650"/>
      <point x="231" y="728"/>
      <point x="143" y="728" type="curve" smooth="yes"/>
      <point x="92" y="728"/>
      <point x="35" y="697"/>
      <point x="35" y="607" type="curve" smooth="yes"/>
      <point x="35" y="501"/>
      <point x="119" y="458"/>
      <point x="193" y="443" type="curve"/>
      <point x="189" y="284"/>
      <point x="140" y="103"/>
    </contour>
    <contour>
      <point x="193" y="512" type="curve"/>
      <point x="148" y="524"/>
      <point x="103" y="550"/>
      <point x="103" y="605" type="curve" smooth="yes"/>
      <point x="103" y="639"/>
      <point x="115" y="660"/>
      <point x="143" y="660" type="curve" smooth="yes"/>
      <point x="172" y="660"/>
      <point x="189" y="613"/>
    </contour>
    <contour>
      <point x="678" y="510" type="curve"/>
      <point x="682" y="612"/>
      <point x="700" y="660"/>
      <point x="729" y="660" type="curve" smooth="yes"/>
      <point x="753" y="660"/>
      <point x="769" y="645"/>
      <point x="769" y="605" type="curve" smooth="yes"/>
      <point x="769" y="542"/>
      <point x="728" y="519"/>
    </contour>
  </outline>
</glyph>
<glyph name="uA52C" format="2">
  <advance width="664"/>
  <unicode hex="A52C"/>
  <outline>
    <contour>
      <point x="249" y="-10" type="curve" smooth="yes"/>
      <point x="339" y="-10"/>
      <point x="422" y="50"/>
      <point x="422" y="183" type="curve" smooth="yes"/>
      <point x="422" y="263"/>
      <point x="371" y="320"/>
      <point x="339" y="333" type="curve"/>
      <point x="340" y="337" type="line"/>
      <point x="373" y="329"/>
      <point x="432" y="328"/>
      <point x="498" y="328" type="curve" smooth="yes"/>
      <point x="542" y="328" type="line"/>
      <point x="542" y="244" type="line"/>
      <point x="620" y="244" type="line"/>
      <point x="620" y="486" type="line"/>
      <point x="542" y="486" type="line"/>
      <point x="542" y="396" type="line"/>
      <point x="498" y="396" type="line" smooth="yes"/>
      <point x="432" y="396"/>
      <point x="376" y="394"/>
      <point x="340" y="387" type="curve"/>
      <point x="339" y="391" type="line"/>
      <point x="371" y="404"/>
      <point x="418" y="466"/>
      <point x="418" y="534" type="curve"/>
      <point x="418" y="664"/>
      <point x="334" y="725"/>
      <point x="249" y="725" type="curve" smooth="yes"/>
      <point x="167" y="725"/>
      <point x="81" y="664"/>
      <point x="81" y="534" type="curve" smooth="yes"/>
      <point x="81" y="450"/>
      <point x="131" y="381"/>
      <point x="188" y="361" type="curve"/>
      <point x="188" y="357" type="line"/>
      <point x="132" y="335"/>
      <point x="77" y="272"/>
      <point x="77" y="183" type="curve" smooth="yes"/>
      <point x="77" y="50"/>
      <point x="158" y="-10"/>
    </contour>
    <contour>
      <point x="249" y="58" type="curve" smooth="yes"/>
      <point x="193" y="58"/>
      <point x="155" y="93"/>
      <point x="155" y="183" type="curve" smooth="yes"/>
      <point x="155" y="273"/>
      <point x="198" y="329"/>
      <point x="249" y="329" type="curve" smooth="yes"/>
      <point x="301" y="329"/>
      <point x="344" y="273"/>
      <point x="344" y="183" type="curve"/>
      <point x="344" y="93"/>
      <point x="304" y="58"/>
    </contour>
    <contour>
      <point x="249" y="394" type="curve" smooth="yes"/>
      <point x="197" y="394"/>
      <point x="159" y="448"/>
      <point x="159" y="534" type="curve" smooth="yes"/>
      <point x="159" y="620"/>
      <point x="201" y="657"/>
      <point x="249" y="657" type="curve" smooth="yes"/>
      <point x="299" y="657"/>
      <point x="340" y="620"/>
      <point x="340" y="534" type="curve"/>
      <point x="340" y="448"/>
      <point x="301" y="394"/>
    </contour>
  </outline>
</glyph>
<glyph name="uA52D" format="2">
  <advance width="704"/>
  <unicode hex="A52D"/>
  <outline>
    <contour>
      <point x="249" y="-10" type="curve" smooth="yes"/>
      <point x="339" y="-10"/>
      <point x="422" y="50"/>
      <point x="422" y="183" type="curve" smooth="yes"/>
      <point x="422" y="263"/>
      <point x="371" y="320"/>
      <point x="339" y="333" type="curve"/>
      <point x="340" y="337" type="line"/>
      <point x="373" y="329"/>
      <point x="432" y="328"/>
      <point x="498" y="328" type="curve" smooth="yes"/>
      <point x="582" y="328" type="line"/>
      <point x="582" y="244" type="line"/>
      <point x="660" y="244" type="line"/>
      <point x="660" y="486" type="line"/>
      <point x="582" y="486" type="line"/>
      <point x="582" y="396" type="line"/>
      <point x="498" y="396" type="line" smooth="yes"/>
      <point x="432" y="396"/>
      <point x="376" y="394"/>
      <point x="340" y="387" type="curve"/>
      <point x="339" y="391" type="line"/>
      <point x="371" y="404"/>
      <point x="418" y="466"/>
      <point x="418" y="534" type="curve"/>
      <point x="418" y="664"/>
      <point x="334" y="725"/>
      <point x="249" y="725" type="curve" smooth="yes"/>
      <point x="167" y="725"/>
      <point x="81" y="664"/>
      <point x="81" y="534" type="curve" smooth="yes"/>
      <point x="81" y="450"/>
      <point x="131" y="381"/>
      <point x="188" y="361" type="curve"/>
      <point x="188" y="357" type="line"/>
      <point x="132" y="335"/>
      <point x="77" y="272"/>
      <point x="77" y="183" type="curve" smooth="yes"/>
      <point x="77" y="50"/>
      <point x="158" y="-10"/>
    </contour>
    <contour>
      <point x="249" y="58" type="curve" smooth="yes"/>
      <point x="193" y="58"/>
      <point x="155" y="93"/>
      <point x="155" y="183" type="curve" smooth="yes"/>
      <point x="155" y="273"/>
      <point x="198" y="329"/>
      <point x="249" y="329" type="curve" smooth="yes"/>
      <point x="301" y="329"/>
      <point x="344" y="273"/>
      <point x="344" y="183" type="curve"/>
      <point x="344" y="93"/>
      <point x="304" y="58"/>
    </contour>
    <contour>
      <point x="498" y="153" type="curve" smooth="yes"/>
      <point x="528" y="153"/>
      <point x="548" y="171"/>
      <point x="548" y="203" type="curve" smooth="yes"/>
      <point x="548" y="234"/>
      <point x="527" y="253"/>
      <point x="498" y="253" type="curve" smooth="yes"/>
      <point x="469" y="253"/>
      <point x="448" y="234"/>
      <point x="448" y="203" type="curve" smooth="yes"/>
      <point x="448" y="171"/>
      <point x="466" y="153"/>
    </contour>
    <contour>
      <point x="249" y="394" type="curve" smooth="yes"/>
      <point x="197" y="394"/>
      <point x="159" y="448"/>
      <point x="159" y="534" type="curve" smooth="yes"/>
      <point x="159" y="620"/>
      <point x="201" y="657"/>
      <point x="249" y="657" type="curve" smooth="yes"/>
      <point x="299" y="657"/>
      <point x="340" y="620"/>
      <point x="340" y="534" type="curve"/>
      <point x="340" y="448"/>
      <point x="301" y="394"/>
    </contour>
    <contour>
      <point x="498" y="471" type="curve" smooth="yes"/>
      <point x="528" y="471"/>
      <point x="548" y="489"/>
      <point x="548" y="521" type="curve" smooth="yes"/>
      <point x="548" y="552"/>
      <point x="527" y="571"/>
      <point x="498" y="571" type="curve" smooth="yes"/>
      <point x="469" y="571"/>
      <point x="448" y="552"/>
      <point x="448" y="521" type="curve" smooth="yes"/>
      <point x="448" y="489"/>
      <point x="466" y="471"/>
    </contour>
  </outline>
</glyph>
<glyph name="uA52E" format="2">
  <advance width="617"/>
  <unicode hex="A52E"/>
  <outline>
    <contour>
      <point x="309" y="111" type="curve" smooth="yes"/>
      <point x="467" y="111"/>
      <point x="573" y="216"/>
      <point x="573" y="384" type="curve" smooth="yes"/>
      <point x="573" y="549"/>
      <point x="462" y="660"/>
      <point x="309" y="660" type="curve" smooth="yes"/>
      <point x="155" y="660"/>
      <point x="44" y="549"/>
      <point x="44" y="384" type="curve" smooth="yes"/>
      <point x="44" y="216"/>
      <point x="141" y="111"/>
    </contour>
    <contour>
      <point x="309" y="179" type="curve" smooth="yes"/>
      <point x="242" y="179"/>
      <point x="191" y="204"/>
      <point x="160" y="248" type="curve"/>
      <point x="242" y="295" type="line"/>
      <point x="260" y="283"/>
      <point x="282" y="277"/>
      <point x="309" y="277" type="curve" smooth="yes"/>
      <point x="335" y="277"/>
      <point x="358" y="283"/>
      <point x="376" y="295" type="curve"/>
      <point x="456" y="249" type="line"/>
      <point x="423" y="204"/>
      <point x="372" y="179"/>
    </contour>
    <contour>
      <point x="131" y="311" type="line"/>
      <point x="125" y="333"/>
      <point x="122" y="357"/>
      <point x="122" y="384" type="curve" smooth="yes"/>
      <point x="122" y="495"/>
      <point x="184" y="573"/>
      <point x="276" y="589" type="curve"/>
      <point x="276" y="484" type="line"/>
      <point x="229" y="473"/>
      <point x="200" y="437"/>
      <point x="200" y="383" type="curve" smooth="yes"/>
      <point x="200" y="372"/>
      <point x="201" y="362"/>
      <point x="203" y="353" type="curve"/>
    </contour>
    <contour>
      <point x="309" y="333" type="curve" smooth="yes"/>
      <point x="277" y="333"/>
      <point x="259" y="351"/>
      <point x="259" y="383" type="curve" smooth="yes"/>
      <point x="259" y="414"/>
      <point x="280" y="433"/>
      <point x="309" y="433" type="curve" smooth="yes"/>
      <point x="338" y="433"/>
      <point x="359" y="414"/>
      <point x="359" y="383" type="curve" smooth="yes"/>
      <point x="359" y="351"/>
      <point x="339" y="333"/>
    </contour>
    <contour>
      <point x="486" y="312" type="curve"/>
      <point x="416" y="352" type="line"/>
      <point x="419" y="362"/>
      <point x="420" y="372"/>
      <point x="420" y="384" type="curve" smooth="yes"/>
      <point x="420" y="436"/>
      <point x="389" y="471"/>
      <point x="345" y="483" type="curve"/>
      <point x="345" y="588" type="line"/>
      <point x="434" y="572"/>
      <point x="495" y="493"/>
      <point x="495" y="384" type="curve" smooth="yes"/>
      <point x="495" y="358"/>
      <point x="492" y="334"/>
    </contour>
  </outline>
</glyph>
<glyph name="uA52F" format="2">
  <advance width="646"/>
  <unicode hex="A52F"/>
  <outline>
    <contour>
      <point x="284" y="0" type="line"/>
      <point x="362" y="0" type="line"/>
      <point x="362" y="177" type="line"/>
      <point x="554" y="177" type="line"/>
      <point x="554" y="246" type="line"/>
      <point x="362" y="246" type="line"/>
      <point x="362" y="645" type="line"/>
      <point x="624" y="645" type="line"/>
      <point x="624" y="714" type="line"/>
      <point x="22" y="714" type="line"/>
      <point x="22" y="645" type="line"/>
      <point x="284" y="645" type="line"/>
      <point x="284" y="246" type="line"/>
      <point x="92" y="246" type="line"/>
      <point x="92" y="177" type="line"/>
      <point x="284" y="177" type="line"/>
    </contour>
    <contour>
      <point x="159" y="0" type="curve" smooth="yes"/>
      <point x="189" y="0"/>
      <point x="209" y="18"/>
      <point x="209" y="50" type="curve" smooth="yes"/>
      <point x="209" y="81"/>
      <point x="188" y="100"/>
      <point x="159" y="100" type="curve" smooth="yes"/>
      <point x="130" y="100"/>
      <point x="109" y="81"/>
      <point x="109" y="50" type="curve" smooth="yes"/>
      <point x="109" y="18"/>
      <point x="127" y="0"/>
    </contour>
    <contour>
      <point x="159" y="325" type="curve" smooth="yes"/>
      <point x="189" y="325"/>
      <point x="209" y="343"/>
      <point x="209" y="375" type="curve" smooth="yes"/>
      <point x="209" y="406"/>
      <point x="188" y="425"/>
      <point x="159" y="425" type="curve" smooth="yes"/>
      <point x="130" y="425"/>
      <point x="109" y="406"/>
      <point x="109" y="375" type="curve" smooth="yes"/>
      <point x="109" y="343"/>
      <point x="127" y="325"/>
    </contour>
    <contour>
      <point x="485" y="0" type="curve" smooth="yes"/>
      <point x="515" y="0"/>
      <point x="535" y="18"/>
      <point x="535" y="50" type="curve" smooth="yes"/>
      <point x="535" y="81"/>
      <point x="514" y="100"/>
      <point x="485" y="100" type="curve" smooth="yes"/>
      <point x="456" y="100"/>
      <point x="435" y="81"/>
      <point x="435" y="50" type="curve" smooth="yes"/>
      <point x="435" y="18"/>
      <point x="453" y="0"/>
    </contour>
    <contour>
      <point x="485" y="325" type="curve" smooth="yes"/>
      <point x="515" y="325"/>
      <point x="535" y="343"/>
      <point x="535" y="375" type="curve" smooth="yes"/>
      <point x="535" y="406"/>
      <point x="514" y="425"/>
      <point x="485" y="425" type="curve" smooth="yes"/>
      <point x="456" y="425"/>
      <point x="435" y="406"/>
      <point x="435" y="375" type="curve" smooth="yes"/>
      <point x="435" y="343"/>
      <point x="453" y="325"/>
    </contour>
  </outline>
</glyph>
<glyph name="uA530" format="2">
  <advance width="770"/>
  <unicode hex="A530"/>
  <outline>
    <contour>
      <point x="346" y="0" type="line"/>
      <point x="424" y="0" type="line"/>
      <point x="424" y="339" type="line"/>
      <point x="726" y="339" type="line"/>
      <point x="726" y="408" type="line"/>
      <point x="424" y="408" type="line"/>
      <point x="424" y="714" type="line"/>
      <point x="346" y="714" type="line"/>
      <point x="346" y="408" type="line"/>
      <point x="44" y="408" type="line"/>
      <point x="44" y="339" type="line"/>
      <point x="346" y="339" type="line"/>
    </contour>
    <contour>
      <point x="231" y="174" type="curve" smooth="yes"/>
      <point x="261" y="174"/>
      <point x="281" y="192"/>
      <point x="281" y="224" type="curve" smooth="yes"/>
      <point x="281" y="255"/>
      <point x="260" y="274"/>
      <point x="231" y="274" type="curve" smooth="yes"/>
      <point x="202" y="274"/>
      <point x="181" y="255"/>
      <point x="181" y="224" type="curve" smooth="yes"/>
      <point x="181" y="192"/>
      <point x="199" y="174"/>
    </contour>
    <contour>
      <point x="231" y="473" type="curve" smooth="yes"/>
      <point x="261" y="473"/>
      <point x="281" y="491"/>
      <point x="281" y="523" type="curve" smooth="yes"/>
      <point x="281" y="554"/>
      <point x="260" y="573"/>
      <point x="231" y="573" type="curve" smooth="yes"/>
      <point x="202" y="573"/>
      <point x="181" y="554"/>
      <point x="181" y="523" type="curve" smooth="yes"/>
      <point x="181" y="491"/>
      <point x="199" y="473"/>
    </contour>
    <contour>
      <point x="539" y="174" type="curve" smooth="yes"/>
      <point x="569" y="174"/>
      <point x="589" y="192"/>
      <point x="589" y="224" type="curve" smooth="yes"/>
      <point x="589" y="255"/>
      <point x="568" y="274"/>
      <point x="539" y="274" type="curve" smooth="yes"/>
      <point x="510" y="274"/>
      <point x="489" y="255"/>
      <point x="489" y="224" type="curve" smooth="yes"/>
      <point x="489" y="192"/>
      <point x="507" y="174"/>
    </contour>
    <contour>
      <point x="539" y="473" type="curve" smooth="yes"/>
      <point x="569" y="473"/>
      <point x="589" y="491"/>
      <point x="589" y="523" type="curve" smooth="yes"/>
      <point x="589" y="554"/>
      <point x="568" y="573"/>
      <point x="539" y="573" type="curve" smooth="yes"/>
      <point x="510" y="573"/>
      <point x="489" y="554"/>
      <point x="489" y="523" type="curve" smooth="yes"/>
      <point x="489" y="491"/>
      <point x="507" y="473"/>
    </contour>
  </outline>
</glyph>
<glyph name="uA531" format="2">
  <advance width="795"/>
  <unicode hex="A531"/>
  <outline>
    <contour>
      <point x="268" y="-5" type="curve" smooth="yes"/>
      <point x="336" y="-5"/>
      <point x="380" y="25"/>
      <point x="407" y="70" type="curve"/>
      <point x="411" y="70" type="line"/>
      <point x="434" y="23"/>
      <point x="473" y="-5"/>
      <point x="550" y="-5" type="curve" smooth="yes"/>
      <point x="644" y="-5"/>
      <point x="707" y="37"/>
      <point x="707" y="206" type="curve" smooth="yes"/>
      <point x="707" y="284" type="line"/>
      <point x="629" y="284" type="line"/>
      <point x="629" y="205" type="line" smooth="yes"/>
      <point x="629" y="100"/>
      <point x="600" y="61"/>
      <point x="540" y="61" type="curve" smooth="yes"/>
      <point x="490" y="61"/>
      <point x="448" y="87"/>
      <point x="448" y="183" type="curve" smooth="yes"/>
      <point x="448" y="284" type="line"/>
      <point x="370" y="284" type="line"/>
      <point x="370" y="183" type="line" smooth="yes"/>
      <point x="370" y="87"/>
      <point x="328" y="61"/>
      <point x="278" y="61" type="curve" smooth="yes"/>
      <point x="217" y="61"/>
      <point x="189" y="100"/>
      <point x="189" y="205" type="curve" smooth="yes"/>
      <point x="189" y="470" type="line"/>
      <point x="193" y="470" type="line"/>
      <point x="209" y="438"/>
      <point x="242" y="425"/>
      <point x="278" y="425" type="curve" smooth="yes"/>
      <point x="341" y="425"/>
      <point x="380" y="455"/>
      <point x="407" y="500" type="curve"/>
      <point x="411" y="500" type="line"/>
      <point x="434" y="453"/>
      <point x="473" y="425"/>
      <point x="550" y="425" type="curve" smooth="yes"/>
      <point x="644" y="425"/>
      <point x="707" y="467"/>
      <point x="707" y="636" type="curve" smooth="yes"/>
      <point x="707" y="714" type="line"/>
      <point x="629" y="714" type="line"/>
      <point x="629" y="635" type="line" smooth="yes"/>
      <point x="629" y="530"/>
      <point x="606" y="491"/>
      <point x="540" y="491" type="curve" smooth="yes"/>
      <point x="490" y="491"/>
      <point x="448" y="517"/>
      <point x="448" y="613" type="curve" smooth="yes"/>
      <point x="448" y="714" type="line"/>
      <point x="370" y="714" type="line"/>
      <point x="370" y="613" type="line" smooth="yes"/>
      <point x="370" y="517"/>
      <point x="328" y="491"/>
      <point x="278" y="491" type="curve" smooth="yes"/>
      <point x="225" y="491"/>
      <point x="189" y="530"/>
      <point x="189" y="635" type="curve" smooth="yes"/>
      <point x="189" y="714" type="line"/>
      <point x="111" y="714" type="line"/>
      <point x="111" y="206" type="line" smooth="yes"/>
      <point x="111" y="37"/>
      <point x="174" y="-5"/>
    </contour>
  </outline>
</glyph>
<glyph name="uA532" format="2">
  <advance width="728"/>
  <unicode hex="A532"/>
  <outline>
    <contour>
      <point x="253" y="-10" type="curve" smooth="yes"/>
      <point x="345" y="-10"/>
      <point x="402" y="47"/>
      <point x="403" y="168" type="curve"/>
      <point x="407" y="168" type="line"/>
      <point x="423" y="136"/>
      <point x="469" y="115"/>
      <point x="505" y="115" type="curve" smooth="yes"/>
      <point x="599" y="115"/>
      <point x="662" y="157"/>
      <point x="662" y="326" type="curve" smooth="yes"/>
      <point x="662" y="334" type="line"/>
      <point x="584" y="334" type="line"/>
      <point x="584" y="325" type="line" smooth="yes"/>
      <point x="584" y="220"/>
      <point x="555" y="181"/>
      <point x="495" y="181" type="curve" smooth="yes"/>
      <point x="445" y="181"/>
      <point x="403" y="207"/>
      <point x="403" y="303" type="curve" smooth="yes"/>
      <point x="403" y="334" type="line"/>
      <point x="325" y="334" type="line"/>
      <point x="325" y="303" type="line" smooth="yes"/>
      <point x="325" y="207"/>
      <point x="283" y="181"/>
      <point x="233" y="181" type="curve" smooth="yes"/>
      <point x="172" y="181"/>
      <point x="144" y="220"/>
      <point x="144" y="325" type="curve" smooth="yes"/>
      <point x="144" y="403" type="line"/>
      <point x="148" y="403" type="line"/>
      <point x="164" y="371"/>
      <point x="197" y="358"/>
      <point x="233" y="358" type="curve" smooth="yes"/>
      <point x="296" y="358"/>
      <point x="335" y="388"/>
      <point x="362" y="433" type="curve"/>
      <point x="366" y="433" type="line"/>
      <point x="389" y="386"/>
      <point x="428" y="358"/>
      <point x="505" y="358" type="curve" smooth="yes"/>
      <point x="599" y="358"/>
      <point x="662" y="400"/>
      <point x="662" y="569" type="curve" smooth="yes"/>
      <point x="662" y="587" type="line"/>
      <point x="584" y="587" type="line"/>
      <point x="584" y="568" type="line" smooth="yes"/>
      <point x="584" y="463"/>
      <point x="561" y="424"/>
      <point x="495" y="424" type="curve" smooth="yes"/>
      <point x="446" y="424"/>
      <point x="403" y="449"/>
      <point x="403" y="546" type="curve" smooth="yes"/>
      <point x="403" y="629"/>
      <point x="425" y="662"/>
      <point x="475" y="662" type="curve" smooth="yes"/>
      <point x="500" y="662"/>
      <point x="511" y="658"/>
      <point x="518" y="655" type="curve"/>
      <point x="531" y="716" type="line"/>
      <point x="520" y="721"/>
      <point x="500" y="725"/>
      <point x="475" y="725" type="curve" smooth="yes"/>
      <point x="382" y="725"/>
      <point x="325" y="667"/>
      <point x="325" y="546" type="curve" smooth="yes"/>
      <point x="325" y="450"/>
      <point x="283" y="424"/>
      <point x="233" y="424" type="curve" smooth="yes"/>
      <point x="180" y="424"/>
      <point x="144" y="463"/>
      <point x="144" y="568" type="curve" smooth="yes"/>
      <point x="144" y="587" type="line"/>
      <point x="66" y="587" type="line"/>
      <point x="66" y="326" type="line" smooth="yes"/>
      <point x="66" y="157"/>
      <point x="129" y="115"/>
      <point x="223" y="115" type="curve" smooth="yes"/>
      <point x="259" y="115"/>
      <point x="305" y="136"/>
      <point x="321" y="168" type="curve"/>
      <point x="325" y="168" type="line"/>
      <point x="325" y="86"/>
      <point x="303" y="53"/>
      <point x="253" y="53" type="curve" smooth="yes"/>
      <point x="228" y="53"/>
      <point x="217" y="57"/>
      <point x="210" y="60" type="curve"/>
      <point x="197" y="-1" type="line"/>
      <point x="208" y="-6"/>
      <point x="228" y="-10"/>
    </contour>
  </outline>
</glyph>
<glyph name="uA534" format="2">
  <advance width="844"/>
  <unicode hex="A534"/>
  <outline>
    <contour>
      <point x="555" y="-11" type="curve" smooth="yes"/>
      <point x="653" y="-11"/>
      <point x="735" y="59"/>
      <point x="768" y="172" type="curve"/>
      <point x="701" y="189" type="line"/>
      <point x="677" y="106"/>
      <point x="627" y="57"/>
      <point x="555" y="57" type="curve" smooth="yes"/>
      <point x="484" y="57"/>
      <point x="439" y="107"/>
      <point x="439" y="186" type="curve" smooth="yes"/>
      <point x="439" y="329"/>
      <point x="554" y="519"/>
      <point x="686" y="689" type="curve"/>
      <point x="622" y="725" type="line"/>
      <point x="563" y="649"/>
      <point x="508" y="570"/>
      <point x="464" y="493" type="curve"/>
      <point x="422" y="502"/>
      <point x="392" y="540"/>
      <point x="392" y="621" type="curve" smooth="yes"/>
      <point x="392" y="714" type="line"/>
      <point x="314" y="714" type="line"/>
      <point x="314" y="623" type="line" smooth="yes"/>
      <point x="314" y="527"/>
      <point x="272" y="491"/>
      <point x="227" y="491" type="curve" smooth="yes"/>
      <point x="169" y="491"/>
      <point x="133" y="540"/>
      <point x="133" y="643" type="curve" smooth="yes"/>
      <point x="133" y="714" type="line"/>
      <point x="55" y="714" type="line"/>
      <point x="55" y="643" type="line" smooth="yes"/>
      <point x="55" y="477"/>
      <point x="118" y="425"/>
      <point x="212" y="425" type="curve" smooth="yes"/>
      <point x="264" y="425"/>
      <point x="319" y="447"/>
      <point x="349" y="515" type="curve"/>
      <point x="353" y="515" type="line"/>
      <point x="367" y="467"/>
      <point x="399" y="442"/>
      <point x="431" y="432" type="curve"/>
      <point x="387" y="345"/>
      <point x="361" y="260"/>
      <point x="361" y="186" type="curve" smooth="yes"/>
      <point x="361" y="65"/>
      <point x="436" y="-11"/>
    </contour>
    <contour>
      <point x="555" y="131" type="curve" smooth="yes"/>
      <point x="585" y="131"/>
      <point x="605" y="149"/>
      <point x="605" y="181" type="curve" smooth="yes"/>
      <point x="605" y="212"/>
      <point x="584" y="231"/>
      <point x="555" y="231" type="curve" smooth="yes"/>
      <point x="526" y="231"/>
      <point x="505" y="212"/>
      <point x="505" y="181" type="curve" smooth="yes"/>
      <point x="505" y="149"/>
      <point x="523" y="131"/>
    </contour>
    <contour>
      <point x="658" y="331" type="curve" smooth="yes"/>
      <point x="688" y="331"/>
      <point x="708" y="349"/>
      <point x="708" y="381" type="curve" smooth="yes"/>
      <point x="708" y="412"/>
      <point x="687" y="431"/>
      <point x="658" y="431" type="curve" smooth="yes"/>
      <point x="629" y="431"/>
      <point x="608" y="412"/>
      <point x="608" y="381" type="curve" smooth="yes"/>
      <point x="608" y="349"/>
      <point x="626" y="331"/>
    </contour>
    <contour>
      <point x="761" y="531" type="curve" smooth="yes"/>
      <point x="791" y="531"/>
      <point x="811" y="549"/>
      <point x="811" y="581" type="curve" smooth="yes"/>
      <point x="811" y="612"/>
      <point x="790" y="631"/>
      <point x="761" y="631" type="curve" smooth="yes"/>
      <point x="732" y="631"/>
      <point x="711" y="612"/>
      <point x="711" y="581" type="curve" smooth="yes"/>
      <point x="711" y="549"/>
      <point x="729" y="531"/>
    </contour>
  </outline>
</glyph>
<glyph name="uA536" format="2">
  <advance width="661"/>
  <unicode hex="A536"/>
  <outline>
    <contour>
      <point x="111" y="0" type="line"/>
      <point x="189" y="0" type="line"/>
      <point x="189" y="312" type="line"/>
      <point x="232" y="389"/>
      <point x="333" y="467"/>
      <point x="445" y="467" type="curve" smooth="yes"/>
      <point x="502" y="467"/>
      <point x="527" y="451"/>
      <point x="542" y="421" type="curve"/>
      <point x="539" y="419" type="line"/>
      <point x="530" y="425"/>
      <point x="521" y="428"/>
      <point x="503" y="428" type="curve" smooth="yes"/>
      <point x="452" y="428"/>
      <point x="412" y="394"/>
      <point x="412" y="335" type="curve" smooth="yes"/>
      <point x="412" y="263"/>
      <point x="454" y="228"/>
      <point x="519" y="228" type="curve" smooth="yes"/>
      <point x="577" y="228"/>
      <point x="628" y="273"/>
      <point x="628" y="360" type="curve" smooth="yes"/>
      <point x="628" y="495"/>
      <point x="540" y="535"/>
      <point x="454" y="535" type="curve" smooth="yes"/>
      <point x="340" y="535"/>
      <point x="261" y="483"/>
      <point x="193" y="400" type="curve"/>
      <point x="189" y="400" type="line"/>
      <point x="189" y="714" type="line"/>
      <point x="111" y="714" type="line"/>
    </contour>
    <contour>
      <point x="317" y="275" type="curve" smooth="yes"/>
      <point x="347" y="275"/>
      <point x="367" y="293"/>
      <point x="367" y="325" type="curve" smooth="yes"/>
      <point x="367" y="356"/>
      <point x="346" y="375"/>
      <point x="317" y="375" type="curve" smooth="yes"/>
      <point x="288" y="375"/>
      <point x="267" y="356"/>
      <point x="267" y="325" type="curve" smooth="yes"/>
      <point x="267" y="293"/>
      <point x="285" y="275"/>
    </contour>
    <contour>
      <point x="508" y="284" type="curve" smooth="yes"/>
      <point x="488" y="284"/>
      <point x="468" y="294"/>
      <point x="468" y="334" type="curve" smooth="yes"/>
      <point x="468" y="361"/>
      <point x="482" y="389"/>
      <point x="508" y="389" type="curve" smooth="yes"/>
      <point x="517" y="389"/>
      <point x="538" y="386"/>
      <point x="549" y="377" type="curve"/>
      <point x="551" y="368"/>
      <point x="553" y="356"/>
      <point x="553" y="339" type="curve" smooth="yes"/>
      <point x="553" y="303"/>
      <point x="535" y="284"/>
    </contour>
    <contour>
      <point x="317" y="547" type="curve" smooth="yes"/>
      <point x="347" y="547"/>
      <point x="367" y="565"/>
      <point x="367" y="597" type="curve" smooth="yes"/>
      <point x="367" y="628"/>
      <point x="346" y="647"/>
      <point x="317" y="647" type="curve" smooth="yes"/>
      <point x="288" y="647"/>
      <point x="267" y="628"/>
      <point x="267" y="597" type="curve" smooth="yes"/>
      <point x="267" y="565"/>
      <point x="285" y="547"/>
    </contour>
  </outline>
</glyph>
<glyph name="uA537" format="2">
  <advance width="434"/>
  <unicode hex="A537"/>
  <outline>
    <contour>
      <point x="217" y="235" type="curve" smooth="yes"/>
      <point x="302" y="235"/>
      <point x="359" y="286"/>
      <point x="359" y="376" type="curve" smooth="yes"/>
      <point x="359" y="464"/>
      <point x="299" y="518"/>
      <point x="217" y="518" type="curve" smooth="yes"/>
      <point x="134" y="518"/>
      <point x="75" y="464"/>
      <point x="75" y="376" type="curve" smooth="yes"/>
      <point x="75" y="286"/>
      <point x="127" y="235"/>
    </contour>
  </outline>
</glyph>
<glyph name="uA538" format="2">
  <advance width="434"/>
  <unicode hex="A538"/>
  <outline>
    <contour>
      <point x="217" y="235" type="curve" smooth="yes"/>
      <point x="302" y="235"/>
      <point x="359" y="286"/>
      <point x="359" y="376" type="curve" smooth="yes"/>
      <point x="359" y="464"/>
      <point x="299" y="518"/>
      <point x="217" y="518" type="curve" smooth="yes"/>
      <point x="134" y="518"/>
      <point x="75" y="464"/>
      <point x="75" y="376" type="curve" smooth="yes"/>
      <point x="75" y="286"/>
      <point x="127" y="235"/>
    </contour>
    <contour>
      <point x="53" y="-162" type="line"/>
      <point x="73" y="-123"/>
      <point x="97" y="-114"/>
      <point x="128" y="-114" type="curve" smooth="yes"/>
      <point x="172" y="-114"/>
      <point x="244" y="-151"/>
      <point x="300" y="-151" type="curve" smooth="yes"/>
      <point x="363" y="-151"/>
      <point x="400" y="-123"/>
      <point x="425" y="-60" type="curve"/>
      <point x="379" y="-33" type="line"/>
      <point x="359" y="-72"/>
      <point x="335" y="-81"/>
      <point x="304" y="-81" type="curve" smooth="yes"/>
      <point x="262" y="-81"/>
      <point x="191" y="-44"/>
      <point x="132" y="-44" type="curve" smooth="yes"/>
      <point x="69" y="-44"/>
      <point x="32" y="-72"/>
      <point x="7" y="-135" type="curve"/>
    </contour>
  </outline>
</glyph>
<glyph name="uA539" format="2">
  <advance width="616"/>
  <unicode hex="A539"/>
  <outline>
    <contour>
      <point x="306" y="235" type="curve" smooth="yes"/>
      <point x="391" y="235"/>
      <point x="448" y="286"/>
      <point x="448" y="376" type="curve" smooth="yes"/>
      <point x="448" y="464"/>
      <point x="388" y="518"/>
      <point x="306" y="518" type="curve" smooth="yes"/>
      <point x="223" y="518"/>
      <point x="164" y="464"/>
      <point x="164" y="376" type="curve" smooth="yes"/>
      <point x="164" y="286"/>
      <point x="216" y="235"/>
    </contour>
    <contour>
      <point x="83" y="330" type="curve" smooth="yes"/>
      <point x="115" y="330"/>
      <point x="133" y="348"/>
      <point x="133" y="380" type="curve" smooth="yes"/>
      <point x="133" y="410"/>
      <point x="115" y="430"/>
      <point x="83" y="430" type="curve" smooth="yes"/>
      <point x="52" y="430"/>
      <point x="33" y="409"/>
      <point x="33" y="380" type="curve" smooth="yes"/>
      <point x="33" y="351"/>
      <point x="52" y="330"/>
    </contour>
    <contour>
      <point x="533" y="330" type="curve" smooth="yes"/>
      <point x="565" y="330"/>
      <point x="583" y="348"/>
      <point x="583" y="380" type="curve" smooth="yes"/>
      <point x="583" y="410"/>
      <point x="565" y="430"/>
      <point x="533" y="430" type="curve" smooth="yes"/>
      <point x="502" y="430"/>
      <point x="483" y="409"/>
      <point x="483" y="380" type="curve" smooth="yes"/>
      <point x="483" y="351"/>
      <point x="502" y="330"/>
    </contour>
  </outline>
</glyph>
<glyph name="uA53A" format="2">
  <advance width="905"/>
  <unicode hex="A53A"/>
  <outline>
    <contour>
      <point x="476" y="-11" type="curve"/>
      <point x="527" y="51" type="line"/>
      <point x="489" y="73"/>
      <point x="468" y="88"/>
      <point x="468" y="109" type="curve" smooth="yes"/>
      <point x="468" y="139"/>
      <point x="517" y="161"/>
      <point x="517" y="223" type="curve" smooth="yes"/>
      <point x="517" y="264"/>
      <point x="497" y="286"/>
      <point x="478" y="307" type="curve"/>
      <point x="520" y="313"/>
      <point x="560" y="336"/>
      <point x="579" y="395" type="curve"/>
      <point x="583" y="395" type="line"/>
      <point x="613" y="327"/>
      <point x="673" y="305"/>
      <point x="715" y="305" type="curve" smooth="yes"/>
      <point x="803" y="305"/>
      <point x="854" y="350"/>
      <point x="861" y="494" type="curve"/>
      <point x="783" y="494" type="line"/>
      <point x="780" y="410"/>
      <point x="761" y="371"/>
      <point x="705" y="371" type="curve" smooth="yes"/>
      <point x="662" y="371"/>
      <point x="625" y="404"/>
      <point x="623" y="494" type="curve"/>
      <point x="545" y="494" type="line"/>
      <point x="542" y="407"/>
      <point x="508" y="373"/>
      <point x="458" y="371" type="curve"/>
      <point x="467" y="415"/>
      <point x="517" y="444"/>
      <point x="517" y="508" type="curve" smooth="yes"/>
      <point x="517" y="578"/>
      <point x="462" y="589"/>
      <point x="462" y="625" type="curve" smooth="yes"/>
      <point x="462" y="646"/>
      <point x="491" y="661"/>
      <point x="521" y="676" type="curve"/>
      <point x="477" y="725" type="line"/>
      <point x="421" y="706"/>
      <point x="382" y="665"/>
      <point x="382" y="619" type="curve" smooth="yes"/>
      <point x="382" y="561"/>
      <point x="437" y="554"/>
      <point x="437" y="501" type="curve" smooth="yes"/>
      <point x="437" y="456"/>
      <point x="408" y="435"/>
      <point x="399" y="386" type="curve"/>
      <point x="376" y="404"/>
      <point x="361" y="438"/>
      <point x="361" y="494" type="curve"/>
      <point x="283" y="494" type="line"/>
      <point x="281" y="405"/>
      <point x="249" y="371"/>
      <point x="201" y="371" type="curve" smooth="yes"/>
      <point x="150" y="371"/>
      <point x="124" y="415"/>
      <point x="122" y="494" type="curve"/>
      <point x="44" y="494" type="line"/>
      <point x="50" y="350"/>
      <point x="94" y="305"/>
      <point x="191" y="305" type="curve" smooth="yes"/>
      <point x="233" y="305"/>
      <point x="288" y="327"/>
      <point x="318" y="395" type="curve"/>
      <point x="322" y="395" type="line"/>
      <point x="336" y="347"/>
      <point x="368" y="323"/>
      <point x="403" y="312" type="curve"/>
      <point x="414" y="272"/>
      <point x="437" y="247"/>
      <point x="437" y="213" type="curve" smooth="yes"/>
      <point x="437" y="173"/>
      <point x="377" y="146"/>
      <point x="377" y="89" type="curve" smooth="yes"/>
      <point x="377" y="42"/>
      <point x="423" y="13"/>
    </contour>
  </outline>
</glyph>
<glyph name="uA53E" format="2">
  <advance width="773"/>
  <unicode hex="A53E"/>
  <outline>
    <contour>
      <point x="594" y="-10" type="line"/>
      <point x="627" y="52" type="line"/>
      <point x="329" y="197" type="line"/>
      <point x="610" y="367" type="line"/>
      <point x="342" y="527" type="line"/>
      <point x="626" y="662" type="line"/>
      <point x="594" y="724" type="line"/>
      <point x="179" y="534" type="line"/>
      <point x="465" y="366" type="line"/>
      <point x="175" y="183" type="line"/>
    </contour>
    <contour>
      <point x="142" y="258" type="curve" smooth="yes"/>
      <point x="206" y="258"/>
      <point x="253" y="297"/>
      <point x="253" y="365" type="curve" smooth="yes"/>
      <point x="253" y="430"/>
      <point x="205" y="469"/>
      <point x="142" y="469" type="curve" smooth="yes"/>
      <point x="77" y="469"/>
      <point x="33" y="430"/>
      <point x="33" y="364" type="curve" smooth="yes"/>
      <point x="33" y="297"/>
      <point x="77" y="258"/>
    </contour>
    <contour>
      <point x="142" y="314" type="curve" smooth="yes"/>
      <point x="110" y="314"/>
      <point x="92" y="332"/>
      <point x="92" y="364" type="curve" smooth="yes"/>
      <point x="92" y="395"/>
      <point x="113" y="414"/>
      <point x="142" y="414" type="curve" smooth="yes"/>
      <point x="171" y="414"/>
      <point x="192" y="395"/>
      <point x="192" y="364" type="curve" smooth="yes"/>
      <point x="192" y="332"/>
      <point x="172" y="314"/>
    </contour>
    <contour>
      <point x="690" y="314" type="curve" smooth="yes"/>
      <point x="720" y="314"/>
      <point x="740" y="332"/>
      <point x="740" y="364" type="curve" smooth="yes"/>
      <point x="740" y="395"/>
      <point x="719" y="414"/>
      <point x="690" y="414" type="curve" smooth="yes"/>
      <point x="661" y="414"/>
      <point x="640" y="395"/>
      <point x="640" y="364" type="curve" smooth="yes"/>
      <point x="640" y="332"/>
      <point x="658" y="314"/>
    </contour>
  </outline>
</glyph>
<glyph name="uA53F" format="2">
  <advance width="606"/>
  <unicode hex="A53F"/>
  <outline>
    <contour>
      <point x="242" y="-10" type="curve" smooth="yes"/>
      <point x="351" y="-10"/>
      <point x="443" y="60"/>
      <point x="443" y="176" type="curve" smooth="yes"/>
      <point x="443" y="293"/>
      <point x="369" y="352"/>
      <point x="284" y="352" type="curve" smooth="yes"/>
      <point x="233" y="352"/>
      <point x="190" y="327"/>
      <point x="161" y="296" type="curve"/>
      <point x="158" y="297" type="line"/>
      <point x="165" y="388"/>
      <point x="180" y="462"/>
      <point x="203" y="525" type="curve"/>
      <point x="493" y="525" type="line"/>
      <point x="493" y="594" type="line"/>
      <point x="234" y="594" type="line"/>
      <point x="243" y="612"/>
      <point x="253" y="629"/>
      <point x="264" y="645" type="curve"/>
      <point x="573" y="645" type="line"/>
      <point x="573" y="714" type="line"/>
      <point x="231" y="714" type="line"/>
      <point x="150" y="623"/>
      <point x="77" y="458"/>
      <point x="77" y="181" type="curve" smooth="yes"/>
      <point x="77" y="44"/>
      <point x="159" y="-10"/>
    </contour>
    <contour>
      <point x="255" y="56" type="curve" smooth="yes"/>
      <point x="161" y="56"/>
      <point x="155" y="156"/>
      <point x="155" y="225" type="curve"/>
      <point x="177" y="257"/>
      <point x="213" y="286"/>
      <point x="267" y="286" type="curve" smooth="yes"/>
      <point x="340" y="286"/>
      <point x="366" y="229"/>
      <point x="366" y="176" type="curve" smooth="yes"/>
      <point x="366" y="103"/>
      <point x="312" y="56"/>
    </contour>
  </outline>
</glyph>
<glyph name="uA540" format="2">
  <advance width="906"/>
  <unicode hex="A540"/>
  <outline>
    <contour>
      <point x="186" y="265" type="curve" smooth="yes"/>
      <point x="228" y="265"/>
      <point x="283" y="287"/>
      <point x="313" y="355" type="curve"/>
      <point x="317" y="355" type="line"/>
      <point x="338" y="285"/>
      <point x="397" y="265"/>
      <point x="448" y="265" type="curve" smooth="yes"/>
      <point x="499" y="265"/>
      <point x="548" y="285"/>
      <point x="574" y="355" type="curve"/>
      <point x="578" y="355" type="line"/>
      <point x="608" y="287"/>
      <point x="668" y="265"/>
      <point x="710" y="265" type="curve" smooth="yes"/>
      <point x="785" y="265"/>
      <point x="846" y="320"/>
      <point x="873" y="394" type="curve"/>
      <point x="812" y="425" type="line"/>
      <point x="798" y="385"/>
      <point x="757" y="336"/>
      <point x="710" y="336" type="curve"/>
      <point x="666" y="336"/>
      <point x="618" y="367"/>
      <point x="618" y="463" type="curve" smooth="yes"/>
      <point x="618" y="494" type="line"/>
      <point x="540" y="494" type="line"/>
      <point x="540" y="463" type="line" smooth="yes"/>
      <point x="540" y="367"/>
      <point x="504" y="331"/>
      <point x="448" y="331" type="curve" smooth="yes"/>
      <point x="392" y="331"/>
      <point x="356" y="367"/>
      <point x="356" y="463" type="curve" smooth="yes"/>
      <point x="356" y="494" type="line"/>
      <point x="278" y="494" type="line"/>
      <point x="278" y="463" type="line" smooth="yes"/>
      <point x="278" y="367"/>
      <point x="246" y="336"/>
      <point x="196" y="336" type="curve" smooth="yes"/>
      <point x="149" y="336"/>
      <point x="108" y="385"/>
      <point x="94" y="425" type="curve"/>
      <point x="33" y="394" type="line"/>
      <point x="60" y="320"/>
      <point x="118" y="265"/>
    </contour>
  </outline>
</glyph>
<glyph name="uA541" format="2">
  <advance width="906"/>
  <unicode hex="A541"/>
  <outline>
    <contour>
      <point x="186" y="265" type="curve" smooth="yes"/>
      <point x="228" y="265"/>
      <point x="283" y="287"/>
      <point x="313" y="355" type="curve"/>
      <point x="317" y="355" type="line"/>
      <point x="338" y="285"/>
      <point x="397" y="265"/>
      <point x="448" y="265" type="curve" smooth="yes"/>
      <point x="499" y="265"/>
      <point x="548" y="285"/>
      <point x="574" y="355" type="curve"/>
      <point x="578" y="355" type="line"/>
      <point x="608" y="287"/>
      <point x="668" y="265"/>
      <point x="710" y="265" type="curve" smooth="yes"/>
      <point x="785" y="265"/>
      <point x="846" y="320"/>
      <point x="873" y="394" type="curve"/>
      <point x="812" y="425" type="line"/>
      <point x="798" y="385"/>
      <point x="757" y="336"/>
      <point x="710" y="336" type="curve" smooth="yes"/>
      <point x="666" y="336"/>
      <point x="618" y="367"/>
      <point x="618" y="463" type="curve" smooth="yes"/>
      <point x="618" y="494" type="line"/>
      <point x="540" y="494" type="line"/>
      <point x="540" y="463" type="line" smooth="yes"/>
      <point x="540" y="367"/>
      <point x="504" y="331"/>
      <point x="448" y="331" type="curve" smooth="yes"/>
      <point x="392" y="331"/>
      <point x="356" y="367"/>
      <point x="356" y="463" type="curve" smooth="yes"/>
      <point x="356" y="494" type="line"/>
      <point x="278" y="494" type="line"/>
      <point x="278" y="463" type="line" smooth="yes"/>
      <point x="278" y="367"/>
      <point x="246" y="336"/>
      <point x="196" y="336" type="curve" smooth="yes"/>
      <point x="149" y="336"/>
      <point x="108" y="385"/>
      <point x="94" y="425" type="curve"/>
      <point x="33" y="394" type="line"/>
      <point x="60" y="320"/>
      <point x="118" y="265"/>
    </contour>
    <contour>
      <point x="316" y="535" type="curve" smooth="yes"/>
      <point x="346" y="535"/>
      <point x="366" y="553"/>
      <point x="366" y="585" type="curve" smooth="yes"/>
      <point x="366" y="616"/>
      <point x="345" y="635"/>
      <point x="316" y="635" type="curve" smooth="yes"/>
      <point x="287" y="635"/>
      <point x="266" y="616"/>
      <point x="266" y="585" type="curve" smooth="yes"/>
      <point x="266" y="553"/>
      <point x="284" y="535"/>
    </contour>
    <contour>
      <point x="579" y="535" type="curve" smooth="yes"/>
      <point x="609" y="535"/>
      <point x="629" y="553"/>
      <point x="629" y="585" type="curve" smooth="yes"/>
      <point x="629" y="616"/>
      <point x="608" y="635"/>
      <point x="579" y="635" type="curve" smooth="yes"/>
      <point x="550" y="635"/>
      <point x="529" y="616"/>
      <point x="529" y="585" type="curve" smooth="yes"/>
      <point x="529" y="553"/>
      <point x="547" y="535"/>
    </contour>
  </outline>
</glyph>
<glyph name="uA542" format="2">
  <advance width="906"/>
  <unicode hex="A542"/>
  <outline>
    <contour>
      <point x="186" y="265" type="curve" smooth="yes"/>
      <point x="228" y="265"/>
      <point x="283" y="287"/>
      <point x="313" y="355" type="curve"/>
      <point x="317" y="355" type="line"/>
      <point x="338" y="285"/>
      <point x="397" y="265"/>
      <point x="448" y="265" type="curve" smooth="yes"/>
      <point x="499" y="265"/>
      <point x="548" y="285"/>
      <point x="574" y="355" type="curve"/>
      <point x="578" y="355" type="line"/>
      <point x="608" y="287"/>
      <point x="668" y="265"/>
      <point x="710" y="265" type="curve" smooth="yes"/>
      <point x="785" y="265"/>
      <point x="846" y="320"/>
      <point x="873" y="394" type="curve"/>
      <point x="812" y="425" type="line"/>
      <point x="798" y="385"/>
      <point x="757" y="336"/>
      <point x="710" y="336" type="curve" smooth="yes"/>
      <point x="666" y="336"/>
      <point x="618" y="367"/>
      <point x="618" y="463" type="curve" smooth="yes"/>
      <point x="618" y="494" type="line"/>
      <point x="540" y="494" type="line"/>
      <point x="540" y="463" type="line" smooth="yes"/>
      <point x="540" y="367"/>
      <point x="504" y="331"/>
      <point x="448" y="331" type="curve" smooth="yes"/>
      <point x="392" y="331"/>
      <point x="356" y="367"/>
      <point x="356" y="463" type="curve" smooth="yes"/>
      <point x="356" y="494" type="line"/>
      <point x="278" y="494" type="line"/>
      <point x="278" y="463" type="line" smooth="yes"/>
      <point x="278" y="367"/>
      <point x="246" y="336"/>
      <point x="196" y="336" type="curve" smooth="yes"/>
      <point x="149" y="336"/>
      <point x="108" y="385"/>
      <point x="94" y="425" type="curve"/>
      <point x="33" y="394" type="line"/>
      <point x="60" y="320"/>
      <point x="118" y="265"/>
    </contour>
    <contour>
      <point x="448" y="115" type="curve" smooth="yes"/>
      <point x="478" y="115"/>
      <point x="498" y="133"/>
      <point x="498" y="165" type="curve" smooth="yes"/>
      <point x="498" y="196"/>
      <point x="477" y="215"/>
      <point x="448" y="215" type="curve" smooth="yes"/>
      <point x="419" y="215"/>
      <point x="398" y="196"/>
      <point x="398" y="165" type="curve" smooth="yes"/>
      <point x="398" y="133"/>
      <point x="416" y="115"/>
    </contour>
    <contour>
      <point x="448" y="535" type="curve" smooth="yes"/>
      <point x="478" y="535"/>
      <point x="498" y="553"/>
      <point x="498" y="585" type="curve" smooth="yes"/>
      <point x="498" y="616"/>
      <point x="477" y="635"/>
      <point x="448" y="635" type="curve" smooth="yes"/>
      <point x="419" y="635"/>
      <point x="398" y="616"/>
      <point x="398" y="585" type="curve" smooth="yes"/>
      <point x="398" y="553"/>
      <point x="416" y="535"/>
    </contour>
  </outline>
</glyph>
<glyph name="uA543" format="2">
  <advance width="528"/>
  <unicode hex="A543"/>
  <outline>
    <contour>
      <point x="260" y="-11" type="curve" smooth="yes"/>
      <point x="358" y="-11"/>
      <point x="484" y="67"/>
      <point x="484" y="199" type="curve" smooth="yes"/>
      <point x="484" y="320"/>
      <point x="399" y="386"/>
      <point x="293" y="386" type="curve" smooth="yes"/>
      <point x="245" y="386"/>
      <point x="199" y="356"/>
      <point x="172" y="321" type="curve"/>
      <point x="169" y="323" type="line"/>
      <point x="212" y="437"/>
      <point x="300" y="572"/>
      <point x="391" y="689" type="curve"/>
      <point x="327" y="725" type="line"/>
      <point x="186" y="543"/>
      <point x="66" y="343"/>
      <point x="66" y="186" type="curve" smooth="yes"/>
      <point x="66" y="65"/>
      <point x="141" y="-11"/>
    </contour>
    <contour>
      <point x="260" y="57" type="curve" smooth="yes"/>
      <point x="189" y="57"/>
      <point x="144" y="107"/>
      <point x="144" y="186" type="curve"/>
      <point x="144" y="205"/>
      <point x="145" y="218"/>
      <point x="148" y="237" type="curve"/>
      <point x="173" y="279"/>
      <point x="227" y="318"/>
      <point x="292" y="318" type="curve" smooth="yes"/>
      <point x="354" y="318"/>
      <point x="406" y="278"/>
      <point x="406" y="199" type="curve" smooth="yes"/>
      <point x="406" y="106"/>
      <point x="332" y="57"/>
    </contour>
  </outline>
</glyph>
<glyph name="uA545" format="2">
  <advance width="950"/>
  <unicode hex="A545"/>
  <outline>
    <contour>
      <point x="503" y="-10" type="curve" smooth="yes"/>
      <point x="598" y="-10"/>
      <point x="652" y="81"/>
      <point x="652" y="253" type="curve" smooth="yes"/>
      <point x="652" y="315" type="line"/>
      <point x="839" y="315" type="line"/>
      <point x="839" y="231" type="line"/>
      <point x="917" y="231" type="line"/>
      <point x="917" y="473" type="line"/>
      <point x="839" y="473" type="line"/>
      <point x="839" y="383" type="line"/>
      <point x="652" y="383" type="line"/>
      <point x="652" y="714" type="line"/>
      <point x="574" y="714" type="line"/>
      <point x="574" y="645" type="line" smooth="yes"/>
      <point x="574" y="540"/>
      <point x="537" y="491"/>
      <point x="486" y="491" type="curve" smooth="yes"/>
      <point x="433" y="491"/>
      <point x="392" y="527"/>
      <point x="392" y="621" type="curve" smooth="yes"/>
      <point x="392" y="714" type="line"/>
      <point x="314" y="714" type="line"/>
      <point x="314" y="623" type="line" smooth="yes"/>
      <point x="314" y="527"/>
      <point x="272" y="491"/>
      <point x="227" y="491" type="curve" smooth="yes"/>
      <point x="169" y="491"/>
      <point x="133" y="540"/>
      <point x="133" y="643" type="curve" smooth="yes"/>
      <point x="133" y="714" type="line"/>
      <point x="55" y="714" type="line"/>
      <point x="55" y="643" type="line" smooth="yes"/>
      <point x="55" y="477"/>
      <point x="118" y="425"/>
      <point x="212" y="425" type="curve" smooth="yes"/>
      <point x="264" y="425"/>
      <point x="319" y="447"/>
      <point x="349" y="515" type="curve"/>
      <point x="353" y="515" type="line"/>
      <point x="374" y="445"/>
      <point x="433" y="425"/>
      <point x="473" y="425" type="curve" smooth="yes"/>
      <point x="505" y="425"/>
      <point x="549" y="443"/>
      <point x="570" y="490" type="curve"/>
      <point x="574" y="490" type="line"/>
      <point x="574" y="378" type="line"/>
      <point x="427" y="351"/>
      <point x="385" y="230"/>
      <point x="385" y="131" type="curve" smooth="yes"/>
      <point x="385" y="31"/>
      <point x="452" y="-10"/>
    </contour>
    <contour>
      <point x="503" y="58" type="curve" smooth="yes"/>
      <point x="476" y="58"/>
      <point x="453" y="82"/>
      <point x="453" y="133" type="curve" smooth="yes"/>
      <point x="453" y="189"/>
      <point x="459" y="283"/>
      <point x="574" y="309" type="curve"/>
      <point x="574" y="253" type="line" smooth="yes"/>
      <point x="574" y="106"/>
      <point x="548" y="58"/>
    </contour>
    <contour>
      <point x="745" y="165" type="curve" smooth="yes"/>
      <point x="775" y="165"/>
      <point x="795" y="183"/>
      <point x="795" y="215" type="curve" smooth="yes"/>
      <point x="795" y="246"/>
      <point x="774" y="265"/>
      <point x="745" y="265" type="curve" smooth="yes"/>
      <point x="716" y="265"/>
      <point x="695" y="246"/>
      <point x="695" y="215" type="curve" smooth="yes"/>
      <point x="695" y="183"/>
      <point x="713" y="165"/>
    </contour>
    <contour>
      <point x="745" y="435" type="curve" smooth="yes"/>
      <point x="775" y="435"/>
      <point x="795" y="453"/>
      <point x="795" y="485" type="curve" smooth="yes"/>
      <point x="795" y="516"/>
      <point x="774" y="535"/>
      <point x="745" y="535" type="curve" smooth="yes"/>
      <point x="716" y="535"/>
      <point x="695" y="516"/>
      <point x="695" y="485" type="curve" smooth="yes"/>
      <point x="695" y="453"/>
      <point x="713" y="435"/>
    </contour>
  </outline>
</glyph>
<glyph name="uA546" format="2">
  <advance width="778"/>
  <unicode hex="A546"/>
  <outline>
    <contour>
      <point x="729" y="-10" type="curve"/>
      <point x="734" y="58" type="line"/>
      <point x="558" y="58"/>
      <point x="466" y="172"/>
      <point x="466" y="356" type="curve" smooth="yes"/>
      <point x="466" y="536"/>
      <point x="571" y="659"/>
      <point x="734" y="659" type="curve"/>
      <point x="729" y="727" type="line"/>
      <point x="522" y="727"/>
      <point x="388" y="577"/>
      <point x="388" y="356" type="curve" smooth="yes"/>
      <point x="388" y="130"/>
      <point x="503" y="-10"/>
    </contour>
    <contour>
      <point x="429" y="-10" type="curve"/>
      <point x="434" y="58" type="line"/>
      <point x="258" y="58"/>
      <point x="166" y="172"/>
      <point x="166" y="356" type="curve" smooth="yes"/>
      <point x="166" y="536"/>
      <point x="272" y="659"/>
      <point x="434" y="659" type="curve"/>
      <point x="429" y="727" type="line"/>
      <point x="222" y="727"/>
      <point x="88" y="577"/>
      <point x="88" y="356" type="curve" smooth="yes"/>
      <point x="88" y="130"/>
      <point x="203" y="-10"/>
    </contour>
  </outline>
</glyph>
<glyph name="uA547" format="2">
  <advance width="626"/>
  <unicode hex="A547"/>
  <outline>
    <contour>
      <point x="323" y="1" type="curve" smooth="yes"/>
      <point x="425" y="1"/>
      <point x="496" y="16"/>
      <point x="548" y="41" type="curve"/>
      <point x="520" y="98" type="line"/>
      <point x="469" y="77"/>
      <point x="395" y="69"/>
      <point x="323" y="69" type="curve" smooth="yes"/>
      <point x="216" y="69"/>
      <point x="155" y="90"/>
      <point x="155" y="140" type="curve" smooth="yes"/>
      <point x="155" y="188"/>
      <point x="216" y="210"/>
      <point x="323" y="210" type="curve" smooth="yes"/>
      <point x="395" y="210"/>
      <point x="450" y="202"/>
      <point x="487" y="175" type="curve"/>
      <point x="542" y="214" type="line"/>
      <point x="542" y="446" type="line"/>
      <point x="151" y="365" type="line"/>
      <point x="151" y="471" type="line"/>
      <point x="191" y="457"/>
      <point x="242" y="450"/>
      <point x="303" y="450" type="curve" smooth="yes"/>
      <point x="470" y="450"/>
      <point x="549" y="497"/>
      <point x="549" y="584" type="curve" smooth="yes"/>
      <point x="549" y="668"/>
      <point x="470" y="722"/>
      <point x="303" y="722" type="curve" smooth="yes"/>
      <point x="201" y="722"/>
      <point x="140" y="707"/>
      <point x="88" y="682" type="curve"/>
      <point x="116" y="625" type="line"/>
      <point x="167" y="646"/>
      <point x="231" y="654"/>
      <point x="303" y="654" type="curve" smooth="yes"/>
      <point x="410" y="654"/>
      <point x="471" y="632"/>
      <point x="471" y="584" type="curve" smooth="yes"/>
      <point x="471" y="534"/>
      <point x="410" y="513"/>
      <point x="303" y="513" type="curve" smooth="yes"/>
      <point x="226" y="513"/>
      <point x="170" y="523"/>
      <point x="134" y="554" type="curve"/>
      <point x="78" y="516" type="line"/>
      <point x="78" y="284" type="line"/>
      <point x="469" y="365" type="line"/>
      <point x="469" y="254" type="line"/>
      <point x="429" y="267"/>
      <point x="381" y="273"/>
      <point x="323" y="273" type="curve" smooth="yes"/>
      <point x="156" y="273"/>
      <point x="77" y="224"/>
      <point x="77" y="140" type="curve" smooth="yes"/>
      <point x="77" y="53"/>
      <point x="156" y="1"/>
    </contour>
  </outline>
</glyph>
<glyph name="uA548" format="2">
  <advance width="695"/>
  <unicode hex="A548"/>
  <outline>
    <contour>
      <point x="219" y="-10" type="curve" smooth="yes"/>
      <point x="336" y="-10"/>
      <point x="396" y="66"/>
      <point x="396" y="193" type="curve" smooth="yes"/>
      <point x="396" y="331" type="line"/>
      <point x="529" y="331" type="line"/>
      <point x="529" y="0" type="line"/>
      <point x="607" y="0" type="line"/>
      <point x="607" y="400" type="line"/>
      <point x="396" y="400" type="line"/>
      <point x="396" y="714" type="line"/>
      <point x="318" y="714" type="line"/>
      <point x="318" y="400" type="line"/>
      <point x="143" y="400"/>
      <point x="33" y="337"/>
      <point x="33" y="183" type="curve" smooth="yes"/>
      <point x="33" y="51"/>
      <point x="101" y="-10"/>
    </contour>
    <contour>
      <point x="219" y="58" type="curve" smooth="yes"/>
      <point x="153" y="58"/>
      <point x="111" y="112"/>
      <point x="111" y="183" type="curve" smooth="yes"/>
      <point x="111" y="304"/>
      <point x="169" y="331"/>
      <point x="318" y="331" type="curve"/>
      <point x="318" y="192" type="line" smooth="yes"/>
      <point x="318" y="101"/>
      <point x="285" y="58"/>
    </contour>
  </outline>
</glyph>
<glyph name="uA549" format="2">
  <advance width="546"/>
  <unicode hex="A549"/>
  <outline>
    <contour>
      <point x="233" y="0" type="line"/>
      <point x="311" y="0" type="line"/>
      <point x="311" y="289" type="line"/>
      <point x="411" y="305"/>
      <point x="490" y="383"/>
      <point x="490" y="502" type="curve" smooth="yes"/>
      <point x="490" y="633"/>
      <point x="386" y="722"/>
      <point x="273" y="722" type="curve" smooth="yes"/>
      <point x="159" y="722"/>
      <point x="56" y="633"/>
      <point x="56" y="502" type="curve" smooth="yes"/>
      <point x="56" y="384"/>
      <point x="130" y="305"/>
      <point x="233" y="289" type="curve"/>
    </contour>
    <contour>
      <point x="137" y="40" type="curve" smooth="yes"/>
      <point x="167" y="40"/>
      <point x="187" y="58"/>
      <point x="187" y="90" type="curve" smooth="yes"/>
      <point x="187" y="121"/>
      <point x="166" y="140"/>
      <point x="137" y="140" type="curve" smooth="yes"/>
      <point x="108" y="140"/>
      <point x="87" y="121"/>
      <point x="87" y="90" type="curve" smooth="yes"/>
      <point x="87" y="58"/>
      <point x="105" y="40"/>
    </contour>
    <contour>
      <point x="137" y="175" type="curve" smooth="yes"/>
      <point x="167" y="175"/>
      <point x="187" y="193"/>
      <point x="187" y="225" type="curve" smooth="yes"/>
      <point x="187" y="256"/>
      <point x="166" y="275"/>
      <point x="137" y="275" type="curve" smooth="yes"/>
      <point x="108" y="275"/>
      <point x="87" y="256"/>
      <point x="87" y="225" type="curve" smooth="yes"/>
      <point x="87" y="193"/>
      <point x="105" y="175"/>
    </contour>
    <contour>
      <point x="408" y="40" type="curve" smooth="yes"/>
      <point x="438" y="40"/>
      <point x="458" y="58"/>
      <point x="458" y="90" type="curve" smooth="yes"/>
      <point x="458" y="121"/>
      <point x="437" y="140"/>
      <point x="408" y="140" type="curve" smooth="yes"/>
      <point x="379" y="140"/>
      <point x="358" y="121"/>
      <point x="358" y="90" type="curve" smooth="yes"/>
      <point x="358" y="58"/>
      <point x="376" y="40"/>
    </contour>
    <contour>
      <point x="408" y="175" type="curve" smooth="yes"/>
      <point x="438" y="175"/>
      <point x="458" y="193"/>
      <point x="458" y="225" type="curve" smooth="yes"/>
      <point x="458" y="256"/>
      <point x="437" y="275"/>
      <point x="408" y="275" type="curve" smooth="yes"/>
      <point x="379" y="275"/>
      <point x="358" y="256"/>
      <point x="358" y="225" type="curve" smooth="yes"/>
      <point x="358" y="193"/>
      <point x="376" y="175"/>
    </contour>
    <contour>
      <point x="273" y="354" type="curve" smooth="yes"/>
      <point x="196" y="354"/>
      <point x="134" y="411"/>
      <point x="134" y="502" type="curve" smooth="yes"/>
      <point x="134" y="593"/>
      <point x="202" y="654"/>
      <point x="273" y="654" type="curve" smooth="yes"/>
      <point x="343" y="654"/>
      <point x="412" y="593"/>
      <point x="412" y="502" type="curve" smooth="yes"/>
      <point x="412" y="411"/>
      <point x="346" y="354"/>
    </contour>
  </outline>
</glyph>
<glyph name="uA54A" format="2">
  <advance width="718"/>
  <unicode hex="A54A"/>
  <outline>
    <contour>
      <point x="275" y="135" type="curve" smooth="yes"/>
      <point x="305" y="135"/>
      <point x="334" y="143"/>
      <point x="361" y="157" type="curve"/>
      <point x="390" y="143"/>
      <point x="421" y="135"/>
      <point x="453" y="135" type="curve" smooth="yes"/>
      <point x="569" y="135"/>
      <point x="637" y="176"/>
      <point x="695" y="326" type="curve"/>
      <point x="639" y="355" type="line"/>
      <point x="592" y="234"/>
      <point x="534" y="203"/>
      <point x="453" y="203" type="curve"/>
      <point x="443" y="203"/>
      <point x="429" y="204"/>
      <point x="419" y="206" type="curve"/>
      <point x="474" y="263"/>
      <point x="515" y="348"/>
      <point x="515" y="436" type="curve" smooth="yes"/>
      <point x="515" y="568"/>
      <point x="455" y="644"/>
      <point x="359" y="644" type="curve" smooth="yes"/>
      <point x="263" y="644"/>
      <point x="203" y="543"/>
      <point x="203" y="436" type="curve" smooth="yes"/>
      <point x="203" y="340"/>
      <point x="245" y="258"/>
      <point x="300" y="204" type="curve"/>
      <point x="294" y="203"/>
      <point x="282" y="203"/>
      <point x="275" y="203" type="curve" smooth="yes"/>
      <point x="194" y="203"/>
      <point x="128" y="234"/>
      <point x="84" y="355" type="curve"/>
      <point x="23" y="324" type="line"/>
      <point x="78" y="174"/>
      <point x="159" y="135"/>
    </contour>
    <contour>
      <point x="367" y="227" type="curve"/>
      <point x="317" y="269"/>
      <point x="281" y="355"/>
      <point x="281" y="436" type="curve" smooth="yes"/>
      <point x="281" y="507"/>
      <point x="305" y="576"/>
      <point x="359" y="576" type="curve" smooth="yes"/>
      <point x="413" y="576"/>
      <point x="437" y="507"/>
      <point x="437" y="436" type="curve" smooth="yes"/>
      <point x="437" y="355"/>
      <point x="414" y="269"/>
    </contour>
  </outline>
</glyph>
<glyph name="uA54B" format="2">
  <advance width="740"/>
  <unicode hex="A54B"/>
  <outline>
    <contour>
      <point x="275" y="135" type="curve" smooth="yes"/>
      <point x="305" y="135"/>
      <point x="334" y="143"/>
      <point x="361" y="157" type="curve"/>
      <point x="390" y="143"/>
      <point x="421" y="135"/>
      <point x="453" y="135" type="curve" smooth="yes"/>
      <point x="569" y="135"/>
      <point x="637" y="176"/>
      <point x="695" y="326" type="curve"/>
      <point x="639" y="355" type="line"/>
      <point x="592" y="234"/>
      <point x="534" y="203"/>
      <point x="453" y="203" type="curve"/>
      <point x="443" y="203"/>
      <point x="429" y="204"/>
      <point x="419" y="206" type="curve"/>
      <point x="474" y="263"/>
      <point x="515" y="348"/>
      <point x="515" y="436" type="curve" smooth="yes"/>
      <point x="515" y="568"/>
      <point x="455" y="644"/>
      <point x="359" y="644" type="curve" smooth="yes"/>
      <point x="263" y="644"/>
      <point x="203" y="543"/>
      <point x="203" y="436" type="curve" smooth="yes"/>
      <point x="203" y="340"/>
      <point x="245" y="258"/>
      <point x="300" y="204" type="curve"/>
      <point x="294" y="203"/>
      <point x="282" y="203"/>
      <point x="275" y="203" type="curve" smooth="yes"/>
      <point x="194" y="203"/>
      <point x="128" y="234"/>
      <point x="84" y="355" type="curve"/>
      <point x="23" y="324" type="line"/>
      <point x="78" y="174"/>
      <point x="159" y="135"/>
    </contour>
    <contour>
      <point x="646" y="0" type="curve" smooth="yes"/>
      <point x="676" y="0"/>
      <point x="696" y="18"/>
      <point x="696" y="50" type="curve" smooth="yes"/>
      <point x="696" y="81"/>
      <point x="675" y="100"/>
      <point x="646" y="100" type="curve" smooth="yes"/>
      <point x="617" y="100"/>
      <point x="596" y="81"/>
      <point x="596" y="50" type="curve" smooth="yes"/>
      <point x="596" y="18"/>
      <point x="614" y="0"/>
    </contour>
    <contour>
      <point x="367" y="227" type="curve"/>
      <point x="317" y="269"/>
      <point x="281" y="355"/>
      <point x="281" y="436" type="curve" smooth="yes"/>
      <point x="281" y="507"/>
      <point x="305" y="576"/>
      <point x="359" y="576" type="curve" smooth="yes"/>
      <point x="413" y="576"/>
      <point x="437" y="507"/>
      <point x="437" y="436" type="curve" smooth="yes"/>
      <point x="437" y="355"/>
      <point x="414" y="269"/>
    </contour>
    <contour>
      <point x="646" y="449" type="curve" smooth="yes"/>
      <point x="676" y="449"/>
      <point x="696" y="467"/>
      <point x="696" y="499" type="curve" smooth="yes"/>
      <point x="696" y="530"/>
      <point x="675" y="549"/>
      <point x="646" y="549" type="curve" smooth="yes"/>
      <point x="617" y="549"/>
      <point x="596" y="530"/>
      <point x="596" y="499" type="curve" smooth="yes"/>
      <point x="596" y="467"/>
      <point x="614" y="449"/>
    </contour>
  </outline>
</glyph>
<glyph name="uA54C" format="2">
  <advance width="928"/>
  <unicode hex="A54C"/>
  <outline>
    <contour>
      <point x="294" y="0" type="line"/>
      <point x="372" y="0" type="line"/>
      <point x="372" y="480" type="line"/>
      <point x="376" y="480" type="line"/>
      <point x="399" y="433"/>
      <point x="443" y="425"/>
      <point x="464" y="425" type="curve" smooth="yes"/>
      <point x="489" y="425"/>
      <point x="525" y="435"/>
      <point x="552" y="480" type="curve"/>
      <point x="556" y="480" type="line"/>
      <point x="556" y="0" type="line"/>
      <point x="634" y="0" type="line"/>
      <point x="634" y="480" type="line"/>
      <point x="638" y="480" type="line"/>
      <point x="661" y="433"/>
      <point x="705" y="425"/>
      <point x="726" y="425" type="curve" smooth="yes"/>
      <point x="820" y="425"/>
      <point x="873" y="477"/>
      <point x="873" y="646" type="curve" smooth="yes"/>
      <point x="873" y="714" type="line"/>
      <point x="795" y="714" type="line"/>
      <point x="795" y="645" type="line" smooth="yes"/>
      <point x="795" y="540"/>
      <point x="769" y="491"/>
      <point x="716" y="491" type="curve" smooth="yes"/>
      <point x="666" y="491"/>
      <point x="634" y="527"/>
      <point x="634" y="623" type="curve" smooth="yes"/>
      <point x="634" y="714" type="line"/>
      <point x="556" y="714" type="line"/>
      <point x="556" y="623" type="line" smooth="yes"/>
      <point x="556" y="527"/>
      <point x="520" y="491"/>
      <point x="464" y="491" type="curve" smooth="yes"/>
      <point x="408" y="491"/>
      <point x="372" y="527"/>
      <point x="372" y="623" type="curve" smooth="yes"/>
      <point x="372" y="714" type="line"/>
      <point x="294" y="714" type="line"/>
      <point x="294" y="623" type="line" smooth="yes"/>
      <point x="294" y="527"/>
      <point x="262" y="491"/>
      <point x="212" y="491" type="curve" smooth="yes"/>
      <point x="159" y="491"/>
      <point x="133" y="540"/>
      <point x="133" y="645" type="curve" smooth="yes"/>
      <point x="133" y="714" type="line"/>
      <point x="55" y="714" type="line"/>
      <point x="55" y="646" type="line" smooth="yes"/>
      <point x="55" y="477"/>
      <point x="108" y="425"/>
      <point x="202" y="425" type="curve" smooth="yes"/>
      <point x="227" y="425"/>
      <point x="263" y="435"/>
      <point x="290" y="480" type="curve"/>
      <point x="294" y="480" type="line"/>
    </contour>
  </outline>
</glyph>
<glyph name="uA54D" format="2">
  <advance width="928"/>
  <unicode hex="A54D"/>
  <outline>
    <contour>
      <point x="294" y="0" type="line"/>
      <point x="372" y="0" type="line"/>
      <point x="372" y="380" type="line"/>
      <point x="376" y="380" type="line"/>
      <point x="399" y="333"/>
      <point x="443" y="325"/>
      <point x="464" y="325" type="curve" smooth="yes"/>
      <point x="489" y="325"/>
      <point x="525" y="335"/>
      <point x="552" y="380" type="curve"/>
      <point x="556" y="380" type="line"/>
      <point x="556" y="0" type="line"/>
      <point x="634" y="0" type="line"/>
      <point x="634" y="380" type="line"/>
      <point x="638" y="380" type="line"/>
      <point x="661" y="333"/>
      <point x="705" y="325"/>
      <point x="726" y="325" type="curve" smooth="yes"/>
      <point x="820" y="325"/>
      <point x="873" y="377"/>
      <point x="873" y="546" type="curve" smooth="yes"/>
      <point x="873" y="614" type="line"/>
      <point x="795" y="614" type="line"/>
      <point x="795" y="545" type="line" smooth="yes"/>
      <point x="795" y="440"/>
      <point x="769" y="391"/>
      <point x="716" y="391" type="curve" smooth="yes"/>
      <point x="666" y="391"/>
      <point x="634" y="427"/>
      <point x="634" y="523" type="curve" smooth="yes"/>
      <point x="634" y="614" type="line"/>
      <point x="556" y="614" type="line"/>
      <point x="556" y="523" type="line" smooth="yes"/>
      <point x="556" y="427"/>
      <point x="520" y="391"/>
      <point x="464" y="391" type="curve" smooth="yes"/>
      <point x="408" y="391"/>
      <point x="372" y="427"/>
      <point x="372" y="523" type="curve" smooth="yes"/>
      <point x="372" y="614" type="line"/>
      <point x="294" y="614" type="line"/>
      <point x="294" y="523" type="line" smooth="yes"/>
      <point x="294" y="427"/>
      <point x="262" y="391"/>
      <point x="212" y="391" type="curve" smooth="yes"/>
      <point x="159" y="391"/>
      <point x="133" y="440"/>
      <point x="133" y="545" type="curve" smooth="yes"/>
      <point x="133" y="614" type="line"/>
      <point x="55" y="614" type="line"/>
      <point x="55" y="546" type="line" smooth="yes"/>
      <point x="55" y="377"/>
      <point x="108" y="325"/>
      <point x="202" y="325" type="curve" smooth="yes"/>
      <point x="227" y="325"/>
      <point x="263" y="335"/>
      <point x="290" y="380" type="curve"/>
      <point x="294" y="380" type="line"/>
    </contour>
    <contour>
      <point x="462" y="112" type="curve" smooth="yes"/>
      <point x="492" y="112"/>
      <point x="512" y="130"/>
      <point x="512" y="162" type="curve" smooth="yes"/>
      <point x="512" y="193"/>
      <point x="491" y="212"/>
      <point x="462" y="212" type="curve" smooth="yes"/>
      <point x="433" y="212"/>
      <point x="412" y="193"/>
      <point x="412" y="162" type="curve" smooth="yes"/>
      <point x="412" y="130"/>
      <point x="430" y="112"/>
    </contour>
    <contour>
      <point x="462" y="621" type="curve" smooth="yes"/>
      <point x="492" y="621"/>
      <point x="512" y="639"/>
      <point x="512" y="671" type="curve" smooth="yes"/>
      <point x="512" y="702"/>
      <point x="491" y="721"/>
      <point x="462" y="721" type="curve" smooth="yes"/>
      <point x="433" y="721"/>
      <point x="412" y="702"/>
      <point x="412" y="671" type="curve" smooth="yes"/>
      <point x="412" y="639"/>
      <point x="430" y="621"/>
    </contour>
  </outline>
</glyph>
<glyph name="uA54E" format="2">
  <advance width="801"/>
  <unicode hex="A54E"/>
  <outline>
    <contour>
      <point x="555" y="-11" type="curve" smooth="yes"/>
      <point x="653" y="-11"/>
      <point x="735" y="59"/>
      <point x="768" y="172" type="curve"/>
      <point x="701" y="189" type="line"/>
      <point x="677" y="106"/>
      <point x="627" y="57"/>
      <point x="555" y="57" type="curve" smooth="yes"/>
      <point x="484" y="57"/>
      <point x="439" y="107"/>
      <point x="439" y="186" type="curve" smooth="yes"/>
      <point x="439" y="329"/>
      <point x="554" y="519"/>
      <point x="686" y="689" type="curve"/>
      <point x="622" y="725" type="line"/>
      <point x="563" y="649"/>
      <point x="508" y="570"/>
      <point x="464" y="493" type="curve"/>
      <point x="422" y="502"/>
      <point x="392" y="540"/>
      <point x="392" y="621" type="curve" smooth="yes"/>
      <point x="392" y="714" type="line"/>
      <point x="314" y="714" type="line"/>
      <point x="314" y="623" type="line" smooth="yes"/>
      <point x="314" y="527"/>
      <point x="272" y="491"/>
      <point x="227" y="491" type="curve" smooth="yes"/>
      <point x="169" y="491"/>
      <point x="133" y="540"/>
      <point x="133" y="643" type="curve" smooth="yes"/>
      <point x="133" y="714" type="line"/>
      <point x="55" y="714" type="line"/>
      <point x="55" y="643" type="line" smooth="yes"/>
      <point x="55" y="477"/>
      <point x="118" y="425"/>
      <point x="212" y="425" type="curve" smooth="yes"/>
      <point x="264" y="425"/>
      <point x="319" y="447"/>
      <point x="349" y="515" type="curve"/>
      <point x="353" y="515" type="line"/>
      <point x="367" y="467"/>
      <point x="399" y="442"/>
      <point x="431" y="432" type="curve"/>
      <point x="387" y="345"/>
      <point x="361" y="260"/>
      <point x="361" y="186" type="curve" smooth="yes"/>
      <point x="361" y="65"/>
      <point x="436" y="-11"/>
    </contour>
  </outline>
</glyph>
<glyph name="uA54F" format="2">
  <advance width="932"/>
  <unicode hex="A54F"/>
  <outline>
    <contour>
      <point x="574" y="0" type="line"/>
      <point x="652" y="0" type="line"/>
      <point x="652" y="58" type="line"/>
      <point x="666" y="77"/>
      <point x="692" y="86"/>
      <point x="721" y="86" type="curve" smooth="yes"/>
      <point x="775" y="86"/>
      <point x="810" y="50"/>
      <point x="810" y="0" type="curve"/>
      <point x="888" y="0" type="line"/>
      <point x="888" y="100"/>
      <point x="825" y="152"/>
      <point x="731" y="152" type="curve" smooth="yes"/>
      <point x="702" y="152"/>
      <point x="676" y="141"/>
      <point x="657" y="129" type="curve"/>
      <point x="652" y="129" type="line"/>
      <point x="652" y="257" type="line"/>
      <point x="666" y="276"/>
      <point x="692" y="285"/>
      <point x="721" y="285" type="curve" smooth="yes"/>
      <point x="775" y="285"/>
      <point x="810" y="255"/>
      <point x="810" y="199" type="curve"/>
      <point x="888" y="199" type="line"/>
      <point x="888" y="293"/>
      <point x="825" y="351"/>
      <point x="731" y="351" type="curve" smooth="yes"/>
      <point x="702" y="351"/>
      <point x="676" y="340"/>
      <point x="657" y="328" type="curve"/>
      <point x="652" y="328" type="line"/>
      <point x="652" y="714" type="line"/>
      <point x="574" y="714" type="line"/>
      <point x="574" y="645" type="line" smooth="yes"/>
      <point x="574" y="540"/>
      <point x="537" y="491"/>
      <point x="486" y="491" type="curve" smooth="yes"/>
      <point x="433" y="491"/>
      <point x="392" y="527"/>
      <point x="392" y="621" type="curve" smooth="yes"/>
      <point x="392" y="714" type="line"/>
      <point x="314" y="714" type="line"/>
      <point x="314" y="623" type="line" smooth="yes"/>
      <point x="314" y="527"/>
      <point x="272" y="491"/>
      <point x="227" y="491" type="curve" smooth="yes"/>
      <point x="169" y="491"/>
      <point x="133" y="540"/>
      <point x="133" y="643" type="curve" smooth="yes"/>
      <point x="133" y="714" type="line"/>
      <point x="55" y="714" type="line"/>
      <point x="55" y="643" type="line" smooth="yes"/>
      <point x="55" y="477"/>
      <point x="118" y="425"/>
      <point x="212" y="425" type="curve" smooth="yes"/>
      <point x="264" y="425"/>
      <point x="319" y="447"/>
      <point x="349" y="515" type="curve"/>
      <point x="353" y="515" type="line"/>
      <point x="374" y="445"/>
      <point x="433" y="425"/>
      <point x="473" y="425" type="curve" smooth="yes"/>
      <point x="505" y="425"/>
      <point x="549" y="443"/>
      <point x="570" y="490" type="curve"/>
      <point x="574" y="490" type="line"/>
    </contour>
  </outline>
</glyph>
<glyph name="uA550" format="2">
  <advance width="869"/>
  <unicode hex="A550"/>
  <outline>
    <contour>
      <point x="574" y="0" type="line"/>
      <point x="652" y="0" type="line"/>
      <point x="652" y="714" type="line"/>
      <point x="574" y="714" type="line"/>
      <point x="574" y="645" type="line" smooth="yes"/>
      <point x="574" y="540"/>
      <point x="537" y="491"/>
      <point x="486" y="491" type="curve" smooth="yes"/>
      <point x="433" y="491"/>
      <point x="392" y="527"/>
      <point x="392" y="621" type="curve" smooth="yes"/>
      <point x="392" y="714" type="line"/>
      <point x="314" y="714" type="line"/>
      <point x="314" y="623" type="line" smooth="yes"/>
      <point x="314" y="527"/>
      <point x="272" y="491"/>
      <point x="227" y="491" type="curve" smooth="yes"/>
      <point x="169" y="491"/>
      <point x="133" y="540"/>
      <point x="133" y="643" type="curve" smooth="yes"/>
      <point x="133" y="714" type="line"/>
      <point x="55" y="714" type="line"/>
      <point x="55" y="643" type="line" smooth="yes"/>
      <point x="55" y="477"/>
      <point x="118" y="425"/>
      <point x="212" y="425" type="curve" smooth="yes"/>
      <point x="264" y="425"/>
      <point x="319" y="447"/>
      <point x="349" y="515" type="curve"/>
      <point x="353" y="515" type="line"/>
      <point x="374" y="445"/>
      <point x="433" y="425"/>
      <point x="473" y="425" type="curve" smooth="yes"/>
      <point x="505" y="425"/>
      <point x="549" y="443"/>
      <point x="570" y="490" type="curve"/>
      <point x="574" y="490" type="line"/>
    </contour>
    <contour>
      <point x="449" y="245" type="curve" smooth="yes"/>
      <point x="479" y="245"/>
      <point x="499" y="263"/>
      <point x="499" y="295" type="curve" smooth="yes"/>
      <point x="499" y="326"/>
      <point x="478" y="345"/>
      <point x="449" y="345" type="curve" smooth="yes"/>
      <point x="420" y="345"/>
      <point x="399" y="326"/>
      <point x="399" y="295" type="curve" smooth="yes"/>
      <point x="399" y="263"/>
      <point x="417" y="245"/>
    </contour>
    <contour>
      <point x="775" y="245" type="curve" smooth="yes"/>
      <point x="805" y="245"/>
      <point x="825" y="263"/>
      <point x="825" y="295" type="curve" smooth="yes"/>
      <point x="825" y="326"/>
      <point x="804" y="345"/>
      <point x="775" y="345" type="curve" smooth="yes"/>
      <point x="746" y="345"/>
      <point x="725" y="326"/>
      <point x="725" y="295" type="curve" smooth="yes"/>
      <point x="725" y="263"/>
      <point x="743" y="245"/>
    </contour>
  </outline>
</glyph>
<glyph name="uA551" format="2">
  <advance width="835"/>
  <unicode hex="A551"/>
  <outline>
    <contour>
      <point x="173" y="-11" type="line"/>
      <point x="259" y="100"/>
      <point x="330" y="217"/>
      <point x="372" y="328" type="curve"/>
      <point x="446" y="328" type="line"/>
      <point x="430" y="274"/>
      <point x="421" y="222"/>
      <point x="421" y="176" type="curve" smooth="yes"/>
      <point x="421" y="55"/>
      <point x="476" y="-11"/>
      <point x="595" y="-11" type="curve" smooth="yes"/>
      <point x="683" y="-11"/>
      <point x="769" y="67"/>
      <point x="769" y="189" type="curve" smooth="yes"/>
      <point x="769" y="294"/>
      <point x="697" y="373"/>
      <point x="548" y="392" type="curve"/>
      <point x="594" y="504"/>
      <point x="665" y="610"/>
      <point x="726" y="689" type="curve"/>
      <point x="662" y="725" type="line"/>
      <point x="580" y="619"/>
      <point x="512" y="504"/>
      <point x="469" y="396" type="curve"/>
      <point x="394" y="396" type="line"/>
      <point x="407" y="442"/>
      <point x="414" y="486"/>
      <point x="414" y="528" type="curve" smooth="yes"/>
      <point x="414" y="649"/>
      <point x="349" y="725"/>
      <point x="240" y="725" type="curve" smooth="yes"/>
      <point x="152" y="725"/>
      <point x="66" y="647"/>
      <point x="66" y="525" type="curve" smooth="yes"/>
      <point x="66" y="417"/>
      <point x="133" y="347"/>
      <point x="293" y="331" type="curve"/>
      <point x="247" y="216"/>
      <point x="173" y="107"/>
      <point x="109" y="25" type="curve"/>
    </contour>
    <contour>
      <point x="316" y="398" type="curve"/>
      <point x="183" y="409"/>
      <point x="144" y="456"/>
      <point x="144" y="525" type="curve" smooth="yes"/>
      <point x="144" y="608"/>
      <point x="178" y="657"/>
      <point x="240" y="657" type="curve" smooth="yes"/>
      <point x="301" y="657"/>
      <point x="336" y="607"/>
      <point x="336" y="528" type="curve" smooth="yes"/>
      <point x="336" y="485"/>
      <point x="329" y="442"/>
    </contour>
    <contour>
      <point x="595" y="57" type="curve" smooth="yes"/>
      <point x="524" y="57"/>
      <point x="499" y="97"/>
      <point x="499" y="176" type="curve" smooth="yes"/>
      <point x="499" y="224"/>
      <point x="508" y="274"/>
      <point x="523" y="324" type="curve"/>
      <point x="645" y="310"/>
      <point x="691" y="257"/>
      <point x="691" y="189" type="curve" smooth="yes"/>
      <point x="691" y="106"/>
      <point x="657" y="57"/>
    </contour>
  </outline>
</glyph>
<glyph name="uA552" format="2">
  <advance width="946"/>
  <unicode hex="A552"/>
  <outline>
    <contour>
      <point x="111" y="0" type="line"/>
      <point x="649" y="0" type="line"/>
      <point x="649" y="200" type="line"/>
      <point x="869" y="200" type="line"/>
      <point x="869" y="514" type="line"/>
      <point x="649" y="514" type="line"/>
      <point x="649" y="714" type="line"/>
      <point x="111" y="714" type="line"/>
    </contour>
    <contour>
      <point x="189" y="69" type="line"/>
      <point x="189" y="645" type="line"/>
      <point x="571" y="645" type="line"/>
      <point x="571" y="69" type="line"/>
    </contour>
    <contour>
      <point x="378" y="309" type="curve" smooth="yes"/>
      <point x="408" y="309"/>
      <point x="428" y="327"/>
      <point x="428" y="359" type="curve" smooth="yes"/>
      <point x="428" y="390"/>
      <point x="407" y="409"/>
      <point x="378" y="409" type="curve" smooth="yes"/>
      <point x="349" y="409"/>
      <point x="328" y="390"/>
      <point x="328" y="359" type="curve" smooth="yes"/>
      <point x="328" y="327"/>
      <point x="346" y="309"/>
    </contour>
    <contour>
      <point x="649" y="269" type="line"/>
      <point x="649" y="445" type="line"/>
      <point x="791" y="445" type="line"/>
      <point x="791" y="269" type="line"/>
    </contour>
  </outline>
</glyph>
<glyph name="uA553" format="2">
  <advance width="894"/>
  <unicode hex="A553"/>
  <outline>
    <contour>
      <point x="673" y="0" type="line"/>
      <point x="765" y="0"/>
      <point x="817" y="43"/>
      <point x="817" y="126" type="curve" smooth="yes"/>
      <point x="817" y="209"/>
      <point x="777" y="257"/>
      <point x="611" y="257" type="curve" smooth="yes"/>
      <point x="549" y="257" type="line"/>
      <point x="549" y="645" type="line"/>
      <point x="612" y="645" type="line" smooth="yes"/>
      <point x="715" y="645"/>
      <point x="739" y="624"/>
      <point x="739" y="583" type="curve" smooth="yes"/>
      <point x="739" y="542"/>
      <point x="712" y="520"/>
      <point x="673" y="520" type="curve"/>
      <point x="673" y="457" type="line"/>
      <point x="765" y="457"/>
      <point x="817" y="500"/>
      <point x="817" y="583" type="curve" smooth="yes"/>
      <point x="817" y="666"/>
      <point x="777" y="714"/>
      <point x="611" y="714" type="curve" smooth="yes"/>
      <point x="111" y="714" type="line"/>
      <point x="111" y="188" type="line"/>
      <point x="612" y="188" type="line" smooth="yes"/>
      <point x="715" y="188"/>
      <point x="739" y="167"/>
      <point x="739" y="126" type="curve" smooth="yes"/>
      <point x="739" y="85"/>
      <point x="712" y="63"/>
      <point x="673" y="63" type="curve"/>
    </contour>
    <contour>
      <point x="189" y="257" type="line"/>
      <point x="189" y="645" type="line"/>
      <point x="471" y="645" type="line"/>
      <point x="471" y="257" type="line"/>
    </contour>
    <contour>
      <point x="327" y="409" type="curve" smooth="yes"/>
      <point x="357" y="409"/>
      <point x="377" y="427"/>
      <point x="377" y="459" type="curve" smooth="yes"/>
      <point x="377" y="490"/>
      <point x="356" y="509"/>
      <point x="327" y="509" type="curve" smooth="yes"/>
      <point x="298" y="509"/>
      <point x="277" y="490"/>
      <point x="277" y="459" type="curve" smooth="yes"/>
      <point x="277" y="427"/>
      <point x="295" y="409"/>
    </contour>
  </outline>
</glyph>
<glyph name="uA554" format="2">
  <advance width="682"/>
  <unicode hex="A554"/>
  <outline>
    <contour>
      <point x="22" y="0" type="line"/>
      <point x="660" y="0" type="line"/>
      <point x="371" y="714" type="line"/>
      <point x="314" y="714" type="line"/>
    </contour>
    <contour>
      <point x="131" y="73" type="line"/>
      <point x="337" y="594" type="line"/>
      <point x="542" y="73" type="line"/>
    </contour>
  </outline>
</glyph>
<glyph name="uA555" format="2">
  <advance width="647"/>
  <unicode hex="A555"/>
  <outline>
    <contour>
      <point x="324" y="84" type="curve" smooth="yes"/>
      <point x="498" y="84"/>
      <point x="614" y="199"/>
      <point x="614" y="384" type="curve" smooth="yes"/>
      <point x="614" y="565"/>
      <point x="492" y="687"/>
      <point x="324" y="687" type="curve" smooth="yes"/>
      <point x="155" y="687"/>
      <point x="33" y="565"/>
      <point x="33" y="384" type="curve" smooth="yes"/>
      <point x="33" y="199"/>
      <point x="139" y="84"/>
    </contour>
    <contour>
      <point x="324" y="152" type="curve" smooth="yes"/>
      <point x="268" y="152"/>
      <point x="222" y="167"/>
      <point x="187" y="195" type="curve"/>
      <point x="324" y="332" type="line"/>
      <point x="459" y="197" type="line"/>
      <point x="423" y="168"/>
      <point x="377" y="152"/>
    </contour>
    <contour>
      <point x="140" y="252" type="line"/>
      <point x="121" y="288"/>
      <point x="111" y="332"/>
      <point x="111" y="384" type="curve" smooth="yes"/>
      <point x="111" y="433"/>
      <point x="122" y="478"/>
      <point x="142" y="514" type="curve"/>
      <point x="272" y="384" type="line"/>
    </contour>
    <contour>
      <point x="506" y="254" type="curve"/>
      <point x="376" y="384" type="line"/>
      <point x="505" y="513" type="line"/>
      <point x="524" y="477"/>
      <point x="536" y="433"/>
      <point x="536" y="384" type="curve" smooth="yes"/>
      <point x="536" y="333"/>
      <point x="525" y="289"/>
    </contour>
    <contour>
      <point x="324" y="435" type="line"/>
      <point x="188" y="571" type="line"/>
      <point x="224" y="602"/>
      <point x="271" y="619"/>
      <point x="324" y="619" type="curve" smooth="yes"/>
      <point x="377" y="619"/>
      <point x="423" y="601"/>
      <point x="459" y="570" type="curve"/>
    </contour>
  </outline>
</glyph>
<glyph name="uA556" format="2">
  <advance width="748"/>
  <unicode hex="A556"/>
  <outline>
    <contour>
      <point x="55" y="0" type="line"/>
      <point x="693" y="0" type="line"/>
      <point x="404" y="714" type="line"/>
      <point x="347" y="714" type="line"/>
    </contour>
    <contour>
      <point x="126" y="395" type="curve" smooth="yes"/>
      <point x="158" y="395"/>
      <point x="176" y="413"/>
      <point x="176" y="445" type="curve" smooth="yes"/>
      <point x="176" y="476"/>
      <point x="155" y="495"/>
      <point x="126" y="495" type="curve" smooth="yes"/>
      <point x="97" y="495"/>
      <point x="76" y="476"/>
      <point x="76" y="445" type="curve" smooth="yes"/>
      <point x="76" y="413"/>
      <point x="96" y="395"/>
    </contour>
    <contour>
      <point x="164" y="73" type="line"/>
      <point x="370" y="594" type="line"/>
      <point x="575" y="73" type="line"/>
    </contour>
    <contour>
      <point x="624" y="395" type="curve" smooth="yes"/>
      <point x="654" y="395"/>
      <point x="674" y="413"/>
      <point x="674" y="445" type="curve" smooth="yes"/>
      <point x="674" y="476"/>
      <point x="653" y="495"/>
      <point x="624" y="495" type="curve" smooth="yes"/>
      <point x="595" y="495"/>
      <point x="574" y="476"/>
      <point x="574" y="445" type="curve" smooth="yes"/>
      <point x="574" y="413"/>
      <point x="592" y="395"/>
    </contour>
  </outline>
</glyph>
<glyph name="uA557" format="2">
  <advance width="607"/>
  <unicode hex="A557"/>
  <outline>
    <contour>
      <point x="111" y="0" type="line"/>
      <point x="317" y="0" type="line" smooth="yes"/>
      <point x="438" y="0"/>
      <point x="530" y="60"/>
      <point x="530" y="193" type="curve" smooth="yes"/>
      <point x="530" y="282"/>
      <point x="472" y="344"/>
      <point x="413" y="363" type="curve"/>
      <point x="413" y="367" type="line"/>
      <point x="470" y="383"/>
      <point x="526" y="440"/>
      <point x="526" y="524" type="curve" smooth="yes"/>
      <point x="526" y="654"/>
      <point x="438" y="714"/>
      <point x="316" y="714" type="curve" smooth="yes"/>
      <point x="111" y="714" type="line"/>
    </contour>
    <contour>
      <point x="189" y="69" type="line"/>
      <point x="189" y="329" type="line"/>
      <point x="316" y="329" type="line" smooth="yes"/>
      <point x="392" y="329"/>
      <point x="452" y="283"/>
      <point x="452" y="193" type="curve"/>
      <point x="452" y="103"/>
      <point x="395" y="69"/>
      <point x="317" y="69" type="curve" smooth="yes"/>
    </contour>
    <contour>
      <point x="189" y="394" type="line"/>
      <point x="189" y="645" type="line"/>
      <point x="316" y="645" type="line" smooth="yes"/>
      <point x="388" y="645"/>
      <point x="448" y="610"/>
      <point x="448" y="524" type="curve" smooth="yes"/>
      <point x="448" y="438"/>
      <point x="391" y="394"/>
      <point x="316" y="394" type="curve" smooth="yes"/>
    </contour>
  </outline>
</glyph>
<glyph name="uA559" format="2">
  <advance width="734"/>
  <unicode hex="A559"/>
  <outline>
    <contour>
      <point x="506" y="-8" type="curve" smooth="yes"/>
      <point x="576" y="-8"/>
      <point x="668" y="17"/>
      <point x="668" y="113" type="curve" smooth="yes"/>
      <point x="668" y="177"/>
      <point x="616" y="222"/>
      <point x="545" y="222" type="curve"/>
      <point x="545" y="492" type="line"/>
      <point x="616" y="492"/>
      <point x="668" y="537"/>
      <point x="668" y="601" type="curve" smooth="yes"/>
      <point x="668" y="697"/>
      <point x="576" y="722"/>
      <point x="506" y="722" type="curve" smooth="yes"/>
      <point x="415" y="722"/>
      <point x="310" y="677"/>
      <point x="230" y="580" type="curve"/>
      <point x="275" y="543" type="line"/>
      <point x="338" y="605"/>
      <point x="417" y="654"/>
      <point x="506" y="654" type="curve"/>
      <point x="569" y="654"/>
      <point x="595" y="630"/>
      <point x="595" y="601" type="curve" smooth="yes"/>
      <point x="595" y="564"/>
      <point x="567" y="555"/>
      <point x="522" y="555" type="curve" smooth="yes"/>
      <point x="470" y="555" type="line"/>
      <point x="470" y="403" type="line"/>
      <point x="155" y="403" type="line"/>
      <point x="155" y="563" type="line"/>
      <point x="77" y="563" type="line"/>
      <point x="77" y="175" type="line"/>
      <point x="155" y="175" type="line"/>
      <point x="155" y="335" type="line"/>
      <point x="470" y="335" type="line"/>
      <point x="470" y="159" type="line"/>
      <point x="522" y="159" type="line" smooth="yes"/>
      <point x="567" y="159"/>
      <point x="595" y="150"/>
      <point x="595" y="113" type="curve" smooth="yes"/>
      <point x="595" y="84"/>
      <point x="567" y="60"/>
      <point x="506" y="60" type="curve" smooth="yes"/>
      <point x="417" y="60"/>
      <point x="343" y="114"/>
      <point x="280" y="176" type="curve"/>
      <point x="230" y="134" type="line"/>
      <point x="310" y="37"/>
      <point x="415" y="-8"/>
    </contour>
  </outline>
</glyph>
<glyph name="uA55D" format="2">
  <advance width="962"/>
  <unicode hex="A55D"/>
  <outline>
    <contour>
      <point x="574" y="0" type="line"/>
      <point x="652" y="0" type="line"/>
      <point x="652" y="714" type="line"/>
      <point x="574" y="714" type="line"/>
      <point x="574" y="477" type="line" smooth="yes"/>
      <point x="574" y="372"/>
      <point x="537" y="323"/>
      <point x="486" y="323" type="curve" smooth="yes"/>
      <point x="433" y="323"/>
      <point x="392" y="359"/>
      <point x="392" y="453" type="curve" smooth="yes"/>
      <point x="392" y="546" type="line"/>
      <point x="314" y="546" type="line"/>
      <point x="314" y="455" type="line" smooth="yes"/>
      <point x="314" y="359"/>
      <point x="272" y="323"/>
      <point x="227" y="323" type="curve" smooth="yes"/>
      <point x="169" y="323"/>
      <point x="133" y="372"/>
      <point x="133" y="475" type="curve" smooth="yes"/>
      <point x="133" y="546" type="line"/>
      <point x="55" y="546" type="line"/>
      <point x="55" y="475" type="line" smooth="yes"/>
      <point x="55" y="309"/>
      <point x="118" y="257"/>
      <point x="212" y="257" type="curve" smooth="yes"/>
      <point x="264" y="257"/>
      <point x="319" y="279"/>
      <point x="349" y="347" type="curve"/>
      <point x="353" y="347" type="line"/>
      <point x="374" y="277"/>
      <point x="433" y="257"/>
      <point x="473" y="257" type="curve" smooth="yes"/>
      <point x="505" y="257"/>
      <point x="549" y="275"/>
      <point x="570" y="322" type="curve"/>
      <point x="574" y="322" type="line"/>
    </contour>
    <contour>
      <point x="353" y="146" type="curve" smooth="yes"/>
      <point x="383" y="146"/>
      <point x="403" y="164"/>
      <point x="403" y="196" type="curve" smooth="yes"/>
      <point x="403" y="227"/>
      <point x="382" y="246"/>
      <point x="353" y="246" type="curve" smooth="yes"/>
      <point x="324" y="246"/>
      <point x="303" y="227"/>
      <point x="303" y="196" type="curve" smooth="yes"/>
      <point x="303" y="164"/>
      <point x="321" y="146"/>
    </contour>
    <contour>
      <point x="353" y="586" type="curve" smooth="yes"/>
      <point x="383" y="586"/>
      <point x="403" y="604"/>
      <point x="403" y="636" type="curve" smooth="yes"/>
      <point x="403" y="667"/>
      <point x="382" y="686"/>
      <point x="353" y="686" type="curve" smooth="yes"/>
      <point x="324" y="686"/>
      <point x="303" y="667"/>
      <point x="303" y="636" type="curve" smooth="yes"/>
      <point x="303" y="604"/>
      <point x="321" y="586"/>
    </contour>
    <contour>
      <point x="773" y="0" type="line"/>
      <point x="851" y="0" type="line"/>
      <point x="851" y="714" type="line"/>
      <point x="773" y="714" type="line"/>
    </contour>
  </outline>
</glyph>
<glyph name="uA55E" format="2">
  <advance width="702"/>
  <unicode hex="A55E"/>
  <outline>
    <contour>
      <point x="311" y="0" type="line"/>
      <point x="389" y="0" type="line"/>
      <point x="389" y="228" type="line"/>
      <point x="658" y="228" type="line"/>
      <point x="658" y="296" type="line"/>
      <point x="389" y="296" type="line"/>
      <point x="389" y="428" type="line"/>
      <point x="658" y="428" type="line"/>
      <point x="658" y="496" type="line"/>
      <point x="389" y="496" type="line"/>
      <point x="389" y="714" type="line"/>
      <point x="311" y="714" type="line"/>
    </contour>
    <contour>
      <point x="111" y="0" type="line"/>
      <point x="189" y="0" type="line"/>
      <point x="189" y="714" type="line"/>
      <point x="111" y="714" type="line"/>
    </contour>
  </outline>
</glyph>
<glyph name="uA55F" format="2">
  <advance width="702"/>
  <unicode hex="A55F"/>
  <outline>
    <contour>
      <point x="311" y="0" type="line"/>
      <point x="389" y="0" type="line"/>
      <point x="389" y="228" type="line"/>
      <point x="658" y="228" type="line"/>
      <point x="658" y="296" type="line"/>
      <point x="389" y="296" type="line"/>
      <point x="389" y="428" type="line"/>
      <point x="658" y="428" type="line"/>
      <point x="658" y="496" type="line"/>
      <point x="389" y="496" type="line"/>
      <point x="389" y="714" type="line"/>
      <point x="311" y="714" type="line"/>
    </contour>
    <contour>
      <point x="273" y="-162" type="line"/>
      <point x="293" y="-123"/>
      <point x="317" y="-114"/>
      <point x="348" y="-114" type="curve" smooth="yes"/>
      <point x="392" y="-114"/>
      <point x="464" y="-151"/>
      <point x="520" y="-151" type="curve" smooth="yes"/>
      <point x="583" y="-151"/>
      <point x="620" y="-123"/>
      <point x="645" y="-60" type="curve"/>
      <point x="599" y="-33" type="line"/>
      <point x="579" y="-72"/>
      <point x="555" y="-81"/>
      <point x="524" y="-81" type="curve" smooth="yes"/>
      <point x="482" y="-81"/>
      <point x="411" y="-44"/>
      <point x="352" y="-44" type="curve" smooth="yes"/>
      <point x="289" y="-44"/>
      <point x="252" y="-72"/>
      <point x="227" y="-135" type="curve"/>
    </contour>
    <contour>
      <point x="111" y="0" type="line"/>
      <point x="189" y="0" type="line"/>
      <point x="189" y="714" type="line"/>
      <point x="111" y="714" type="line"/>
    </contour>
  </outline>
</glyph>
<glyph name="uA560" format="2">
  <advance width="878"/>
  <unicode hex="A560"/>
  <outline>
    <contour>
      <point x="111" y="0" type="line"/>
      <point x="629" y="0" type="line"/>
      <point x="629" y="437" type="line"/>
      <point x="773" y="437"/>
      <point x="834" y="495"/>
      <point x="834" y="578" type="curve" smooth="yes"/>
      <point x="834" y="661"/>
      <point x="782" y="714"/>
      <point x="640" y="714" type="curve"/>
      <point x="640" y="651" type="line"/>
      <point x="729" y="651"/>
      <point x="756" y="619"/>
      <point x="756" y="578" type="curve" smooth="yes"/>
      <point x="756" y="537"/>
      <point x="723" y="506"/>
      <point x="629" y="506" type="curve" smooth="yes"/>
      <point x="111" y="506" type="line"/>
    </contour>
    <contour>
      <point x="189" y="69" type="line"/>
      <point x="189" y="437" type="line"/>
      <point x="331" y="437" type="line"/>
      <point x="331" y="69" type="line"/>
    </contour>
    <contour>
      <point x="409" y="69" type="line"/>
      <point x="409" y="437" type="line"/>
      <point x="551" y="437" type="line"/>
      <point x="551" y="69" type="line"/>
    </contour>
  </outline>
</glyph>
<glyph name="uA561" format="2">
  <advance width="878"/>
  <unicode hex="A561"/>
  <outline>
    <contour>
      <point x="111" y="0" type="line"/>
      <point x="629" y="0" type="line"/>
      <point x="629" y="437" type="line"/>
      <point x="773" y="437"/>
      <point x="834" y="495"/>
      <point x="834" y="578" type="curve" smooth="yes"/>
      <point x="834" y="661"/>
      <point x="782" y="714"/>
      <point x="640" y="714" type="curve"/>
      <point x="640" y="651" type="line"/>
      <point x="729" y="651"/>
      <point x="756" y="619"/>
      <point x="756" y="578" type="curve" smooth="yes"/>
      <point x="756" y="537"/>
      <point x="723" y="506"/>
      <point x="629" y="506" type="curve" smooth="yes"/>
      <point x="111" y="506" type="line"/>
    </contour>
    <contour>
      <point x="189" y="69" type="line"/>
      <point x="189" y="437" type="line"/>
      <point x="331" y="437" type="line"/>
      <point x="331" y="69" type="line"/>
    </contour>
    <contour>
      <point x="409" y="69" type="line"/>
      <point x="409" y="437" type="line"/>
      <point x="551" y="437" type="line"/>
      <point x="551" y="69" type="line"/>
    </contour>
    <contour>
      <point x="753" y="284" type="curve" smooth="yes"/>
      <point x="783" y="284"/>
      <point x="803" y="302"/>
      <point x="803" y="334" type="curve" smooth="yes"/>
      <point x="803" y="365"/>
      <point x="782" y="384"/>
      <point x="753" y="384" type="curve" smooth="yes"/>
      <point x="724" y="384"/>
      <point x="703" y="365"/>
      <point x="703" y="334" type="curve" smooth="yes"/>
      <point x="703" y="302"/>
      <point x="721" y="284"/>
    </contour>
    <contour>
      <point x="533" y="574" type="curve" smooth="yes"/>
      <point x="563" y="574"/>
      <point x="583" y="592"/>
      <point x="583" y="624" type="curve" smooth="yes"/>
      <point x="583" y="655"/>
      <point x="562" y="674"/>
      <point x="533" y="674" type="curve" smooth="yes"/>
      <point x="504" y="674"/>
      <point x="483" y="655"/>
      <point x="483" y="624" type="curve" smooth="yes"/>
      <point x="483" y="592"/>
      <point x="501" y="574"/>
    </contour>
  </outline>
</glyph>
<glyph name="uA562" format="2">
  <advance width="917"/>
  <unicode hex="A562"/>
  <outline>
    <contour>
      <point x="458" y="-8" type="curve" smooth="yes"/>
      <point x="575" y="-8"/>
      <point x="674" y="78"/>
      <point x="674" y="206" type="curve" smooth="yes"/>
      <point x="674" y="241"/>
      <point x="666" y="272"/>
      <point x="652" y="300" type="curve"/>
      <point x="761" y="308"/>
      <point x="851" y="392"/>
      <point x="851" y="512" type="curve" smooth="yes"/>
      <point x="851" y="639"/>
      <point x="752" y="725"/>
      <point x="635" y="725" type="curve" smooth="yes"/>
      <point x="563" y="725"/>
      <point x="498" y="693"/>
      <point x="458" y="639" type="curve"/>
      <point x="419" y="693"/>
      <point x="354" y="725"/>
      <point x="283" y="725" type="curve" smooth="yes"/>
      <point x="166" y="725"/>
      <point x="66" y="639"/>
      <point x="66" y="512" type="curve" smooth="yes"/>
      <point x="66" y="393"/>
      <point x="154" y="310"/>
      <point x="262" y="301" type="curve"/>
      <point x="248" y="273"/>
      <point x="241" y="241"/>
      <point x="241" y="206" type="curve" smooth="yes"/>
      <point x="241" y="78"/>
      <point x="341" y="-8"/>
    </contour>
    <contour>
      <point x="458" y="58" type="curve" smooth="yes"/>
      <point x="381" y="58"/>
      <point x="317" y="117"/>
      <point x="317" y="206" type="curve" smooth="yes"/>
      <point x="317" y="293"/>
      <point x="381" y="351"/>
      <point x="458" y="351" type="curve" smooth="yes"/>
      <point x="535" y="351"/>
      <point x="598" y="293"/>
      <point x="598" y="206" type="curve" smooth="yes"/>
      <point x="598" y="117"/>
      <point x="535" y="58"/>
    </contour>
    <contour>
      <point x="283" y="366" type="curve" smooth="yes"/>
      <point x="206" y="366"/>
      <point x="142" y="424"/>
      <point x="142" y="512" type="curve" smooth="yes"/>
      <point x="142" y="600"/>
      <point x="206" y="659"/>
      <point x="283" y="659" type="curve" smooth="yes"/>
      <point x="360" y="659"/>
      <point x="423" y="600"/>
      <point x="423" y="512" type="curve" smooth="yes"/>
      <point x="423" y="424"/>
      <point x="360" y="366"/>
    </contour>
    <contour>
      <point x="635" y="366" type="curve" smooth="yes"/>
      <point x="558" y="366"/>
      <point x="494" y="424"/>
      <point x="494" y="512" type="curve" smooth="yes"/>
      <point x="494" y="600"/>
      <point x="558" y="659"/>
      <point x="635" y="659" type="curve" smooth="yes"/>
      <point x="712" y="659"/>
      <point x="775" y="600"/>
      <point x="775" y="512" type="curve" smooth="yes"/>
      <point x="775" y="424"/>
      <point x="712" y="366"/>
    </contour>
  </outline>
</glyph>
<glyph name="uA563" format="2">
  <advance width="917"/>
  <unicode hex="A563"/>
  <outline>
    <contour>
      <point x="458" y="-8" type="curve" smooth="yes"/>
      <point x="575" y="-8"/>
      <point x="674" y="78"/>
      <point x="674" y="206" type="curve" smooth="yes"/>
      <point x="674" y="241"/>
      <point x="666" y="272"/>
      <point x="652" y="300" type="curve"/>
      <point x="761" y="308"/>
      <point x="851" y="392"/>
      <point x="851" y="512" type="curve" smooth="yes"/>
      <point x="851" y="639"/>
      <point x="752" y="725"/>
      <point x="635" y="725" type="curve" smooth="yes"/>
      <point x="563" y="725"/>
      <point x="498" y="693"/>
      <point x="458" y="639" type="curve"/>
      <point x="419" y="693"/>
      <point x="354" y="725"/>
      <point x="283" y="725" type="curve" smooth="yes"/>
      <point x="166" y="725"/>
      <point x="66" y="639"/>
      <point x="66" y="512" type="curve" smooth="yes"/>
      <point x="66" y="393"/>
      <point x="154" y="310"/>
      <point x="262" y="301" type="curve"/>
      <point x="248" y="273"/>
      <point x="241" y="241"/>
      <point x="241" y="206" type="curve" smooth="yes"/>
      <point x="241" y="78"/>
      <point x="341" y="-8"/>
    </contour>
    <contour>
      <point x="129" y="159" type="curve" smooth="yes"/>
      <point x="159" y="159"/>
      <point x="179" y="177"/>
      <point x="179" y="209" type="curve" smooth="yes"/>
      <point x="179" y="240"/>
      <point x="158" y="259"/>
      <point x="129" y="259" type="curve" smooth="yes"/>
      <point x="100" y="259"/>
      <point x="79" y="240"/>
      <point x="79" y="209" type="curve" smooth="yes"/>
      <point x="79" y="177"/>
      <point x="97" y="159"/>
    </contour>
    <contour>
      <point x="458" y="58" type="curve" smooth="yes"/>
      <point x="381" y="58"/>
      <point x="317" y="117"/>
      <point x="317" y="206" type="curve" smooth="yes"/>
      <point x="317" y="293"/>
      <point x="381" y="351"/>
      <point x="458" y="351" type="curve" smooth="yes"/>
      <point x="535" y="351"/>
      <point x="598" y="293"/>
      <point x="598" y="206" type="curve" smooth="yes"/>
      <point x="598" y="117"/>
      <point x="535" y="58"/>
    </contour>
    <contour>
      <point x="283" y="366" type="curve" smooth="yes"/>
      <point x="206" y="366"/>
      <point x="142" y="424"/>
      <point x="142" y="512" type="curve" smooth="yes"/>
      <point x="142" y="600"/>
      <point x="206" y="659"/>
      <point x="283" y="659" type="curve" smooth="yes"/>
      <point x="360" y="659"/>
      <point x="423" y="600"/>
      <point x="423" y="512" type="curve" smooth="yes"/>
      <point x="423" y="424"/>
      <point x="360" y="366"/>
    </contour>
    <contour>
      <point x="787" y="159" type="curve" smooth="yes"/>
      <point x="817" y="159"/>
      <point x="837" y="177"/>
      <point x="837" y="209" type="curve" smooth="yes"/>
      <point x="837" y="240"/>
      <point x="816" y="259"/>
      <point x="787" y="259" type="curve" smooth="yes"/>
      <point x="758" y="259"/>
      <point x="737" y="240"/>
      <point x="737" y="209" type="curve" smooth="yes"/>
      <point x="737" y="177"/>
      <point x="755" y="159"/>
    </contour>
    <contour>
      <point x="635" y="366" type="curve" smooth="yes"/>
      <point x="558" y="366"/>
      <point x="494" y="424"/>
      <point x="494" y="512" type="curve" smooth="yes"/>
      <point x="494" y="600"/>
      <point x="558" y="659"/>
      <point x="635" y="659" type="curve" smooth="yes"/>
      <point x="712" y="659"/>
      <point x="775" y="600"/>
      <point x="775" y="512" type="curve" smooth="yes"/>
      <point x="775" y="424"/>
      <point x="712" y="366"/>
    </contour>
  </outline>
</glyph>
<glyph name="uA564" format="2">
  <advance width="874"/>
  <unicode hex="A564"/>
  <outline>
    <contour>
      <point x="223" y="-10" type="curve" smooth="yes"/>
      <point x="316" y="-10"/>
      <point x="407" y="70"/>
      <point x="436" y="161" type="curve"/>
      <point x="440" y="161" type="line"/>
      <point x="469" y="70"/>
      <point x="558" y="-10"/>
      <point x="651" y="-10" type="curve" smooth="yes"/>
      <point x="741" y="-10"/>
      <point x="808" y="50"/>
      <point x="808" y="145" type="curve" smooth="yes"/>
      <point x="808" y="238"/>
      <point x="726" y="330"/>
      <point x="606" y="356" type="curve"/>
      <point x="606" y="360" type="line"/>
      <point x="726" y="391"/>
      <point x="808" y="480"/>
      <point x="808" y="570" type="curve" smooth="yes"/>
      <point x="808" y="661"/>
      <point x="745" y="725"/>
      <point x="651" y="725" type="curve" smooth="yes"/>
      <point x="558" y="725"/>
      <point x="469" y="645"/>
      <point x="440" y="554" type="curve"/>
      <point x="436" y="554" type="line"/>
      <point x="407" y="645"/>
      <point x="316" y="725"/>
      <point x="223" y="725" type="curve" smooth="yes"/>
      <point x="129" y="725"/>
      <point x="66" y="661"/>
      <point x="66" y="570" type="curve" smooth="yes"/>
      <point x="66" y="477"/>
      <point x="148" y="385"/>
      <point x="268" y="359" type="curve"/>
      <point x="268" y="355" type="line"/>
      <point x="148" y="324"/>
      <point x="66" y="235"/>
      <point x="66" y="145" type="curve"/>
      <point x="66" y="50"/>
      <point x="133" y="-10"/>
    </contour>
    <contour>
      <point x="223" y="58" type="curve" smooth="yes"/>
      <point x="178" y="58"/>
      <point x="144" y="92"/>
      <point x="144" y="145" type="curve" smooth="yes"/>
      <point x="144" y="242"/>
      <point x="280" y="329"/>
      <point x="369" y="329" type="curve" smooth="yes"/>
      <point x="403" y="329" type="line"/>
      <point x="403" y="280" type="line"/>
      <point x="403" y="171"/>
      <point x="323" y="58"/>
    </contour>
    <contour>
      <point x="651" y="58" type="curve" smooth="yes"/>
      <point x="551" y="58"/>
      <point x="471" y="178"/>
      <point x="471" y="280" type="curve"/>
      <point x="471" y="329" type="line"/>
      <point x="505" y="329" type="line" smooth="yes"/>
      <point x="594" y="329"/>
      <point x="730" y="242"/>
      <point x="730" y="145" type="curve" smooth="yes"/>
      <point x="730" y="92"/>
      <point x="696" y="58"/>
    </contour>
    <contour>
      <point x="369" y="386" type="line" smooth="yes"/>
      <point x="280" y="386"/>
      <point x="144" y="468"/>
      <point x="144" y="570" type="curve" smooth="yes"/>
      <point x="144" y="621"/>
      <point x="176" y="657"/>
      <point x="223" y="657" type="curve" smooth="yes"/>
      <point x="319" y="657"/>
      <point x="403" y="543"/>
      <point x="403" y="435" type="curve"/>
      <point x="403" y="386" type="line"/>
    </contour>
    <contour>
      <point x="471" y="386" type="line"/>
      <point x="471" y="435" type="line"/>
      <point x="471" y="543"/>
      <point x="555" y="657"/>
      <point x="651" y="657" type="curve" smooth="yes"/>
      <point x="698" y="657"/>
      <point x="730" y="621"/>
      <point x="730" y="570" type="curve" smooth="yes"/>
      <point x="730" y="468"/>
      <point x="594" y="386"/>
      <point x="505" y="386" type="curve" smooth="yes"/>
    </contour>
  </outline>
</glyph>
<glyph name="uA565" format="2">
  <advance width="906"/>
  <unicode hex="A565"/>
  <outline>
    <contour>
      <point x="240" y="-10" type="curve" smooth="yes"/>
      <point x="333" y="-10"/>
      <point x="424" y="70"/>
      <point x="453" y="161" type="curve"/>
      <point x="457" y="161" type="line"/>
      <point x="486" y="70"/>
      <point x="575" y="-10"/>
      <point x="668" y="-10" type="curve" smooth="yes"/>
      <point x="758" y="-10"/>
      <point x="825" y="50"/>
      <point x="825" y="145" type="curve" smooth="yes"/>
      <point x="825" y="238"/>
      <point x="743" y="330"/>
      <point x="623" y="356" type="curve"/>
      <point x="623" y="360" type="line"/>
      <point x="743" y="391"/>
      <point x="825" y="480"/>
      <point x="825" y="570" type="curve" smooth="yes"/>
      <point x="825" y="661"/>
      <point x="762" y="725"/>
      <point x="668" y="725" type="curve" smooth="yes"/>
      <point x="575" y="725"/>
      <point x="486" y="645"/>
      <point x="457" y="554" type="curve"/>
      <point x="453" y="554" type="line"/>
      <point x="424" y="645"/>
      <point x="333" y="725"/>
      <point x="240" y="725" type="curve" smooth="yes"/>
      <point x="146" y="725"/>
      <point x="83" y="661"/>
      <point x="83" y="570" type="curve" smooth="yes"/>
      <point x="83" y="477"/>
      <point x="165" y="385"/>
      <point x="285" y="359" type="curve"/>
      <point x="285" y="355" type="line"/>
      <point x="165" y="324"/>
      <point x="83" y="235"/>
      <point x="83" y="145" type="curve" smooth="yes"/>
      <point x="83" y="50"/>
      <point x="150" y="-10"/>
    </contour>
    <contour>
      <point x="83" y="307" type="curve" smooth="yes"/>
      <point x="113" y="307"/>
      <point x="133" y="325"/>
      <point x="133" y="357" type="curve" smooth="yes"/>
      <point x="133" y="388"/>
      <point x="112" y="407"/>
      <point x="83" y="407" type="curve" smooth="yes"/>
      <point x="54" y="407"/>
      <point x="33" y="388"/>
      <point x="33" y="357" type="curve" smooth="yes"/>
      <point x="33" y="325"/>
      <point x="51" y="307"/>
    </contour>
    <contour>
      <point x="455" y="-60" type="curve" smooth="yes"/>
      <point x="485" y="-60"/>
      <point x="505" y="-42"/>
      <point x="505" y="-10" type="curve" smooth="yes"/>
      <point x="505" y="21"/>
      <point x="484" y="40"/>
      <point x="455" y="40" type="curve" smooth="yes"/>
      <point x="426" y="40"/>
      <point x="405" y="21"/>
      <point x="405" y="-10" type="curve" smooth="yes"/>
      <point x="405" y="-42"/>
      <point x="423" y="-60"/>
    </contour>
    <contour>
      <point x="240" y="58" type="curve" smooth="yes"/>
      <point x="195" y="58"/>
      <point x="161" y="92"/>
      <point x="161" y="145" type="curve" smooth="yes"/>
      <point x="161" y="242"/>
      <point x="297" y="329"/>
      <point x="386" y="329" type="curve" smooth="yes"/>
      <point x="420" y="329" type="line"/>
      <point x="420" y="280" type="line" smooth="yes"/>
      <point x="420" y="171"/>
      <point x="340" y="58"/>
    </contour>
    <contour>
      <point x="668" y="58" type="curve" smooth="yes"/>
      <point x="568" y="58"/>
      <point x="488" y="178"/>
      <point x="488" y="280" type="curve" smooth="yes"/>
      <point x="488" y="329" type="line"/>
      <point x="522" y="329" type="line" smooth="yes"/>
      <point x="611" y="329"/>
      <point x="747" y="242"/>
      <point x="747" y="145" type="curve" smooth="yes"/>
      <point x="747" y="92"/>
      <point x="713" y="58"/>
    </contour>
    <contour>
      <point x="386" y="386" type="line" smooth="yes"/>
      <point x="297" y="386"/>
      <point x="161" y="468"/>
      <point x="161" y="570" type="curve" smooth="yes"/>
      <point x="161" y="621"/>
      <point x="193" y="657"/>
      <point x="240" y="657" type="curve" smooth="yes"/>
      <point x="336" y="657"/>
      <point x="420" y="543"/>
      <point x="420" y="435" type="curve" smooth="yes"/>
      <point x="420" y="386" type="line"/>
    </contour>
    <contour>
      <point x="488" y="386" type="line"/>
      <point x="488" y="435" type="line" smooth="yes"/>
      <point x="488" y="543"/>
      <point x="572" y="657"/>
      <point x="668" y="657" type="curve" smooth="yes"/>
      <point x="715" y="657"/>
      <point x="747" y="621"/>
      <point x="747" y="570" type="curve" smooth="yes"/>
      <point x="747" y="468"/>
      <point x="611" y="386"/>
      <point x="522" y="386" type="curve" smooth="yes"/>
    </contour>
    <contour>
      <point x="455" y="670" type="curve" smooth="yes"/>
      <point x="485" y="670"/>
      <point x="505" y="688"/>
      <point x="505" y="720" type="curve" smooth="yes"/>
      <point x="505" y="751"/>
      <point x="484" y="770"/>
      <point x="455" y="770" type="curve" smooth="yes"/>
      <point x="426" y="770"/>
      <point x="405" y="751"/>
      <point x="405" y="720" type="curve" smooth="yes"/>
      <point x="405" y="688"/>
      <point x="423" y="670"/>
    </contour>
    <contour>
      <point x="823" y="307" type="curve" smooth="yes"/>
      <point x="853" y="307"/>
      <point x="873" y="325"/>
      <point x="873" y="357" type="curve" smooth="yes"/>
      <point x="873" y="388"/>
      <point x="852" y="407"/>
      <point x="823" y="407" type="curve" smooth="yes"/>
      <point x="794" y="407"/>
      <point x="773" y="388"/>
      <point x="773" y="357" type="curve" smooth="yes"/>
      <point x="773" y="325"/>
      <point x="791" y="307"/>
    </contour>
  </outline>
</glyph>
<glyph name="uA566" format="2">
  <advance width="723"/>
  <unicode hex="A566"/>
  <outline>
    <contour>
      <point x="467" y="-10" type="curve" smooth="yes"/>
      <point x="576" y="-10"/>
      <point x="668" y="60"/>
      <point x="668" y="176" type="curve" smooth="yes"/>
      <point x="668" y="293"/>
      <point x="594" y="352"/>
      <point x="509" y="352" type="curve" smooth="yes"/>
      <point x="458" y="352"/>
      <point x="415" y="327"/>
      <point x="386" y="296" type="curve"/>
      <point x="383" y="297" type="line"/>
      <point x="396" y="458"/>
      <point x="434" y="565"/>
      <point x="494" y="652" type="curve"/>
      <point x="456" y="714" type="line"/>
      <point x="54" y="561" type="line"/>
      <point x="78" y="497" type="line"/>
      <point x="389" y="614" type="line"/>
      <point x="370" y="577"/>
      <point x="352" y="534"/>
      <point x="338" y="483" type="curve"/>
      <point x="55" y="376" type="line"/>
      <point x="80" y="311" type="line"/>
      <point x="320" y="402" type="line"/>
      <point x="308" y="338"/>
      <point x="302" y="264"/>
      <point x="302" y="181" type="curve" smooth="yes"/>
      <point x="302" y="44"/>
      <point x="384" y="-10"/>
    </contour>
    <contour>
      <point x="480" y="56" type="curve" smooth="yes"/>
      <point x="386" y="56"/>
      <point x="380" y="156"/>
      <point x="380" y="225" type="curve"/>
      <point x="402" y="257"/>
      <point x="438" y="286"/>
      <point x="492" y="286" type="curve" smooth="yes"/>
      <point x="565" y="286"/>
      <point x="591" y="229"/>
      <point x="591" y="176" type="curve" smooth="yes"/>
      <point x="591" y="103"/>
      <point x="537" y="56"/>
    </contour>
  </outline>
</glyph>
<glyph name="uA567" format="2">
  <advance width="768"/>
  <unicode hex="A567"/>
  <outline>
    <contour>
      <point x="34" y="0" type="line"/>
      <point x="114" y="0" type="line"/>
      <point x="250" y="335" type="line" smooth="yes"/>
      <point x="288" y="429"/>
      <point x="337" y="578"/>
      <point x="346" y="643" type="curve"/>
      <point x="350" y="642" type="line"/>
      <point x="345" y="604"/>
      <point x="342" y="417"/>
      <point x="342" y="334" type="curve" smooth="yes"/>
      <point x="342" y="0" type="line"/>
      <point x="420" y="0" type="line"/>
      <point x="420" y="334" type="line" smooth="yes"/>
      <point x="420" y="417"/>
      <point x="416" y="602"/>
      <point x="412" y="642" type="curve"/>
      <point x="416" y="643" type="line"/>
      <point x="425" y="577"/>
      <point x="478" y="418"/>
      <point x="512" y="334" type="curve" smooth="yes"/>
      <point x="646" y="0" type="line"/>
      <point x="734" y="0" type="line"/>
      <point x="473" y="645" type="line"/>
      <point x="638" y="645" type="line"/>
      <point x="638" y="714" type="line"/>
      <point x="136" y="714" type="line"/>
      <point x="136" y="645" type="line"/>
      <point x="301" y="645" type="line"/>
    </contour>
  </outline>
</glyph>
<glyph name="uA568" format="2">
  <advance width="679"/>
  <unicode hex="A568"/>
  <outline>
    <contour>
      <point x="34" y="0" type="line"/>
      <point x="114" y="0" type="line"/>
      <point x="205" y="225" type="line" smooth="yes"/>
      <point x="243" y="319"/>
      <point x="295" y="468"/>
      <point x="301" y="533" type="curve"/>
      <point x="305" y="532" type="line"/>
      <point x="300" y="494"/>
      <point x="297" y="303"/>
      <point x="297" y="224" type="curve" smooth="yes"/>
      <point x="297" y="0" type="line"/>
      <point x="375" y="0" type="line"/>
      <point x="375" y="224" type="line" smooth="yes"/>
      <point x="375" y="307"/>
      <point x="371" y="492"/>
      <point x="367" y="532" type="curve"/>
      <point x="371" y="533" type="line"/>
      <point x="377" y="467"/>
      <point x="433" y="308"/>
      <point x="467" y="224" type="curve" smooth="yes"/>
      <point x="557" y="0" type="line"/>
      <point x="641" y="0" type="line"/>
      <point x="424" y="535" type="line"/>
      <point x="583" y="535" type="line"/>
      <point x="583" y="564" type="line" smooth="yes"/>
      <point x="583" y="684"/>
      <point x="530" y="725"/>
      <point x="444" y="725" type="curve" smooth="yes"/>
      <point x="395" y="725"/>
      <point x="356" y="703"/>
      <point x="343" y="666" type="curve"/>
      <point x="339" y="666" type="line"/>
      <point x="328" y="700"/>
      <point x="289" y="725"/>
      <point x="236" y="725" type="curve" smooth="yes"/>
      <point x="154" y="725"/>
      <point x="101" y="685"/>
      <point x="101" y="564" type="curve" smooth="yes"/>
      <point x="101" y="535" type="line"/>
      <point x="256" y="535" type="line"/>
    </contour>
    <contour>
      <point x="173" y="596" type="line"/>
      <point x="173" y="637"/>
      <point x="197" y="667"/>
      <point x="236" y="667" type="curve" smooth="yes"/>
      <point x="272" y="667"/>
      <point x="297" y="637"/>
      <point x="297" y="596" type="curve"/>
    </contour>
    <contour>
      <point x="384" y="596" type="line"/>
      <point x="384" y="635"/>
      <point x="415" y="667"/>
      <point x="443" y="667" type="curve" smooth="yes"/>
      <point x="484" y="667"/>
      <point x="509" y="637"/>
      <point x="509" y="596" type="curve"/>
    </contour>
  </outline>
</glyph>
